<svg xmlns="http://www.w3.org/2000/svg" width="59" height="59" viewBox="0 0 59 59">
  <g id="그룹_2" data-name="그룹 2" transform="translate(-1522 -2450)">
    <g id="그룹_1" data-name="그룹 1">
      <g id="main_icon02" transform="translate(1521.5 2449.5)">
        <circle id="타원_2" data-name="타원 2" cx="29.5" cy="29.5" r="29.5" transform="translate(0.5 0.5)" fill="#bed755"/>
      </g>
    </g>
    <path id="Vector_4_" data-name="Vector (4)" d="M20.437,7.913H33.818M18.064,4.2S21.188,1.756,23.9,1.756a5.781,5.781,0,0,1,5.783,5.867,5.986,5.986,0,0,1-5.85,6.132c-4.286,0-6.077-3.1-7.9-6s-3.613-6-7.9-6A5.986,5.986,0,0,0,2.181,7.89a5.781,5.781,0,0,0,5.785,5.866c2.706,0,5.832-2.441,5.832-2.441" transform="translate(1533.5 2471.744)" fill="none" stroke="#000" stroke-miterlimit="10" stroke-width="2.5"/>
  </g>
</svg>
