<svg xmlns="http://www.w3.org/2000/svg" width="59" height="59" viewBox="0 0 59 59">
  <g id="그룹_2" data-name="그룹 2" transform="translate(-1517 -2258)">
    <g id="main_icon01" transform="translate(1516.5 2257.5)">
      <circle id="타원_1" data-name="타원 1" cx="29.5" cy="29.5" r="29.5" transform="translate(0.5 0.5)" fill="#f6f6f6"/>
    </g>
    <path id="Vector_2_" data-name="Vector (2)" d="M30.675,16a14,14,0,0,0-3.64-9.268A14.464,14.464,0,0,0,6.792,5.594,14.045,14.045,0,0,0,2,16m23.218,0a8.676,8.676,0,0,0-2.254-5.74,8.96,8.96,0,0,0-12.54-.7A8.7,8.7,0,0,0,7.456,16m17.6-6.656H40" transform="translate(1527.5 2278.5)" fill="none" stroke="#000" stroke-miterlimit="10" stroke-width="2.5"/>
  </g>
</svg>
