<svg id="side_menu_cion03_on" xmlns="http://www.w3.org/2000/svg" width="60" height="60" viewBox="0 0 60 60">
  <circle id="타원_9" data-name="타원 9" cx="30" cy="30" r="30" opacity="0"/>
  <rect id="사각형_2" data-name="사각형 2" width="58" height="58" rx="29" transform="translate(1 1)" fill="none" stroke="#fff" stroke-width="2" opacity="0.8"/>
  <path id="패스_9" data-name="패스 9" d="M29.71,42a3.911,3.911,0,0,1-2.725-.893A3,3,0,0,1,26,38.777q0-.506.618-4.233l1.276-6.951H26.27l.078-.7H28.01a27.248,27.248,0,0,0,4.212-.233l.541-.116L30.1,41.224a2.749,2.749,0,0,0,1.932-1.088l.58.466a3.619,3.619,0,0,1-2.9,1.4Zm-.5-19.184a2.7,2.7,0,0,1-.812-1.98,2.767,2.767,0,0,1,.812-2A2.642,2.642,0,0,1,31.178,18a2.7,2.7,0,0,1,1.99.835,2.734,2.734,0,0,1,.832,2,2.667,2.667,0,0,1-.831,1.98,2.735,2.735,0,0,1-1.99.816,2.675,2.675,0,0,1-1.971-.815Z" fill="#00a4e2"/>
</svg>
