<svg xmlns="http://www.w3.org/2000/svg" width="60" height="60" viewBox="0 0 60 60">
  <g id="그룹_4" data-name="그룹 4" transform="translate(-3242 -2277)">
    <g id="side_menu_cion01" transform="translate(3241 2276)">
      <circle id="타원_6" data-name="타원 6" cx="30" cy="30" r="30" transform="translate(1 1)" opacity="0"/>
      <g id="그룹_2" data-name="그룹 2" opacity="0.8">
        <circle id="타원_7" data-name="타원 7" cx="29" cy="29" r="29" transform="translate(2 2)" fill="none" stroke="#fff" stroke-width="2"/>
      </g>
      <path id="패스_6" data-name="패스 6" d="M23.963,24.862a2.933,2.933,0,1,0-2.826-2.932A2.884,2.884,0,0,0,23.963,24.862Zm8.062,5.091h-1.68c-.44-.687-1.271-1.987-2.044-3.19A2.48,2.48,0,0,0,26.122,25.4H21.71A2.811,2.811,0,0,0,19,28.439v5.018a1.01,1.01,0,0,0,.988,1.037,1.022,1.022,0,0,0,1-1.037V29.163h.28V41.61a1.346,1.346,0,1,0,2.691,0V35.23h.55v6.379a1.344,1.344,0,1,0,2.687,0V29.163h.242l1.532,2.384a1,1,0,0,0,.817.467s1.587.006,2.234.006a1.021,1.021,0,0,0,1-1.04,1,1,0,0,0-1-1.027Z" fill="#bed755"/>
      <path id="패스_7" data-name="패스 7" d="M40.87,21.93a2.83,2.83,0,1,0-2.826,2.932A2.881,2.881,0,0,0,40.87,21.93ZM28.977,30.977a1.022,1.022,0,0,0,1,1.04c.647,0,2.234-.007,2.234-.007a.99.99,0,0,0,.817-.466l1.532-2.384H34.8V41.606a1.344,1.344,0,1,0,2.687,0V35.228h.55v6.378a1.346,1.346,0,1,0,2.691,0V29.16h.28v4.3a1.022,1.022,0,0,0,1,1.037A1.011,1.011,0,0,0,43,33.455V28.437A2.811,2.811,0,0,0,40.29,25.4H35.878a2.486,2.486,0,0,0-2.18,1.364l-2.043,3.191h-1.68a1.009,1.009,0,0,0-1,1.024Z" fill="#bed755"/>
    </g>
  </g>
</svg>
