<svg xmlns="http://www.w3.org/2000/svg" width="51" height="46" fill="none" viewBox="0 0 51 46">
    <path fill="#848484" d="M45.9 5.111h-8.084L33.15 0h-15.3l-4.667 5.111H5.1c-2.805 0-5.1 2.3-5.1 5.111V40.89C0 43.7 2.295 46 5.1 46h40.8c2.805 0 5.1-2.3 5.1-5.111V10.222c0-2.81-2.295-5.11-5.1-5.11zm0 35.778H5.1V10.222h10.328l4.666-5.11h10.812l4.666 5.11H45.9V40.89zM25.5 12.778c-7.038 0-12.75 5.724-12.75 12.778 0 7.053 5.712 12.777 12.75 12.777s12.75-5.724 12.75-12.777c0-7.054-5.712-12.778-12.75-12.778zm0 20.444c-4.207 0-7.65-3.45-7.65-7.666 0-4.217 3.442-7.667 7.65-7.667 4.207 0 7.65 3.45 7.65 7.667 0 4.216-3.442 7.666-7.65 7.666z"/>
</svg>
