<svg xmlns="http://www.w3.org/2000/svg" xmlns:xlink="http://www.w3.org/1999/xlink" width="257" height="421" fill="none" viewBox="0 0 257 421">
    <g filter="url(#filter0_d)">
        <rect width="240" height="379.43" x="3.244" fill="#AFC74E" rx="13.32"/>
        <rect width="240" height="68.462" x="3.244" y="336.537" fill="#fff" rx="13.32"/>
        <path fill="#fff" d="M3.244 336.537H243.244V383.553H3.244z"/>
        <path fill="#000" d="M18.91 363.121h4.829v-2.237H17.93v.764h4.849v.755h-4.83v2.266h6.004v-.755H18.91v-.793zm4.642-3.729c.178-.895.178-1.604.178-2.154v-.559h-5.716v.774h4.774c0 .522-.028 1.137-.196 1.939h-5.538v.774h7.627v-.774h-1.129zm3.04-2.089h-.961v5.324h.56c.876 0 1.845-.046 2.974-.251l-.103-.821c-.914.168-1.725.233-2.47.252v-4.504zm4.913-.969v3.347h-.998v-3.179h-.904v7.832h.904v-3.861h.998v4.28h.914v-8.419h-.914zm5.743 7.683c-1.231 0-1.921-.262-1.921-.774 0-.504.69-.774 1.92-.774 1.231 0 1.93.27 1.93.774 0 .512-.699.774-1.93.774zm0-2.285c-1.81 0-2.9.55-2.9 1.511 0 .969 1.09 1.51 2.9 1.51 1.818 0 2.9-.541 2.9-1.51 0-.961-1.082-1.511-2.9-1.511zm-1.026-2.163c.308.047.671.075 1.044.075s.718-.028 1.026-.075v.858h-2.07v-.858zm1.044-2.35c1.25 0 2.005.299 2.005.84 0 .54-.755.848-2.005.848-1.258 0-2.014-.308-2.014-.848 0-.541.755-.84 2.014-.84zm1.986 3.208v-1.11c.644-.279 1.017-.708 1.017-1.258 0-.989-1.166-1.585-3.003-1.585-1.846 0-3.002.596-3.002 1.585 0 .55.364.979.998 1.249v1.119h-1.81v.764h7.618v-.764h-1.818zm8.372-4.103v8.448h.97v-8.448h-.97zm-3.515.625c-1.25 0-2.163 1.156-2.163 2.965 0 1.827.914 2.974 2.163 2.974 1.259 0 2.173-1.147 2.173-2.974 0-1.809-.914-2.965-2.173-2.965zm0 .867c.737 0 1.25.793 1.25 2.098 0 1.324-.513 2.117-1.25 2.117-.727 0-1.24-.793-1.24-2.117 0-1.305.513-2.098 1.24-2.098zm14.205.569h-4.792v-1.054h4.708v-.774h-5.66v2.602h5.744v-.774zm-4.857 4.83h4.792v-2.089h-5.762v.737h4.82v.652h-4.801v2.154h5.986v-.746h-5.035v-.708zm-1.856-3.478v.774h7.618v-.774H51.6zm10.46 2.294c-.717 0-1.211-.784-1.211-2.117 0-1.305.494-2.098 1.212-2.098.727 0 1.221.793 1.221 2.098 0 1.333-.494 2.117-1.221 2.117zm3.758-5.707v3.142h-1.64c-.131-1.547-.989-2.517-2.117-2.517-1.24 0-2.126 1.156-2.126 2.965 0 1.827.886 2.974 2.126 2.974 1.156 0 2.014-1.007 2.126-2.638h1.631v4.522h.97v-8.448h-.97zm2.573.476v.783h2.825c-.13 1.203-1.212 2.182-3.235 2.639l.363.774c2.508-.588 3.935-2.005 3.935-4.196h-3.888zm5.221 7.077h-3.478v-.923h3.478v.923zm0-1.679h-3.478v-.951h-.95v3.404h5.38v-3.404h-.952v.951zm2.154-3.953h-1.203v-1.921h-.96v4.569h.96v-1.855h1.203v-.793zm1.883-1.091h-.951v5.473h.718c1.305 0 2.666-.102 4.111-.401l-.102-.802c-1.324.271-2.583.373-3.776.383v-4.653zm4.55-.82v8.419h.96v-8.419h-.96zm3.505 1.575h2.956v-.783h-3.916v5.567h.69c1.52 0 2.657-.047 3.934-.28l-.103-.793c-1.174.205-2.2.261-3.561.271v-3.982zm6.536 1.66h-1.315v-3.245h-.96v8.438h.96v-4.4h1.315v-.793zm1.286 4.587c.4 0 .718-.307.718-.746 0-.438-.317-.764-.718-.764-.401 0-.718.326-.718.764 0 .439.317.746.718.746zm5.067-1.035h4.83v-2.237h-5.81v.764h4.849v.755h-4.83v2.266h6.005v-.755h-5.044v-.793zm4.643-3.729c.177-.895.177-1.604.177-2.154v-.559h-5.715v.774h4.774c0 .522-.028 1.137-.196 1.939h-5.538v.774h7.626v-.774h-1.128zm3.039-2.089h-.96v5.324h.559c.877 0 1.846-.046 2.974-.251l-.102-.821c-.914.168-1.725.233-2.471.252v-4.504zm4.914-.969v3.347h-.998v-3.179h-.904v7.832h.904v-3.861h.998v4.28h.913v-8.419h-.913zm5.742 7.683c-1.23 0-1.92-.262-1.92-.774 0-.504.69-.774 1.92-.774 1.231 0 1.93.27 1.93.774 0 .512-.699.774-1.93.774zm0-2.285c-1.808 0-2.899.55-2.899 1.511 0 .969 1.091 1.51 2.899 1.51 1.819 0 2.9-.541 2.9-1.51 0-.961-1.081-1.511-2.9-1.511zm-1.025-2.163c.308.047.671.075 1.044.075s.718-.028 1.026-.075v.858h-2.07v-.858zm1.044-2.35c1.25 0 2.005.299 2.005.84 0 .54-.755.848-2.005.848-1.259 0-2.014-.308-2.014-.848 0-.541.755-.84 2.014-.84zm1.986 3.208v-1.11c.643-.279 1.016-.708 1.016-1.258 0-.989-1.165-1.585-3.002-1.585-1.846 0-3.002.596-3.002 1.585 0 .55.363.979.997 1.249v1.119h-1.808v.764h7.617v-.764h-1.818zm8.372-4.103v8.448h.97v-8.448h-.97zm-3.515.625c-1.249 0-2.163 1.156-2.163 2.965 0 1.827.914 2.974 2.163 2.974 1.259 0 2.173-1.147 2.173-2.974 0-1.809-.914-2.965-2.173-2.965zm0 .867c.737 0 1.249.793 1.249 2.098 0 1.324-.512 2.117-1.249 2.117-.727 0-1.24-.793-1.24-2.117 0-1.305.513-2.098 1.24-2.098zm14.205.569h-4.792v-1.054h4.708v-.774h-5.659v2.602h5.743v-.774zm-4.857 4.83h4.792v-2.089h-5.762v.737h4.82v.652h-4.802v2.154h5.986v-.746h-5.034v-.708zm-1.856-3.478v.774h7.618v-.774h-7.618zm10.461 2.294c-.718 0-1.212-.784-1.212-2.117 0-1.305.494-2.098 1.212-2.098.727 0 1.221.793 1.221 2.098 0 1.333-.494 2.117-1.221 2.117zm3.757-5.707v3.142h-1.641c-.13-1.547-.988-2.517-2.116-2.517-1.24 0-2.126 1.156-2.126 2.965 0 1.827.886 2.974 2.126 2.974 1.156 0 2.014-1.007 2.126-2.638h1.631v4.522h.97v-8.448h-.97zm2.573.476v.783h2.825c-.131 1.203-1.212 2.182-3.235 2.639l.363.774c2.508-.588 3.935-2.005 3.935-4.196h-3.888zm5.221 7.077h-3.478v-.923h3.478v.923zm0-1.679h-3.478v-.951h-.951v3.404h5.38v-3.404h-.951v.951zm2.154-3.953h-1.203v-1.921h-.96v4.569h.96v-1.855h1.203v-.793zm1.883-1.091h-.951v5.473h.718c1.305 0 2.666-.102 4.111-.401l-.102-.802c-1.324.271-2.583.373-3.776.383v-4.653zm4.55-.82v8.419h.96v-8.419h-.96zm3.505 1.575h2.955v-.783h-3.916v5.567h.69c1.52 0 2.658-.047 3.935-.28l-.103-.793c-1.174.205-2.2.261-3.561.271v-3.982zm6.536 1.66h-1.315v-3.245h-.96v8.438h.96v-4.4h1.315v-.793zm1.286 4.587c.401 0 .718-.307.718-.746 0-.438-.317-.764-.718-.764-.401 0-.718.326-.718.764 0 .439.317.746.718.746zm3.346-1.035h4.829v-2.237h-5.808v.764h4.848v.755h-4.83v2.266h6.005v-.755h-5.044v-.793zm4.643-3.729c.177-.895.177-1.604.177-2.154v-.559h-5.716v.774h4.774c0 .522-.028 1.137-.196 1.939h-5.538v.774h7.627v-.774h-1.128zm3.039-2.089h-.961v5.324h.56c.876 0 1.846-.046 2.974-.251l-.103-.821c-.913.168-1.724.233-2.47.252v-4.504zm4.913-.969v3.347h-.997v-3.179h-.905v7.832h.905v-3.861h.997v4.28h.914v-8.419h-.914zm5.743 7.683c-1.231 0-1.921-.262-1.921-.774 0-.504.69-.774 1.921-.774s1.93.27 1.93.774c0 .512-.699.774-1.93.774zm0-2.285c-1.809 0-2.9.55-2.9 1.511 0 .969 1.091 1.51 2.9 1.51 1.818 0 2.9-.541 2.9-1.51 0-.961-1.082-1.511-2.9-1.511zm-1.026-2.163c.308.047.672.075 1.045.075.373 0 .718-.028 1.025-.075v.858h-2.07v-.858zm1.045-2.35c1.249 0 2.004.299 2.004.84 0 .54-.755.848-2.004.848-1.259 0-2.014-.308-2.014-.848 0-.541.755-.84 2.014-.84zm1.986 3.208v-1.11c.643-.279 1.016-.708 1.016-1.258 0-.989-1.165-1.585-3.002-1.585-1.846 0-3.003.596-3.003 1.585 0 .55.364.979.998 1.249v1.119h-1.809v.764h7.618v-.764h-1.818zm8.372-4.103v8.448h.969v-8.448h-.969zm-3.515.625c-1.25 0-2.163 1.156-2.163 2.965 0 1.827.913 2.974 2.163 2.974 1.258 0 2.172-1.147 2.172-2.974 0-1.809-.914-2.965-2.172-2.965zm0 .867c.736 0 1.249.793 1.249 2.098 0 1.324-.513 2.117-1.249 2.117-.728 0-1.24-.793-1.24-2.117 0-1.305.512-2.098 1.24-2.098zm14.205.569h-4.793v-1.054h4.709v-.774h-5.66v2.602h5.744v-.774zm-4.858 4.83h4.793v-2.089h-5.763v.737h4.821v.652h-4.802v2.154h5.986v-.746h-5.035v-.708zm-1.855-3.478v.774h7.617v-.774h-7.617zM19.32 377.031c-.719 0-1.213-.784-1.213-2.117 0-1.305.494-2.098 1.212-2.098.728 0 1.222.793 1.222 2.098 0 1.333-.494 2.117-1.222 2.117zm3.757-5.707v3.142h-1.641c-.13-1.547-.988-2.517-2.117-2.517-1.24 0-2.125 1.156-2.125 2.965 0 1.827.885 2.974 2.125 2.974 1.157 0 2.014-1.007 2.126-2.638h1.632v4.522h.97v-8.448h-.97zm2.572.476v.783h2.826c-.13 1.203-1.213 2.182-3.236 2.639l.364.774c2.508-.588 3.934-2.005 3.934-4.196H25.65zm5.222 7.077h-3.478v-.923h3.478v.923zm0-1.679h-3.478v-.951h-.951v3.404h5.38v-3.404h-.951v.951zm2.154-3.953h-1.203v-1.921h-.96v4.569h.96v-1.855h1.203v-.793zm1.882-1.091h-.95v5.473h.717c1.306 0 2.667-.102 4.112-.401l-.102-.802c-1.325.271-2.583.373-3.777.383v-4.653zm4.55-.82v8.419h.96v-8.419h-.96zm3.505 1.575h2.956v-.783h-3.916v5.567h.69c1.52 0 2.657-.047 3.935-.28l-.103-.793c-1.175.205-2.2.261-3.562.271v-3.982zm6.536 1.66h-1.314v-3.245h-.96v8.438h.96v-4.4h1.314v-.793zm1.286 4.587c.401 0 .718-.307.718-.746 0-.438-.317-.764-.718-.764-.4 0-.718.326-.718.764 0 .439.317.746.718.746z"/>
        <path fill="#000" fill-opacity=".5" d="M48.826 310.492h-.932v1.52c0 1.436-.578 2.946-1.772 3.655l.587.727c.812-.494 1.362-1.38 1.66-2.415.29.942.793 1.763 1.557 2.229l.54-.746c-1.127-.709-1.64-2.135-1.64-3.497v-1.473zm1.977 2.173h-1.24v.783h1.24v4.298h.904v-7.869h-.904v2.788zm1.715-2.947v8.42h.914v-8.42h-.914zm8.354 6.266h.96v-6.266h-.96v1.175h-1.567v.783h1.567v.905h-1.567v.774h1.567v2.629zm-1.054-1.911c-1.259-.485-1.958-1.651-1.958-2.844v-1.044h-.979v1.044c0 1.268-.727 2.471-2.042 2.956l.522.755c.96-.382 1.66-1.128 2.024-2.079.354.876 1.016 1.594 1.902 1.967l.531-.755zm-2.499 3.123v-1.818h-.97v2.601h5.679v-.783h-4.709zm10.563-2.741c.233-1.492.233-2.555.233-3.291v-.56h-4.28v.774h3.339c0 .709-.019 1.688-.233 2.993l.941.084zM66 313.019h-.942v2.536c-.587.009-1.156.019-1.669.019l.103.792c1.473 0 3.403-.037 5.137-.326l-.046-.709c-.82.112-1.707.159-2.583.196v-2.508zm5.24.159h-1.24v-3.46h-.97v8.42H70v-4.149h1.24v-.811zm7.427.149c.205-1.091.205-1.921.205-2.49v-.485h-4.233v.784h3.291c-.01.522-.037 1.184-.205 2.088l.942.103zm.699.419c-.83.131-1.734.187-2.61.224v-1.697h-.952v1.725c-.596.019-1.174.019-1.678.019l.103.783c1.463 0 3.45-.047 5.202-.354l-.065-.7zm-3.002 1.735h-.97v2.498h5.725v-.783h-4.755v-1.715zm4.484-3.096v-2.667h-.97v6.322h.97v-2.862h1.12v-.793h-1.12zm6.564-.392h-1.063c.065-.391.093-.811.093-1.24h-3.254v.774h2.303c-.14 1.725-.979 3.096-2.713 4.149l.55.681c1.576-.942 2.461-2.163 2.853-3.58h1.23v1.333h-1.38v.783h1.38v2.835h.896v-7.804h-.895v2.069zm1.697-2.275v8.42h.923v-8.42h-.923zm3.374 2.303c0-.699.532-1.156 1.268-1.156.737 0 1.278.457 1.278 1.156 0 .709-.541 1.175-1.278 1.175-.736 0-1.268-.466-1.268-1.175zm4.98.383v1.771h.96v-4.447h-.96v1.883h-1.567c-.187-.923-1.035-1.538-2.145-1.538-1.258 0-2.19.802-2.19 1.948 0 1.166.931 1.968 2.19 1.968 1.12 0 1.968-.634 2.154-1.585h1.557zm-2.975 4.895h-1.203v-.979h1.203v.979zm0-2.639v.951h-1.203v-.951h-.895v3.375h2.984v-3.375h-.886zm3.328-.065h-.95v.671c0 .83-.476 1.706-1.492 2.126l.484.727c.718-.298 1.194-.839 1.474-1.473.26.643.745 1.184 1.491 1.473l.476-.727c-1.016-.373-1.483-1.231-1.483-2.126v-.671zm9.006-2.462h-4.82v-2.116h-.96v2.9h5.78v-.784zm-4.876 3.338h-.96v2.48h5.883v-.773h-4.923v-1.707zm-1.893-1.548v.774h7.646v-.774h-7.646zm16.033-1.305h.932v2.657h.914v-5.566h-.914v2.126h-.932v-1.977h-.895v4.681h.895v-1.921zm-1.38.625c-.858.177-1.613.224-2.62.233v-2.284h2.303v-.784h-3.254v3.851h.569c1.24 0 2.088-.028 3.086-.233l-.084-.783zm.858 1.632h-.951v.289c0 1.016-1.156 1.958-2.779 2.2l.392.746c1.296-.224 2.35-.839 2.872-1.716.512.877 1.566 1.492 2.853 1.716l.401-.746c-1.632-.242-2.788-1.184-2.788-2.2v-.289zm5.715 1.631h4.829v-2.238h-5.808v.765h4.848v.755h-4.83v2.266h6.005v-.755h-5.044v-.793zm4.643-3.729c.177-.895.177-1.604.177-2.154v-.56h-5.715v.774h4.773c0 .522-.028 1.138-.195 1.94h-5.539v.774h7.627v-.774h-1.128zm5.92-2.024c1.231 0 2.004.345 2.004.933 0 .596-.773.941-2.004.941-1.24 0-2.014-.345-2.014-.941 0-.588.774-.933 2.014-.933zm0 2.648c1.818 0 3.002-.643 3.002-1.715 0-1.063-1.184-1.706-3.002-1.706-1.818 0-3.002.643-3.002 1.706 0 1.072 1.184 1.715 3.002 1.715zm-1.884 2.126h-.969v2.452h5.808v-.783h-4.839v-1.669zm-1.93-1.445v.783h7.618v-.783h-7.618zm15.688-.503c-1.259-.42-1.977-1.436-1.977-2.518v-.904h-.969v.82c0 1.194-.718 2.275-2.042 2.723l.485.764c.988-.335 1.678-1.035 2.051-1.92.354.82 1.035 1.473 1.967 1.78l.485-.745zm-3.897 2.396h4.578v2.163h.96v-2.937h-5.538v.774zm6.731-4.103h-1.193v-2.144h-.96v5.081h.96v-2.144h1.193v-.793zm3.403-.447h1.389v-.793h-3.804v.793h1.483v.606c0 1.501-.56 3.021-1.753 3.767l.578.708c.811-.513 1.352-1.417 1.65-2.48.298.979.821 1.809 1.613 2.275l.559-.699c-1.174-.681-1.715-2.135-1.715-3.571v-.606zm2.014 1.249h-1.24v.783h1.24v4.271h.904v-7.851h-.904v2.797zm1.697-2.965v8.42h.914v-8.42h-.914zm3.076 4.97c1.361-.261 2.536-1.063 3.077-2.145.55 1.072 1.734 1.856 3.123 2.117l.392-.765c-1.669-.261-3.012-1.398-3.012-2.666v-.019h2.676v-.774h-6.359v.774h2.676v.019c0 1.268-1.333 2.433-2.974 2.694l.401.765zm3.571 1.641v-1.968h-.97v1.968h-3.328v.783h7.627v-.783h-3.329zm7.496-4.41h1.827v-.774h-1.827v-1.25h-.961v1.25h-1.865v.774h1.865v.484c0 1.39-.802 2.816-2.126 3.413l.532.736c.979-.447 1.715-1.361 2.088-2.48.383 1.054 1.119 1.921 2.08 2.341l.512-.746c-1.305-.569-2.125-1.94-2.125-3.264v-.484zm2.787-2.201v8.42h.97v-8.42h-.97zm8.028 3.692c-.681.103-1.399.168-2.117.196v-.755h1.557v-.774h-3.105v-1.165h3.04v-.784h-4v2.723h1.548v.802c-.821.028-1.604.028-2.285.028l.131.755c1.482 0 3.487-.028 5.296-.354l-.065-.672zm.624 3.87h-3.692v-.821h3.692v.821zm0-1.557h-3.692v-.765h-.951v3.086h5.594v-3.086h-.951v.765zm-.018-5.996v4.867h.969v-4.867h-.969zm4.073.821h-.951v5.473h.718c1.306 0 2.667-.103 4.112-.401l-.103-.802c-1.324.271-2.582.373-3.776.383v-4.653zm4.55-.821v8.42h.961v-8.42h-.961zm3.916 1.576h2.955v-.783h-3.916v5.566h.69c1.52 0 2.658-.046 3.935-.279l-.103-.793c-1.174.205-2.2.261-3.561.27v-3.981zm6.536 1.66h-1.315v-3.245h-.96v8.438h.96v-4.401h1.315v-.792zm1.696 4.587c.401 0 .718-.308.718-.746s-.317-.764-.718-.764c-.401 0-.718.326-.718.764s.317.746.718.746z"/>
        <g fill="#fff" filter="url(#filter1_d)">
            <rect width="82.666" height="32.994" x="123.244" y="24.746" rx="7.992"/>
            <path d="M209.91 41.244l-4 3.571v-7.143l4 3.572z"/>
        </g>
        <path fill="#000" d="M137.482 43.17h1.081v-3.124h2.937v3.124h1.082v-6.862H141.5v2.797h-2.937v-2.797h-1.081v6.862zm6.435 0h1.063v-5.128h-1.063v5.128zm.532-6.089c.391 0 .69-.26.69-.634 0-.382-.299-.634-.69-.634-.392 0-.681.252-.681.634 0 .373.289.634.681.634zm4.532 3.45c.466 0 .96-.289 1.389-.979l-.587-.429c-.233.43-.485.625-.783.625-.588 0-1.007-.858-1.846-.858-.476 0-.97.28-1.39.989l.578.42c.233-.43.495-.626.793-.626.587 0 .998.858 1.846.858zm6.041 2.76c.671 0 1.259-.224 1.734-.54l-.373-.681c-.373.242-.764.382-1.221.382-.886 0-1.501-.587-1.585-1.566h3.329c.028-.122.046-.336.046-.541 0-1.455-.727-2.434-2.088-2.434-1.203 0-2.341 1.035-2.341 2.704 0 1.688 1.11 2.676 2.499 2.676zm-1.454-3.142c.102-.904.671-1.399 1.314-1.399.746 0 1.147.513 1.147 1.399h-2.461zm5.346 3.02h1.24l1.772-5.127h-1.044l-.877 2.76c-.14.503-.298 1.025-.447 1.529h-.038c-.149-.504-.307-1.026-.447-1.53l-.877-2.76h-1.1l1.818 5.129zm5.66.122c.672 0 1.259-.224 1.735-.54l-.373-.681c-.373.242-.765.382-1.222.382-.886 0-1.501-.587-1.585-1.566h3.329c.028-.122.046-.336.046-.541 0-1.455-.727-2.434-2.088-2.434-1.203 0-2.34 1.035-2.34 2.704 0 1.688 1.109 2.676 2.498 2.676zm-1.454-3.142c.102-.904.671-1.399 1.314-1.399.746 0 1.147.513 1.147 1.399h-2.461zm4.218 3.02h1.063v-3.197c.326-.811.83-1.1 1.25-1.1.205 0 .335.028.512.084l.196-.933c-.158-.074-.326-.112-.578-.112-.55 0-1.091.392-1.454 1.054h-.028l-.084-.923h-.877v5.128zm7.792-5.127h-1.045l-.82 2.639-.401 1.445h-.047c-.158-.476-.317-.989-.466-1.445l-.951-2.64h-1.1l2.032 5.092-.102.354c-.187.55-.513.96-1.072.96-.131 0-.28-.046-.373-.074l-.205.839c.177.065.382.102.643.102 1.081 0 1.622-.736 2.023-1.836l1.884-5.436zm4.331 5.25c1.268 0 2.415-.98 2.415-2.677 0-1.715-1.147-2.704-2.415-2.704s-2.415.989-2.415 2.704c0 1.697 1.147 2.676 2.415 2.676zm0-.877c-.802 0-1.305-.718-1.305-1.8 0-1.09.503-1.818 1.305-1.818.811 0 1.315.727 1.315 1.818 0 1.082-.504 1.8-1.315 1.8zm3.303.755h1.063v-3.636c.457-.457.783-.7 1.259-.7.606 0 .867.355.867 1.24v3.096h1.072v-3.226c0-1.306-.485-2.033-1.576-2.033-.699 0-1.221.383-1.697.84h-.028l-.084-.71h-.876v5.129zm7.581.121c.671 0 1.258-.224 1.734-.54l-.373-.681c-.373.242-.765.382-1.222.382-.885 0-1.501-.587-1.585-1.566h3.329c.028-.122.047-.336.047-.541 0-1.455-.728-2.434-2.089-2.434-1.203 0-2.34 1.035-2.34 2.704 0 1.688 1.109 2.676 2.499 2.676zm-1.455-3.142c.103-.904.671-1.399 1.315-1.399.746 0 1.147.513 1.147 1.399h-2.462z"/>
        <g fill="#fff" filter="url(#filter2_d)">
            <rect width="99.941" height="32.994" x="48.637" y="70.113" rx="7.992"/>
            <path d="M45.911 86.61l2.726 3.572V83.04L45.91 86.61z"/>
        </g>
        <ellipse cx="29.911" cy="86.61" fill="url(#pattern0)" rx="13.333" ry="16.497"/>
        <path fill="#000" d="M64.149 88.537h1.025v-3.235c0-.746-.084-1.539-.14-2.247h.047l.718 1.436 2.275 4.046h1.11v-6.862h-1.026v3.198c0 .746.084 1.576.14 2.284h-.047l-.718-1.454-2.275-4.028h-1.11v6.862zm6.38 0h1.064V83.41h-1.064v5.128zm.532-6.088c.392 0 .69-.261.69-.634 0-.383-.298-.634-.69-.634-.392 0-.68.251-.68.634 0 .373.288.634.68.634zm3.861 6.21c.588 0 1.194-.215 1.66-.635l-.438-.708c-.308.26-.69.466-1.12.466-.857 0-1.445-.718-1.445-1.8 0-1.09.616-1.818 1.474-1.818.354 0 .643.15.923.401l.531-.7c-.373-.325-.848-.587-1.501-.587-1.352 0-2.536.989-2.536 2.704 0 1.697 1.063 2.676 2.452 2.676zm4.245 0c.67 0 1.258-.225 1.734-.541l-.373-.681c-.373.242-.765.382-1.222.382-.885 0-1.5-.587-1.585-1.566h3.329c.028-.121.047-.336.047-.541 0-1.455-.728-2.434-2.089-2.434-1.203 0-2.34 1.035-2.34 2.704 0 1.688 1.11 2.676 2.499 2.676zm-1.455-3.143c.103-.904.671-1.398 1.315-1.398.746 0 1.147.512 1.147 1.398h-2.462zm7.665 3.142c.373 0 .718-.093 1.007-.186l-.196-.793c-.15.066-.373.121-.55.121-.532 0-.746-.316-.746-.932v-2.601h1.333v-.858h-1.333v-1.417h-.905l-.12 1.417-.793.056v.802h.746v2.592c0 1.081.4 1.8 1.557 1.8zm3.495 0c1.268 0 2.415-.979 2.415-2.676 0-1.715-1.147-2.704-2.415-2.704s-2.415.989-2.415 2.704c0 1.697 1.147 2.676 2.415 2.676zm0-.876c-.802 0-1.305-.718-1.305-1.8 0-1.09.503-1.818 1.305-1.818.811 0 1.315.727 1.315 1.818 0 1.082-.504 1.8-1.315 1.8zm5.024.755h1.063v-3.636c.43-.466.811-.7 1.156-.7.588 0 .858.355.858 1.24v3.096h1.072v-3.636c.43-.466.802-.7 1.157-.7.578 0 .857.355.857 1.24v3.096h1.073v-3.226c0-1.305-.504-2.033-1.576-2.033-.644 0-1.166.401-1.67.942-.223-.587-.652-.942-1.416-.942-.634 0-1.147.383-1.585.849h-.028l-.084-.718h-.877v5.128zm10.549.121c.671 0 1.259-.224 1.734-.54l-.373-.681c-.373.242-.764.382-1.221.382-.886 0-1.501-.587-1.585-1.566h3.329c.028-.121.046-.336.046-.541 0-1.455-.727-2.434-2.088-2.434-1.203 0-2.341 1.035-2.341 2.704 0 1.688 1.11 2.676 2.499 2.676zm-1.454-3.142c.102-.904.671-1.398 1.314-1.398.746 0 1.147.512 1.147 1.398h-2.461zm6.353 3.142c.671 0 1.259-.224 1.734-.54l-.373-.681c-.373.242-.764.382-1.221.382-.886 0-1.501-.587-1.585-1.566h3.329c.028-.121.046-.336.046-.541 0-1.455-.727-2.434-2.088-2.434-1.203 0-2.341 1.035-2.341 2.704 0 1.688 1.11 2.676 2.499 2.676zm-1.454-3.142c.102-.904.671-1.398 1.314-1.398.746 0 1.147.512 1.147 1.398h-2.461zm5.843 3.142c.373 0 .718-.093 1.007-.186l-.196-.793c-.149.066-.373.121-.55.121-.532 0-.746-.316-.746-.932v-2.601h1.333v-.858h-1.333v-1.417h-.905l-.121 1.417-.792.056v.802h.746v2.592c0 1.081.401 1.8 1.557 1.8zm7.46-5.249h-1.045l-.82 2.639-.401 1.445h-.047c-.158-.476-.317-.989-.466-1.445l-.951-2.639h-1.1l2.033 5.09-.103.355c-.187.55-.513.96-1.072.96-.131 0-.28-.046-.373-.074l-.205.839c.177.065.382.103.643.103 1.082 0 1.622-.737 2.023-1.837l1.884-5.436zm2.555 5.25c1.268 0 2.415-.98 2.415-2.677 0-1.715-1.147-2.704-2.415-2.704s-2.415.989-2.415 2.704c0 1.697 1.147 2.676 2.415 2.676zm0-.877c-.802 0-1.305-.718-1.305-1.8 0-1.09.503-1.818 1.305-1.818.811 0 1.315.727 1.315 1.818 0 1.082-.504 1.8-1.315 1.8zm4.804.876c.709 0 1.212-.354 1.679-.895h.028l.084.774h.876V83.41h-1.072v3.562c-.429.54-.755.764-1.231.764-.606 0-.858-.345-.858-1.23v-3.096h-1.072v3.226c0 1.305.475 2.023 1.566 2.023zm4.337-2.312h.718l.149-3.73.037-1.1h-1.081l.028 1.1.149 3.73zm.354 2.312c.411 0 .728-.307.728-.746 0-.438-.317-.764-.728-.764-.401 0-.708.326-.708.764 0 .439.307.746.708.746z"/>
        <g fill="#fff" filter="url(#filter3_d)">
            <rect width="116.667" height="51.965" x="49.911" y="115.479" rx="7.992"/>
            <path d="M45.911 141.874l4 3.572v-7.143l-4 3.571z"/>
        </g>
        <ellipse cx="29.911" cy="141.874" fill="url(#pattern1)" rx="13.333" ry="16.497"/>
        <path fill="#000" d="M64.764 129.692c0-.765.56-1.268 1.296-1.268s1.305.503 1.305 1.268c0 .774-.569 1.277-1.305 1.277-.737 0-1.296-.503-1.296-1.277zm3.543 0c0-1.231-.97-2.098-2.247-2.098-1.268 0-2.238.867-2.238 2.098 0 1.23.97 2.107 2.238 2.107 1.277 0 2.247-.877 2.247-2.107zm-2.378 2.871h-.97v2.723h5.67v-.783h-4.7v-1.94zm4.364-3.039v-2.499h-.96v6.172h.96v-2.881h1.193v-.792h-1.193zm7.645 2.62h.96v-5.119h-.96v.886h-2.21v.736h2.21v.728h-2.21v.746h2.21v2.023zm-1.222-1.539c-1.072.206-2.023.271-3.338.28v-3.384h-.96v4.167h.653c1.51 0 2.573-.046 3.757-.289l-.112-.774zm-.624 4.094c-1.194 0-1.874-.308-1.874-.858s.68-.849 1.874-.849c1.193 0 1.883.299 1.883.849s-.69.858-1.883.858zm0-2.471c-1.753 0-2.835.597-2.835 1.613s1.082 1.613 2.835 1.613c1.762 0 2.843-.597 2.843-1.613s-1.081-1.613-2.843-1.613zm6.488.615c-.68 0-1.174-.466-1.174-1.175 0-.708.494-1.174 1.174-1.174.68 0 1.175.466 1.175 1.174 0 .709-.494 1.175-1.175 1.175zm0-3.142c-1.212 0-2.088.821-2.088 1.967 0 1.157.876 1.968 2.088 1.968 1.203 0 2.089-.811 2.089-1.968 0-1.146-.886-1.967-2.089-1.967zm.466-2.555h-.96v1.175h-2.004v.783h4.932v-.783h-1.968v-1.175zm4.914 3.264h-1.296v-3.385h-.97v8.429h.97v-4.243h1.296v-.801zm2.955-2.611h-.932v1.52c0 1.436-.578 2.946-1.772 3.655l.588.727c.81-.494 1.36-1.38 1.66-2.415.288.942.792 1.762 1.556 2.228l.541-.745c-1.128-.709-1.64-2.136-1.64-3.497v-1.473zm1.977 2.172h-1.24v.784h1.24v4.298h.904v-7.869h-.904v2.787zm1.715-2.946v8.419h.914v-8.419h-.914zm4.67 4.774c.327.074.69.112 1.064.112.373 0 .736-.038 1.063-.121v1.836h-2.126v-1.827zm1.064-3.534c1.268 0 2.154.56 2.154 1.445 0 .895-.886 1.455-2.154 1.455-1.278 0-2.163-.56-2.163-1.455 0-.885.885-1.445 2.163-1.445zm2.023 5.361v-2.191c.671-.382 1.072-.979 1.072-1.725 0-1.342-1.305-2.2-3.095-2.2-1.8 0-3.096.858-3.096 2.2 0 .746.401 1.352 1.072 1.725v2.191h-1.78v.784h7.627v-.784h-1.8zm7.408-2.545h-2.06v-1.389h2.06v1.389zm.951-3.45h-.951v1.315h-2.06v-1.315h-.961v4.224h3.972v-4.224zm-2.051 4.988h-.97v2.667h5.669v-.783h-4.699v-1.884zm4.363-3.114v-2.471h-.96v6.182h.96v-2.918h1.194v-.793h-1.194zm2.023-2.014v.783h2.825c-.13 1.203-1.212 2.182-3.235 2.639l.363.774c2.508-.587 3.935-2.005 3.935-4.196h-3.888zm5.221 7.077h-3.477v-.923h3.477v.923zm0-1.678h-3.477v-.951h-.952v3.403h5.38v-3.403h-.951v.951zm2.154-3.954h-1.203v-1.92h-.96v4.568h.96v-1.855h1.203v-.793zm7.645.607c-1.669-.215-2.909-1.138-2.909-2.108v-.326h-.988v.326c0 .979-1.222 1.893-2.909 2.108l.354.745c1.37-.186 2.508-.82 3.049-1.697.55.877 1.687 1.511 3.058 1.697l.345-.745zm-1.529 5.034h-3.795v-.904h3.795v.904zm0-1.641h-3.795v-.857h-.951v3.263h5.706v-3.263h-.96v.857zm-5.688-2.144v.764h7.627v-.764h-7.627zm9.659-2.946h-.951v5.473h.718c1.305 0 2.667-.103 4.112-.401l-.103-.802c-1.324.27-2.583.373-3.776.382v-4.652zm4.55-.821v8.419h.96v-8.419h-.96zm3.505 1.576h2.956v-.783h-3.916v5.566h.69c1.519 0 2.657-.047 3.934-.28l-.102-.792c-1.175.205-2.201.261-3.562.27v-3.981zm6.536 1.659h-1.315v-3.244h-.96v8.438h.96v-4.401h1.315v-.793zm1.286 4.588c.401 0 .718-.308.718-.746s-.317-.765-.718-.765c-.401 0-.718.327-.718.765s.317.746.718.746zm-83.344 8.147h-.96v5.324h.559c.876 0 1.846-.047 2.974-.252l-.102-.821c-.914.168-1.725.234-2.471.252v-4.503zm4.914-.97v3.347h-.998v-3.179h-.904v7.832h.904v-3.86h.998v4.279h.913v-8.419h-.913zm5.742 7.683c-1.23 0-1.92-.261-1.92-.774 0-.503.69-.774 1.92-.774 1.231 0 1.93.271 1.93.774 0 .513-.699.774-1.93.774zm0-2.284c-1.809 0-2.9.55-2.9 1.51 0 .97 1.091 1.51 2.9 1.51 1.819 0 2.9-.54 2.9-1.51 0-.96-1.081-1.51-2.9-1.51zm-1.025-2.164c.307.047.671.075 1.044.075s.718-.028 1.026-.075v.858h-2.07v-.858zm1.044-2.349c1.25 0 2.005.298 2.005.839 0 .541-.756.848-2.005.848-1.259 0-2.014-.307-2.014-.848 0-.541.755-.839 2.014-.839zm1.986 3.207v-1.109c.643-.28 1.016-.709 1.016-1.259 0-.988-1.165-1.585-3.002-1.585-1.846 0-3.002.597-3.002 1.585 0 .55.363.979.997 1.249v1.119h-1.808v.765h7.617v-.765h-1.818zm8.372-4.102v8.447h.97v-8.447h-.97zm-3.515.624c-1.25 0-2.163 1.157-2.163 2.965 0 1.828.914 2.975 2.163 2.975 1.259 0 2.172-1.147 2.172-2.975 0-1.808-.913-2.965-2.172-2.965zm0 .868c.737 0 1.25.792 1.25 2.097 0 1.324-.513 2.117-1.25 2.117-.727 0-1.24-.793-1.24-2.117 0-1.305.513-2.097 1.24-2.097zm13.207 1.519h-3.85v-1.79h3.85v1.79zm.951-2.554h-5.752v3.328h5.752v-3.328zm.951 4.363h-7.636v.774h3.31v2.834h.96v-2.834h3.367v-.774zm5.585-.643c-1.296-.373-2.042-1.315-2.042-2.322v-.13h1.771v-.765h-1.762v-.998h-.969v.998h-1.772v.765h1.772v.13c0 1.072-.728 2.07-2.024 2.48l.466.746c.989-.307 1.688-.969 2.061-1.809.373.765 1.082 1.371 2.051 1.66l.448-.755zm-3.711 2.126h4.718v2.144h.96v-2.918h-5.678v.774zm4.718-6.303v2.396h-1.567v.783h1.567v1.94h.96v-5.119h-.96zm11.1.68h-2.9v-.783h-.969v.783h-2.947v.737h6.816v-.737zm-1.641 2.238c0 .373-.606.56-1.743.56-1.147 0-1.744-.187-1.744-.56 0-.373.597-.559 1.744-.559 1.137 0 1.743.186 1.743.559zm-4.513 0c0 .802.989 1.222 2.77 1.222 1.771 0 2.759-.42 2.759-1.222s-.988-1.221-2.759-1.221c-1.781 0-2.77.419-2.77 1.221zm2.751 4.811c-1.259 0-1.912-.196-1.912-.606 0-.401.653-.597 1.912-.597 1.268 0 1.921.196 1.921.597 0 .41-.653.606-1.921.606zm0-1.911c-1.837 0-2.9.457-2.9 1.305 0 .858 1.063 1.315 2.9 1.315 1.846 0 2.9-.457 2.9-1.315 0-.848-1.054-1.305-2.9-1.305zm-3.795-1.231v.755h7.618v-.755h-7.618zm8.661-3.785v5.566h3.953v-5.566h-3.953zm3.012.764v4.028h-2.07v-4.028h2.07zm2.499-1.566v8.447h.969v-8.447h-.969zm7.98 7.571h-3.795v-.756h3.795v.756zm0-1.473h-3.795v-.7h-.96v2.928h5.706v-2.928h-.951v.7zm-1.445-1.837v-.672h2.545v-.736h-4.923v-.643h4.755v-2.042h-5.715v.736h4.764v.616h-4.745v2.069h2.358v.672h-3.337v.774h7.636v-.774h-3.338zm5.23-3.403h-.951v5.491h.569c1.034 0 1.958-.046 3.02-.261l-.121-.802c-.886.168-1.678.224-2.517.243v-4.671zm3.179 1.902h-1.79v.783h1.79v4.485h.895v-7.851h-.895v2.583zm1.781-2.76v8.428h.923v-8.428h-.923zm4.671 4.783c.326.074.69.112 1.062.112.373 0 .737-.038 1.063-.121v1.836h-2.125v-1.827zm1.062-3.534c1.269 0 2.154.56 2.154 1.445 0 .895-.885 1.455-2.154 1.455-1.277 0-2.163-.56-2.163-1.455 0-.885.886-1.445 2.163-1.445zm2.024 5.361v-2.191c.671-.382 1.072-.979 1.072-1.725 0-1.342-1.305-2.2-3.096-2.2-1.799 0-3.095.858-3.095 2.2 0 .746.401 1.352 1.072 1.725v2.191H141v.784h7.627v-.784h-1.799zm3.29 1.222c.401 0 .718-.308.718-.746s-.317-.765-.718-.765c-.401 0-.718.327-.718.765s.317.746.718.746z"/>
        <g fill="#fff" filter="url(#filter4_d)">
            <rect width="136.666" height="32.994" x="69.244" y="179.816" rx="7.992"/>
            <path d="M209.91 196.314l-4 3.572v-7.144l4 3.572z"/>
        </g>
        <path fill="#000" d="M88.73 192.282c0 1.091 0 2.331-.326 3.991l.97.102c.317-1.78.317-2.965.317-4.093v-.904h-5.827v.774h4.867v.13zm-5.677 4.709v.792h7.617v-.792h-7.617zm9.444-2.657h2.816v-3.049h-3.776v.774h2.834v1.501h-2.816v3.422h.662c1.473 0 2.564-.047 3.823-.262l-.084-.783c-1.156.196-2.163.243-3.459.252v-1.855zm4.774-3.814v3.161h-1.473v.792h1.473v4.494h.96v-8.447h-.96zm3.505.867h-.951v5.492h.569c1.034 0 1.958-.047 3.02-.261l-.121-.802c-.886.168-1.678.224-2.517.242v-4.671zm3.179 1.902h-1.79v.783h1.79v4.485h.895v-7.85h-.895v2.582zm1.781-2.76v8.429h.923v-8.429h-.923zm4.671 4.784c.326.074.69.111 1.063.111.372 0 .736-.037 1.062-.121v1.837h-2.125v-1.827zm1.063-3.534c1.268 0 2.153.559 2.153 1.445 0 .895-.885 1.455-2.153 1.455-1.278 0-2.164-.56-2.164-1.455 0-.886.886-1.445 2.164-1.445zm2.023 5.361v-2.191c.671-.382 1.072-.979 1.072-1.725 0-1.343-1.305-2.2-3.095-2.2-1.8 0-3.096.857-3.096 2.2 0 .746.401 1.352 1.072 1.725v2.191h-1.781v.783h7.627v-.783h-1.799zm3.29 1.221c.401 0 .718-.307.718-.745 0-.439-.317-.765-.718-.765-.401 0-.718.326-.718.765 0 .438.317.745.718.745zm5.478-2.125c-.718 0-1.212-.784-1.212-2.117 0-1.305.494-2.098 1.212-2.098.727 0 1.221.793 1.221 2.098 0 1.333-.494 2.117-1.221 2.117zm3.757-5.707v3.143h-1.641c-.13-1.548-.988-2.518-2.116-2.518-1.24 0-2.126 1.156-2.126 2.965 0 1.828.886 2.974 2.126 2.974 1.156 0 2.014-1.007 2.126-2.638h1.631v4.522h.97v-8.448h-.97zm6.964 1.707v.727h1.324v2.061h.961v-4.485h-.961v1.697h-1.324zm.579 1.296c-.532.121-.989.158-1.66.168v-2.024h1.398v-.755h-2.34v3.534h.429c1.016 0 1.566-.019 2.247-.168l-.074-.755zm-2.947.009c-.466.103-.895.14-1.296.149v-2.014h1.212v-.755h-2.163v3.534h.392c.615 0 1.203-.01 1.939-.159l-.084-.755zm1.725 4.765c-.886 0-1.398-.178-1.398-.532 0-.364.512-.541 1.398-.541.886 0 1.399.177 1.399.541 0 .354-.513.532-1.399.532zm0-1.735c-1.52 0-2.415.429-2.415 1.203s.895 1.193 2.415 1.193c1.529 0 2.415-.419 2.415-1.193s-.886-1.203-2.415-1.203zm.494-1.063v-.746h-.969v.746h-2.555v.737h6.079v-.737h-2.555zm8.083-1.622h-1.24c.243-.718.355-1.492.355-2.312h-3.273v.774h2.321c-.139 1.724-.969 3.104-2.722 4.149l.55.68c1.166-.699 1.967-1.547 2.462-2.517h1.547v3.897h.905v-7.813h-.905v3.142zm1.762-3.347v8.419h.924v-8.419h-.924zm8.136 2.256v.793h1.529v3.114h.96v-6.154h-.96v2.247h-1.529zm.522 1.967c-1.259-.438-1.977-1.491-1.977-2.526v-.289h1.753v-.774h-4.503v.774h1.781v.289c0 1.137-.765 2.247-2.07 2.704l.494.755c.998-.345 1.706-1.082 2.079-1.995.354.829 1.035 1.491 1.967 1.808l.476-.746zm-2.527 3.254v-1.846h-.96v2.63h5.669v-.784h-4.709zm6.032-6.414v.783h2.359c-.131 1.697-.895 3.077-2.713 4.13l.559.681c2.368-1.361 3.105-3.347 3.105-5.594h-3.31zm5.939-1.063v3.291h-.96v-3.067h-.905v7.804h.905v-3.954h.96v4.345h.914v-8.419h-.914zm8.913 0h-.96v4.485h.96v-4.485zm-1.529 3.384c-.681.075-1.417.122-2.154.149v-.699h1.576v-.746h-3.077v-1.007h2.984v-.736h-3.972v2.489h1.529v.737c-.783.018-1.567.028-2.266.028l.121.746c1.585 0 3.534-.047 5.315-.299l-.056-.662zm-3.133 4.205v-.68h4.662v-2.08h-5.622v.746h4.671v.625h-4.653v2.145h5.856v-.756h-4.914zm6.135-6.703v.792h1.37c-.084 1.688-.494 3.086-1.697 4.364l.765.531c1.501-1.632 1.837-3.524 1.837-5.687h-2.275zm2.564 0v.792h1.118c-.065 1.818-.41 3.459-1.622 4.914l.774.54c1.501-1.836 1.753-4.037 1.753-6.246h-2.023zm5.053 2.508h-1.193v-3.394h-.961v8.41h.961v-4.224h1.193v-.792zm3.104 1.38c.327.074.69.111 1.063.111s.737-.037 1.063-.121v1.837h-2.126v-1.827zm1.063-3.534c1.268 0 2.154.559 2.154 1.445 0 .895-.886 1.455-2.154 1.455-1.277 0-2.163-.56-2.163-1.455 0-.886.886-1.445 2.163-1.445zm2.023 5.361v-2.191c.672-.382 1.073-.979 1.073-1.725 0-1.343-1.306-2.2-3.096-2.2-1.799 0-3.095.857-3.095 2.2 0 .746.401 1.352 1.072 1.725v2.191h-1.781v.783h7.627v-.783h-1.8zm3.561-1.091h.942c-.158-1.389 1.501-1.893 1.501-3.254 0-1.091-.755-1.706-1.837-1.706-.773 0-1.398.373-1.855.895l.606.55c.308-.345.69-.569 1.128-.569.588 0 .914.392.914.905 0 1.016-1.622 1.613-1.399 3.179zm.485 2.312c.401 0 .718-.307.718-.745 0-.439-.317-.765-.718-.765-.41 0-.718.326-.718.765 0 .438.308.745.718.745z"/>
        <rect width="1.333" height="272.2" x="227.91" y="24.746" fill="#000" rx=".667"/>
        <g filter="url(#filter5_d)">
            <ellipse cx="228.577" cy="47.016" fill="#fff" rx="4.667" ry="5.774"/>
            <path stroke="#000" stroke-width="2.664" d="M231.912 47.016c0 2.732-1.744 4.442-3.335 4.442s-3.335-1.71-3.335-4.442 1.744-4.442 3.335-4.442 3.335 1.71 3.335 4.442z"/>
        </g>
    </g>
    <defs>
        <filter id="filter0_d" width="256" height="420.999" x=".244" y="0" color-interpolation-filters="sRGB" filterUnits="userSpaceOnUse">
            <feFlood flood-opacity="0" result="BackgroundImageFix"/>
            <feColorMatrix in="SourceAlpha" values="0 0 0 0 0 0 0 0 0 0 0 0 0 0 0 0 0 0 127 0"/>
            <feOffset dx="5" dy="8"/>
            <feGaussianBlur stdDeviation="4"/>
            <feColorMatrix values="0 0 0 0 0 0 0 0 0 0 0 0 0 0 0 0 0 0 0.2 0"/>
            <feBlend in2="BackgroundImageFix" result="effect1_dropShadow"/>
            <feBlend in="SourceGraphic" in2="effect1_dropShadow" result="shape"/>
        </filter>
        <filter id="filter1_d" width="91.994" height="38.322" x="123.244" y="24.746" color-interpolation-filters="sRGB" filterUnits="userSpaceOnUse">
            <feFlood flood-opacity="0" result="BackgroundImageFix"/>
            <feColorMatrix in="SourceAlpha" values="0 0 0 0 0 0 0 0 0 0 0 0 0 0 0 0 0 0 127 0"/>
            <feOffset dx="2.664" dy="2.664"/>
            <feGaussianBlur stdDeviation="1.332"/>
            <feColorMatrix values="0 0 0 0 0 0 0 0 0 0 0 0 0 0 0 0 0 0 0.25 0"/>
            <feBlend in2="BackgroundImageFix" result="effect1_dropShadow"/>
            <feBlend in="SourceGraphic" in2="effect1_dropShadow" result="shape"/>
        </filter>
        <filter id="filter2_d" width="107.994" height="38.322" x="45.911" y="70.113" color-interpolation-filters="sRGB" filterUnits="userSpaceOnUse">
            <feFlood flood-opacity="0" result="BackgroundImageFix"/>
            <feColorMatrix in="SourceAlpha" values="0 0 0 0 0 0 0 0 0 0 0 0 0 0 0 0 0 0 127 0"/>
            <feOffset dx="2.664" dy="2.664"/>
            <feGaussianBlur stdDeviation="1.332"/>
            <feColorMatrix values="0 0 0 0 0 0 0 0 0 0 0 0 0 0 0 0 0 0 0.25 0"/>
            <feBlend in2="BackgroundImageFix" result="effect1_dropShadow"/>
            <feBlend in="SourceGraphic" in2="effect1_dropShadow" result="shape"/>
        </filter>
        <filter id="filter3_d" width="125.994" height="57.293" x="45.911" y="115.479" color-interpolation-filters="sRGB" filterUnits="userSpaceOnUse">
            <feFlood flood-opacity="0" result="BackgroundImageFix"/>
            <feColorMatrix in="SourceAlpha" values="0 0 0 0 0 0 0 0 0 0 0 0 0 0 0 0 0 0 127 0"/>
            <feOffset dx="2.664" dy="2.664"/>
            <feGaussianBlur stdDeviation="1.332"/>
            <feColorMatrix values="0 0 0 0 0 0 0 0 0 0 0 0 0 0 0 0 0 0 0.25 0"/>
            <feBlend in2="BackgroundImageFix" result="effect1_dropShadow"/>
            <feBlend in="SourceGraphic" in2="effect1_dropShadow" result="shape"/>
        </filter>
        <filter id="filter4_d" width="145.994" height="38.322" x="69.244" y="179.816" color-interpolation-filters="sRGB" filterUnits="userSpaceOnUse">
            <feFlood flood-opacity="0" result="BackgroundImageFix"/>
            <feColorMatrix in="SourceAlpha" values="0 0 0 0 0 0 0 0 0 0 0 0 0 0 0 0 0 0 127 0"/>
            <feOffset dx="2.664" dy="2.664"/>
            <feGaussianBlur stdDeviation="1.332"/>
            <feColorMatrix values="0 0 0 0 0 0 0 0 0 0 0 0 0 0 0 0 0 0 0.25 0"/>
            <feBlend in2="BackgroundImageFix" result="effect1_dropShadow"/>
            <feBlend in="SourceGraphic" in2="effect1_dropShadow" result="shape"/>
        </filter>
        <filter id="filter5_d" width="11.997" height="14.212" x="223.244" y="40.576" color-interpolation-filters="sRGB" filterUnits="userSpaceOnUse">
            <feFlood flood-opacity="0" result="BackgroundImageFix"/>
            <feColorMatrix in="SourceAlpha" values="0 0 0 0 0 0 0 0 0 0 0 0 0 0 0 0 0 0 127 0"/>
            <feOffset dx=".666" dy=".666"/>
            <feGaussianBlur stdDeviation=".666"/>
            <feColorMatrix values="0 0 0 0 0 0 0 0 0 0 0 0 0 0 0 0 0 0 0.25 0"/>
            <feBlend in2="BackgroundImageFix" result="effect1_dropShadow"/>
            <feBlend in="SourceGraphic" in2="effect1_dropShadow" result="shape"/>
        </filter>
        <pattern id="pattern0" width="1" height="1" patternContentUnits="objectBoundingBox">
            <use transform="matrix(.00218 0 0 .00176 -.084 0)" xlink:href="#image0"/>
        </pattern>
        <pattern id="pattern1" width="1" height="1" patternContentUnits="objectBoundingBox">
            <use transform="matrix(.0039 0 0 .00314 -.161 0)" xlink:href="#image1"/>
        </pattern>
    </defs>
</svg>
