<svg xmlns="http://www.w3.org/2000/svg" width="20" height="18" fill="none" viewBox="0 0 20 18">
    <g fill="#000" opacity=".3">
        <path d="M7.416 4.713c.228 0 .428.051.599.152.17.102.256.298.256.59 0 .284-.085.48-.256.588-.171.102-.371.152-.599.152-.24 0-.446-.05-.617-.152-.165-.107-.247-.304-.247-.588 0-.292.082-.488.247-.59.17-.1.376-.152.617-.152zm.789 2.072V12H6.609V6.785h1.596zm4.488-.096c.55 0 .994.152 1.33.457.342.297.513.782.513 1.453V12H12.94V9.046c0-.361-.06-.634-.18-.817-.121-.184-.311-.276-.57-.276-.387 0-.65.146-.79.437-.139.285-.208.697-.208 1.235V12H9.586V6.785h1.216l.219.674h.076c.165-.253.386-.443.665-.57.278-.133.589-.2.93-.2z"/>
        <path d="M10.17 1.622c2.557 0 2.86.01 3.87.053 2.595.11 3.806 1.268 3.925 3.689.046.949.055 1.234.055 3.637 0 2.404-.01 2.688-.055 3.636-.12 2.42-1.328 3.579-3.925 3.69-1.01.043-1.312.052-3.87.052-2.556 0-2.86-.009-3.869-.052-2.6-.112-3.806-1.275-3.924-3.69C2.33 11.688 2.32 11.404 2.32 9c0-2.403.01-2.687.056-3.637.118-2.42 1.327-3.578 3.924-3.689 1.01-.043 1.313-.052 3.87-.052zm0-1.622c-2.6 0-2.926.01-3.947.054C2.746.204.813 2.018.653 5.289.608 6.249.597 6.556.597 9s.01 2.751.057 3.711c.16 3.268 2.089 5.085 5.57 5.235 1.021.043 1.347.054 3.947.054s2.927-.01 3.948-.054c3.474-.15 5.411-1.964 5.568-5.235.047-.96.059-1.267.059-3.711s-.012-2.75-.058-3.71C19.531 2.024 17.6.205 14.12.055 13.097.01 12.77 0 10.17 0z"/>
    </g>
</svg>
