<svg xmlns="http://www.w3.org/2000/svg" width="24" height="24" fill="none" viewBox="0 0 24 24">
    <g fill="#000" opacity=".3">
        <path d="M8.548 6.286c.286 0 .536.067.75.202.214.135.322.397.322.786 0 .38-.108.641-.322.785-.214.135-.464.203-.75.203-.302 0-.56-.068-.774-.203-.206-.144-.31-.405-.31-.785 0-.389.104-.65.31-.786.214-.135.472-.202.774-.202zm.988 2.761v6.954h-2V9.047h2zM15.162 8.92c.69 0 1.246.203 1.666.608.43.397.643 1.043.643 1.938v4.535h-2v-3.94c0-.48-.075-.844-.226-1.089-.151-.245-.39-.367-.714-.367-.485 0-.814.194-.989.583-.174.38-.262.928-.262 1.646v3.167h-2.012V9.047h1.524l.274.9h.095c.207-.338.484-.592.834-.76.349-.178.738-.267 1.167-.267z"/>
        <path d="M12 2.164c3.204 0 3.584.012 4.85.07 3.252.148 4.771 1.691 4.919 4.919.058 1.265.069 1.645.069 4.849 0 3.205-.012 3.584-.069 4.849-.149 3.225-1.664 4.771-4.919 4.919-1.266.058-1.644.07-4.85.07-3.204 0-3.584-.012-4.849-.07-3.26-.149-4.771-1.699-4.919-4.92-.058-1.265-.07-1.644-.07-4.849 0-3.204.013-3.583.07-4.849.149-3.227 1.664-4.771 4.919-4.919 1.266-.057 1.645-.069 4.849-.069zm0-2.163c-3.259 0-3.667.014-4.947.072-4.358.2-6.78 2.618-6.98 6.98C.014 8.334 0 8.742 0 12.001c0 3.259.014 3.668.072 4.948.2 4.358 2.618 6.78 6.98 6.98 1.281.058 1.689.072 4.948.072 3.259 0 3.668-.014 4.948-.072 4.354-.2 6.782-2.618 6.979-6.98.059-1.28.073-1.689.073-4.948 0-3.259-.014-3.667-.072-4.947-.196-4.354-2.617-6.78-6.979-6.98C15.668.015 15.259.001 12 .001z"/>
    </g>
</svg>
