<svg xmlns="http://www.w3.org/2000/svg" width="24" height="24" fill="none" viewBox="0 0 24 24">
    <g fill="#000" opacity=".3">
        <path d="M16.605.001h-9.21C3.31.001 0 3.311 0 7.397v9.21c0 4.084 3.31 7.394 7.395 7.394h9.21c4.085 0 7.395-3.31 7.395-7.393V7.397C24 3.31 20.69 0 16.605 0zm5.092 15.722c0 3.301-2.676 5.975-5.975 5.975H8.28c-3.301 0-5.976-2.674-5.976-5.975V8.28c0-3.299 2.675-5.975 5.976-5.975h7.443c3.299 0 5.975 2.676 5.975 5.975v7.444z"/>
        <path d="M12.322 5.722c-3.492 0-6.323 2.829-6.323 6.321 0 3.49 2.83 6.322 6.323 6.322 3.49 0 6.321-2.832 6.321-6.322.001-3.492-2.83-6.321-6.321-6.321zm0 10.124c-2.103 0-3.804-1.704-3.804-3.804 0-2.102 1.701-3.804 3.804-3.804 2.1 0 3.802 1.702 3.802 3.804 0 2.1-1.702 3.804-3.802 3.804zM19.814 5.622c0 .888-.721 1.608-1.609 1.608s-1.606-.72-1.606-1.608c0-.888.72-1.609 1.606-1.609.888.002 1.609.722 1.609 1.61z"/>
    </g>
</svg>
