<svg xmlns="http://www.w3.org/2000/svg" width="20" height="18" fill="none" viewBox="0 0 20 18">
    <g fill="#000" opacity=".3">
        <path d="M13.4 0H6.051c-3.259 0-5.9 2.483-5.9 5.547v6.908c0 3.062 2.641 5.545 5.9 5.545h7.35c3.258 0 5.9-2.483 5.9-5.545V5.547C19.3 2.483 16.658 0 13.4 0zm4.063 11.792c0 2.475-2.136 4.48-4.767 4.48h-5.94c-2.633 0-4.767-2.005-4.767-4.48V6.208c0-2.474 2.134-4.48 4.768-4.48h5.939c2.632 0 4.767 2.006 4.767 4.48v5.584z"/>
        <path d="M9.982 4.29c-2.786 0-5.044 2.123-5.044 4.742 0 2.617 2.258 4.74 5.044 4.74 2.786 0 5.044-2.123 5.044-4.74.001-2.62-2.257-4.741-5.044-4.741zm0 7.594c-1.677 0-3.035-1.278-3.035-2.853 0-1.577 1.358-2.853 3.035-2.853 1.676 0 3.035 1.276 3.035 2.853 0 1.575-1.359 2.853-3.035 2.853zM15.96 4.216c0 .666-.575 1.206-1.283 1.206-.709 0-1.282-.54-1.282-1.206 0-.666.574-1.207 1.282-1.207.708.001 1.283.542 1.283 1.207z"/>
    </g>
</svg>
