<svg xmlns="http://www.w3.org/2000/svg" width="295" height="165" fill="none" viewBox="0 0 295 165">
    <path fill="#FBB800" d="M0 0h295v165H0V0z"/>
    <g clip-path="url(#clip0)">
        <path fill="#fff" d="M147.152 125.172c1.108 0 2.007-.984 2.007-1.882v-10.736c0-.905-.899-1.899-2.007-1.899-1.112 0-2.014.997-2.014 1.899v10.736c0 .898.902 1.882 2.014 1.882zM146.926 58.19c-13.503 0-24.446 10.979-24.446 24.522 0 13.549 10.943 24.524 24.446 24.524 13.502 0 24.445-10.975 24.445-24.525.003-13.539-10.943-24.52-24.445-24.52zm-1.808 9.687c0-.817.817-1.715 1.818-1.715 1 0 1.811.898 1.811 1.715v8.417c0 .814-.811 1.702-1.811 1.702-1.001 0-1.818-.888-1.818-1.702v-8.417zm1.811 27.4c-7.023 0-12.715-5.709-12.715-12.756 0-5.725 3.757-10.565 8.936-12.181v4.748c-2.694 1.38-4.545 4.187-4.545 7.43 0 4.614 3.724 8.349 8.324 8.349s8.324-3.739 8.324-8.349c0-3.253-1.857-6.066-4.564-7.444v-4.738c5.188 1.607 8.958 6.453 8.958 12.185 0 7.047-5.692 12.756-12.718 12.756zM118.865 82.495c0-1.112-.984-2.01-1.877-2.01h-10.707c-.906 0-1.896.901-1.896 2.01 0 1.114.99 2.02 1.896 2.02h10.704c.896.003 1.88-.902 1.88-2.02zM189.482 82.495c0-1.112-.981-2.01-1.877-2.01h-10.704c-.903 0-1.893.901-1.893 2.01 0 1.114.99 2.02 1.893 2.02h10.704c.896.003 1.877-.902 1.877-2.02zM146.936 54.347c1.105 0 2.004-.984 2.004-1.882v-10.74c0-.904-.899-1.898-2.004-1.898-1.111 0-2.017.994-2.017 1.899v10.739c.003.898.909 1.882 2.017 1.882zM122.573 68.512c.552-.964.147-2.236-.635-2.682l-9.291-5.332c-.782-.452-2.089-.164-2.639.8-.552.97-.14 2.25.645 2.699l9.291 5.332c.775.449 2.076.15 2.629-.817zM183.864 103.694c.549-.964.141-2.236-.637-2.682l-9.289-5.332c-.784-.452-2.089-.16-2.641.803-.553.968-.141 2.247.644 2.696l9.291 5.335c.778.446 2.08.148 2.632-.82zM160.881 58.07c.961.55 2.226.14 2.674-.64l5.316-9.32c.448-.786.16-2.095-.801-2.646-.965-.554-2.24-.14-2.691.643l-5.316 9.322c-.444.78-.147 2.086.818 2.64zM125.803 119.541c.961.551 2.226.145 2.671-.636l5.319-9.319c.452-.787.161-2.099-.801-2.649-.964-.558-2.239-.141-2.687.642l-5.319 9.319c-.442.784-.148 2.089.817 2.643zM132.943 58.092c.961-.554 1.252-1.856.805-2.636l-5.336-9.306c-.451-.787-1.723-1.197-2.684-.643-.965.554-1.249 1.87-.801 2.656l5.335 9.306c.448.777 1.72 1.177 2.681.623zM168.148 119.492c.958-.554 1.249-1.856.804-2.636l-5.339-9.309c-.451-.784-1.723-1.197-2.684-.643-.964.554-1.252 1.869-.797 2.656l5.335 9.309c.445.774 1.713 1.177 2.681.623zM171.27 68.47c.553.96 1.851 1.252 2.629.803l9.278-5.352c.785-.452 1.197-1.728.644-2.692-.555-.967-1.863-1.256-2.648-.803l-9.278 5.355c-.779.445-1.181 1.724-.625 2.688zM110.054 103.779c.553.961 1.851 1.252 2.629.806l9.278-5.354c.782-.45 1.197-1.728.641-2.69-.552-.966-1.863-1.255-2.645-.806l-9.278 5.355c-.778.443-1.181 1.721-.625 2.689z"/>
    </g>
    <g clip-path="url(#clip1)">
        <path fill="#fff" d="M22.691 26.351h6.983l-6.031 22.58h4.484l5.91-22.117V22.76H22.692v3.592z"/>
    </g>
    <path fill="#fff" d="M226.401 140.311v-1.82h-4.284v-2.296h3.878v-1.722h-3.878v-2.268h4.284v-1.82h-6.216v9.926h6.216zm9.982 0v-9.926h-1.932v6.566l-4.13-6.566h-2.408v9.926h1.932v-7.042l4.508 7.042h2.03zm8.059 0v-1.82h-4.284v-2.296h3.878v-1.722h-3.878v-2.268h4.284v-1.82h-6.216v9.926h6.216zm6.412 0h2.156l-2.128-4.06c.644-.182 1.162-.518 1.54-1.022.378-.504.574-1.092.574-1.792 0-.868-.294-1.596-.868-2.184-.588-.574-1.344-.868-2.296-.868h-3.878v9.926h1.946v-3.822h1.008l1.946 3.822zm-2.954-5.488v-2.758h1.568c.476 0 .854.126 1.134.378.28.252.42.588.42 1.008 0 .42-.14.742-.42.994-.28.252-.658.378-1.134.378H247.9zm15.304 5.488v-5.166h-4.956v1.68h3.136c-.084.462-.336.896-.77 1.316-.448.42-1.078.616-1.89.616-.896 0-1.638-.294-2.24-.896-.602-.588-.896-1.428-.896-2.506 0-1.092.308-1.918.924-2.506.616-.574 1.358-.868 2.198-.868.728 0 1.33.196 1.778.574.448.378.756.826.91 1.33l1.848-.658c-.28-.854-.798-1.582-1.568-2.17-.77-.588-1.764-.882-2.968-.882-1.4 0-2.604.476-3.598 1.428-.994.952-1.484 2.212-1.484 3.752 0 1.568.476 2.814 1.442 3.752.952.952 2.128 1.414 3.514 1.414.7 0 1.288-.126 1.792-.378s.882-.574 1.134-.966l.126 1.134h1.568zm3.528-4.172v4.172h1.932v-4.172l3.5-5.754h-2.17l-2.226 3.934-2.226-3.934h-2.268l3.458 5.754z"/>
    <defs>
        <clipPath id="clip0">
            <path fill="#fff" d="M0 0H85.096V85.345H0z" transform="translate(104.385 39.827)"/>
        </clipPath>
        <clipPath id="clip1">
            <path fill="#fff" d="M0 0H11.346V26.172H0z" transform="translate(22.691 22.759)"/>
        </clipPath>
    </defs>
</svg>
