<svg xmlns="http://www.w3.org/2000/svg" width="295" height="165" fill="none" viewBox="0 0 295 165">
    <path fill="#D5A203" d="M0 0h295v165H0V0z"/>
    <g clip-path="url(#clip0)">
        <path fill="#fff" d="M32.7 45.38h-6.323v-1.219c0-2.021.642-2.786 1.623-3.967l2.47-2.937c1.994-2.404 2.433-3.928 2.433-6.525v-2.517c0-3.701-1.591-5.456-5.039-5.456-3.38 0-5.106 2.021-5.106 5.647v3.128h3.52v-3.243c0-1.562.675-2.022 1.488-2.022.74 0 1.386.344 1.386 1.946v2.135c0 2.14-.17 2.98-1.422 4.465l-2.166 2.595c-2.095 2.517-2.873 4.197-2.873 6.751v4.77h10.01v-3.55z"/>
    </g>
    <path fill="#fff" d="M203.393 119.827v-3.864h3.85v-1.778h-3.864v-2.45h4.34v-1.834h-6.272v9.926h1.946zm6.841-4.97c0-1.05.308-1.862.924-2.436.616-.574 1.33-.868 2.17-.868.84 0 1.568.294 2.184.868.616.574.924 1.386.924 2.436 0 1.064-.308 1.876-.924 2.45-.616.574-1.344.854-2.184.854-.84 0-1.554-.28-2.17-.854-.616-.574-.924-1.386-.924-2.45zm-2.002.014c0 1.54.49 2.786 1.498 3.738.994.952 2.198 1.428 3.598 1.428s2.604-.476 3.612-1.428c.994-.952 1.498-2.198 1.498-3.738s-.504-2.8-1.498-3.752c-1.008-.952-2.212-1.428-3.612-1.428s-2.604.476-3.598 1.428c-1.008.952-1.498 2.212-1.498 3.752zm12.875-.014c0-1.05.308-1.862.924-2.436.616-.574 1.33-.868 2.17-.868.84 0 1.568.294 2.184.868.616.574.924 1.386.924 2.436 0 1.064-.308 1.876-.924 2.45-.616.574-1.344.854-2.184.854-.84 0-1.554-.28-2.17-.854-.616-.574-.924-1.386-.924-2.45zm-2.002.014c0 1.54.49 2.786 1.498 3.738.994.952 2.198 1.428 3.598 1.428s2.604-.476 3.612-1.428c.994-.952 1.498-2.198 1.498-3.738s-.504-2.8-1.498-3.752c-1.008-.952-2.212-1.428-3.612-1.428s-2.604.476-3.598 1.428c-1.008.952-1.498 2.212-1.498 3.752zm13.393 3.164v-6.342h1.554c.854 0 1.568.28 2.128.826.56.546.84 1.33.84 2.352 0 1.036-.28 1.82-.84 2.352-.56.546-1.274.812-2.142.812h-1.54zm1.61 1.792c1.442 0 2.618-.434 3.542-1.33.91-.882 1.372-2.086 1.372-3.626s-.462-2.744-1.372-3.64c-.91-.882-2.086-1.33-3.528-1.33h-3.556v9.926h3.542zm15.942 0h2.1l-3.78-9.926h-2.24l-3.808 9.926h2.044l.826-2.268h4.032l.826 2.268zm-2.842-7.784l1.372 3.752h-2.744l1.372-3.752zm14.261 7.784v-9.926h-1.932v6.566l-4.13-6.566h-2.408v9.926h1.932v-7.042l4.508 7.042h2.03zm3.775-1.792v-6.342h1.554c.854 0 1.568.28 2.128.826.56.546.84 1.33.84 2.352 0 1.036-.28 1.82-.84 2.352-.56.546-1.274.812-2.142.812h-1.54zm1.61 1.792c1.442 0 2.618-.434 3.542-1.33.91-.882 1.372-2.086 1.372-3.626s-.462-2.744-1.372-3.64c-.91-.882-2.086-1.33-3.528-1.33h-3.556v9.926h3.542zm-78.495 18h2.1l-3.78-9.926h-2.24l-3.808 9.926h2.044l.826-2.268h4.032l.826 2.268zm-2.842-7.784l1.372 3.752h-2.744l1.372-3.752zm14.301 7.784v-5.166h-4.956v1.68h3.136c-.084.462-.336.896-.77 1.316-.448.42-1.078.616-1.89.616-.896 0-1.638-.294-2.24-.896-.602-.588-.896-1.428-.896-2.506 0-1.092.308-1.918.924-2.506.616-.574 1.358-.868 2.198-.868.728 0 1.33.196 1.778.574.448.378.756.826.91 1.33l1.848-.658c-.28-.854-.798-1.582-1.568-2.17-.77-.588-1.764-.882-2.968-.882-1.4 0-2.604.476-3.598 1.428-.994.952-1.484 2.212-1.484 3.752 0 1.568.476 2.814 1.442 3.752.952.952 2.128 1.414 3.514 1.414.7 0 1.288-.126 1.792-.378s.882-.574 1.134-.966l.126 1.134h1.568zm6.429 0h2.156l-2.128-4.06c.644-.182 1.162-.518 1.54-1.022.378-.504.574-1.092.574-1.792 0-.868-.294-1.596-.868-2.184-.588-.574-1.344-.868-2.296-.868h-3.878v9.926h1.946v-3.822h1.008l1.946 3.822zm-2.954-5.488v-2.758h1.568c.476 0 .854.126 1.134.378.28.252.42.588.42 1.008 0 .42-.14.742-.42.994-.28.252-.658.378-1.134.378h-1.568zm8.344 5.488v-9.926h-1.96v9.926h1.96zm6.339.21c.658 0 1.26-.098 1.82-.308.56-.196 1.022-.476 1.386-.812.364-.336.658-.686.882-1.078.224-.378.392-.77.504-1.176l-1.806-.546c-.168.56-.476 1.036-.938 1.428-.462.406-1.078.602-1.848.602-.854 0-1.582-.294-2.184-.882-.602-.588-.896-1.386-.896-2.394 0-1.05.294-1.862.91-2.45.616-.574 1.33-.868 2.142-.868.784 0 1.4.196 1.848.588.448.392.742.854.882 1.414l1.82-.574c-.224-.896-.728-1.68-1.498-2.324-.77-.644-1.792-.966-3.052-.966-1.386 0-2.576.49-3.57 1.442-.994.966-1.484 2.212-1.484 3.738 0 1.54.49 2.786 1.47 3.738s2.184 1.428 3.612 1.428zm9.405.014c1.106 0 2.016-.322 2.744-.98.714-.658 1.078-1.582 1.078-2.758v-6.412h-1.932v6.272c0 .644-.168 1.148-.504 1.484-.336.336-.798.504-1.386.504-.588 0-1.05-.168-1.386-.504-.336-.336-.49-.84-.49-1.484v-6.272h-1.932v6.412c0 1.176.35 2.1 1.078 2.758.714.658 1.624.98 2.73.98zm11.933-.224v-1.848h-4.424v-8.078h-1.932v9.926h6.356zm7.382-8.092v-1.834h-8.218v1.834h3.136v8.092h1.946v-8.092h3.136zm4.691 8.316c1.106 0 2.016-.322 2.744-.98.714-.658 1.078-1.582 1.078-2.758v-6.412h-1.932v6.272c0 .644-.168 1.148-.504 1.484-.336.336-.798.504-1.386.504-.588 0-1.05-.168-1.386-.504-.336-.336-.49-.84-.49-1.484v-6.272h-1.932v6.412c0 1.176.35 2.1 1.078 2.758.714.658 1.624.98 2.73.98zm10.477-.224h2.156l-2.128-4.06c.644-.182 1.162-.518 1.54-1.022.378-.504.574-1.092.574-1.792 0-.868-.294-1.596-.868-2.184-.588-.574-1.344-.868-2.296-.868h-3.878v9.926h1.946v-3.822h1.008l1.946 3.822zm-2.954-5.488v-2.758h1.568c.476 0 .854.126 1.134.378.28.252.42.588.42 1.008 0 .42-.14.742-.42.994-.28.252-.658.378-1.134.378h-1.568zm12.6 5.488v-1.82h-4.284v-2.296h3.878v-1.722h-3.878v-2.268h4.284v-1.82h-6.216v9.926h6.216z"/>
    <g clip-path="url(#clip1)">
        <path fill="#fff" d="M133.604 116.091v2.262c-.003.016-.01.035-.01.05 0 .019.007.038.01.054.025.562.479 1.007 1.037 1.016.007 0 .013.006.019.006.01 0 .019-.006.025-.006h26.388c.007 0 .016.006.022.006.01 0 .016-.006.022-.006.577-.013 1.038-.483 1.041-1.063 0 0 .003-.003.003-.007 0 0-.003-.003-.003-.006v-2.562c14.854-4.9 25.981-17.017 28.429-31.784.003-.032.006-.063.013-.089.009-.05.015-.097.015-.148 0-.593-.473-1.073-1.066-1.073h-84.092c-.596 0-1.069.48-1.069 1.073l.056.483c2.568 14.909 13.998 27.095 29.16 31.794zM162.136 46.619c-.348.495-8.471 12.268.179 21.788 3.969 4.37 3.627 8.226 2.493 10.83h5.552c1.125-3.844.658-8.665-3.847-13.623-6.377-7.014.082-16.496.182-16.644.759-1.083.351-2.474-.903-3.127-1.26-.644-2.894-.3-3.656.776zM148.079 79.236h5.555c1.123-3.847.656-8.665-3.849-13.622-6.38-7.018.075-16.493.178-16.648.756-1.076.355-2.467-.903-3.12-1.254-.644-2.89-.303-3.649.773-.348.495-8.48 12.268.179 21.787 3.966 4.374 3.618 8.23 2.489 10.83zM128.672 46.618c-.351.496-8.477 12.269.176 21.788 3.972 4.374 3.63 8.23 2.498 10.83h5.553c1.122-3.844.655-8.665-3.853-13.622-6.377-7.015.078-16.497.181-16.645.753-1.079.351-2.47-.906-3.124-1.254-.65-2.887-.303-3.649.773z"/>
    </g>
    <defs>
        <clipPath id="clip0">
            <path fill="#fff" d="M0 0H10.211V26.172H0z" transform="translate(22.691 22.759)"/>
        </clipPath>
        <clipPath id="clip1">
            <path fill="#fff" d="M0 0H86.231V73.966H0z" transform="translate(104.385 45.518)"/>
        </clipPath>
    </defs>
</svg>
