<svg xmlns="http://www.w3.org/2000/svg" width="295" height="165" fill="none" viewBox="0 0 295 165">
    <path fill="#F59E0D" d="M0 0h295v165H0V0z"/>
    <g clip-path="url(#clip0)">
        <path fill="#fff" d="M22.691 27.508V32.1h.037l2.986-3.205h.037V48.93h4.256V22.76h-3.4l-3.916 4.75zM32.395 27.508V32.1h.035l2.989-3.205h.034V48.93h4.258V22.76h-3.397l-3.919 4.75z"/>
    </g>
    <g clip-path="url(#clip1)">
        <path fill="#fff" d="M94.866 100.838h23.375c.316 0 .575-.262.575-.582 0-.15-.061-.283-.149-.384l-.033-.034-11.633-15.2-.116-.126c-.103-.117-.256-.188-.423-.188-.143 0-.271.062-.375.148l-.073.08-.107.126-11.343 15.04-.173.218c-.065.09-.098.204-.098.324-.003.316.256.578.573.578zM118.173 102.982H94.746c-.313 0-.572.259-.572.579v18.517c0 .32.259.581.572.581h7.542v-11.652c0-.323.256-.578.573-.578h7c.316 0 .572.258.572.578v11.652h7.74c.317 0 .573-.261.573-.581v-18.517c0-.32-.259-.579-.573-.579zM199.127 98.134h-23.186c-.314 0-.567.246-.567.557v23.646c0 .307.253.557.567.557h23.186c.313 0 .566-.25.566-.557V98.691c0-.311-.253-.557-.566-.557zm-12.687 15.44c0 .307-.253.557-.566.557h-6.927c-.317 0-.57-.25-.57-.557v-4.253c0-.31.253-.556.57-.556h6.927c.313 0 .566.249.566.556v4.253zm0-7.862c0 .311-.253.56-.566.56h-6.927c-.317 0-.57-.249-.57-.56v-4.252c0-.308.253-.557.57-.557h6.927c.313 0 .566.249.566.557v4.252zm10.588 7.862c0 .307-.253.557-.567.557h-6.923c-.317 0-.57-.25-.57-.557v-4.253c0-.31.253-.556.57-.556h6.923c.317 0 .567.249.567.556v4.253zm0-7.862c0 .311-.253.56-.567.56h-6.923c-.317 0-.57-.249-.57-.56v-4.252c0-.308.253-.557.57-.557h6.923c.317 0 .567.249.567.557v4.252zM145.234 43.241h-22.686c-.305 0-.555.25-.555.563v78.323c0 .308.25.56.555.56h22.686c.305 0 .561-.252.561-.56V43.804c0-.314-.256-.563-.561-.563zm-13.494 70.523c0 .166-.134.302-.298.302h-5.197c-.164 0-.298-.136-.298-.302v-5.846c0-.166.131-.299.298-.299h5.197c.164 0 .298.133.298.299v5.846zm0-13.428c0 .17-.134.299-.298.299h-5.197c-.164 0-.298-.132-.298-.299V94.49c0-.169.131-.301.298-.301h5.197c.164 0 .298.132.298.301v5.846zm0-13.427c0 .166-.134.301-.298.301h-5.197c-.164 0-.298-.135-.298-.301v-5.853c0-.166.131-.301.298-.301h5.197c.164 0 .298.135.298.302v5.852zm0-13.434c0 .166-.134.302-.298.302h-5.197c-.164 0-.298-.136-.298-.302v-5.85c0-.162.131-.295.298-.295h5.197c.164 0 .298.133.298.296v5.849zm0-13.428c0 .163-.134.299-.298.299h-5.197c-.164 0-.298-.136-.298-.299v-5.849c0-.166.131-.301.298-.301h5.197c.164 0 .298.135.298.301v5.85zm10.186 53.717c0 .166-.134.302-.301.302h-5.194c-.164 0-.295-.136-.295-.302v-5.846c0-.166.131-.299.295-.299h5.194c.167 0 .301.133.301.299v5.846zm0-13.428c0 .17-.134.299-.301.299h-5.194c-.164 0-.295-.132-.295-.299V94.49c0-.169.131-.301.295-.301h5.194c.167 0 .301.132.301.301v5.846zm0-13.427c0 .166-.134.301-.301.301h-5.194c-.164 0-.295-.135-.295-.301v-5.853c0-.166.131-.301.295-.301h5.194c.167 0 .301.135.301.302v5.852zm0-13.434c0 .166-.134.302-.301.302h-5.194c-.164 0-.295-.136-.295-.302v-5.85c0-.162.131-.295.295-.295h5.194c.167 0 .301.133.301.296v5.849zm0-13.428c0 .163-.134.299-.301.299h-5.194c-.164 0-.295-.136-.295-.299v-5.849c0-.166.131-.301.295-.301h5.194c.167 0 .301.135.301.301v5.85zM199.669 95.755c0 .265-.207.474-.466.474H175.87c-.256 0-.466-.21-.466-.474v-4.714c0-.258.21-.474.466-.474h23.333c.262 0 .466.216.466.474v4.714zM172.638 58.032c-.076-.253-.295-.437-.569-.437-.122 0-.232.046-.326.11-.016.007-.031.016-.043.028l-.192.243-22.297 28.573-.103.138c-.113.117-.189.27-.192.446v35.111c0 .307.25.56.554.56h22.666c.307 0 .554-.253.554-.56V58.269c.003-.087-.018-.167-.052-.237zm-9.388 15.52l.159-.204c1.529-1.978 4.097-5.175 5.352-6.729l.164-.2c.119-.144.299-.237.5-.237.31 0 .557.228.618.523V73.938c0 .35-.274.63-.618.642-.009 0-.019.007-.028.007-.009 0-.018-.007-.027-.007h-5.574c-.012 0-.019.007-.028.007-.009 0-.018-.007-.027-.007-.341-.012-.615-.292-.615-.643 0-.144.045-.277.124-.384zm-3.53 40.015c0 .311-.244.56-.551.56h-6.762c-.308 0-.555-.249-.555-.56v-4.277c0-.308.247-.557.555-.557h6.762c.307 0 .551.249.551.557v4.277zm0-7.899c0 .311-.244.56-.551.56h-6.762c-.308 0-.555-.249-.555-.56v-4.273c0-.314.247-.56.555-.56h6.762c.307 0 .551.249.551.56v4.273zm0-7.901c0 .308-.244.557-.551.557h-6.762c-.308 0-.555-.252-.555-.557V93.49c0-.31.247-.56.555-.56h6.762c.307 0 .551.25.551.56v4.277zm.021-17.31v9.418c0 .31-.252.56-.554.56h-6.759c-.311 0-.557-.25-.557-.56v-1.189c.003-.073.015-.144.042-.208.012-.025.012-.034.034-.065.012-.028.033-.052.049-.074l.063-.092c.862-1.25 4.764-6.102 6.406-8.132l.162-.2c.118-.145.298-.237.499-.237.311 0 .558.227.619.523v.255h-.004zm10.317 33.11c0 .311-.253.56-.554.56h-6.759c-.308 0-.558-.249-.558-.56v-4.277c0-.308.25-.557.558-.557h6.759c.304 0 .554.249.554.557v4.277zm0-7.899c0 .311-.253.56-.554.56h-6.759c-.308 0-.558-.249-.558-.56v-4.273c0-.314.25-.56.558-.56h6.759c.304 0 .554.249.554.56v4.273zm0-7.901c0 .308-.253.557-.554.557h-6.759c-.308 0-.558-.252-.558-.557V93.49c0-.31.25-.56.558-.56h6.759c.304 0 .554.25.554.56v4.277zm0-7.902c0 .308-.253.56-.554.56h-6.759c-.308 0-.558-.252-.558-.56v-4.273c0-.311.25-.56.558-.56h6.759c.304 0 .554.249.554.56v4.273zm0-7.901c0 .31-.253.56-.554.56h-6.759c-.308 0-.558-.252-.558-.56V77.69c0-.314.25-.563.558-.563h6.759c.304 0 .554.25.554.563v4.274z"/>
    </g>
    <path fill="#fff" d="M235.63 140.521c.658 0 1.26-.098 1.82-.308.56-.196 1.022-.476 1.386-.812.364-.336.658-.686.882-1.078.224-.378.392-.77.504-1.176l-1.806-.546c-.168.56-.476 1.036-.938 1.428-.462.406-1.078.602-1.848.602-.854 0-1.582-.294-2.184-.882-.602-.588-.896-1.386-.896-2.394 0-1.05.294-1.862.91-2.45.616-.574 1.33-.868 2.142-.868.784 0 1.4.196 1.848.588.448.392.742.854.882 1.414l1.82-.574c-.224-.896-.728-1.68-1.498-2.324-.77-.644-1.792-.966-3.052-.966-1.386 0-2.576.49-3.57 1.442-.994.966-1.484 2.212-1.484 3.738 0 1.54.49 2.786 1.47 3.738s2.184 1.428 3.612 1.428zm7.737-.21v-9.926h-1.96v9.926h1.96zm9.153-8.092v-1.834h-8.218v1.834h3.136v8.092h1.946v-8.092h3.136zm2.9 8.092v-9.926h-1.96v9.926h1.96zm8.06 0v-1.82h-4.284v-2.296h3.878v-1.722h-3.878v-2.268h4.284v-1.82h-6.216v9.926h6.216zm8.191-7.56c-.07-.308-.182-.602-.322-.882-.154-.28-.364-.546-.63-.812-.28-.266-.63-.476-1.078-.644-.448-.154-.966-.238-1.526-.238-.952 0-1.778.308-2.45.896-.672.602-1.008 1.344-1.008 2.212 0 .742.224 1.358.7 1.848.462.504 1.092.826 1.904.994l1.386.28c.378.084.672.224.882.434.21.21.322.462.322.742 0 .364-.154.658-.434.882-.28.224-.672.336-1.176.336-.672 0-1.19-.168-1.554-.532-.364-.35-.574-.798-.616-1.33l-1.792.476c.028.378.14.742.308 1.092.168.35.42.686.728.994.308.308.714.56 1.218.742.504.196 1.064.28 1.694.28 1.092 0 1.96-.294 2.604-.91.644-.616.98-1.33.98-2.156 0-.714-.252-1.344-.728-1.876-.49-.532-1.176-.882-2.044-1.05l-1.386-.266c-.728-.14-1.078-.504-1.078-1.12 0-.336.14-.63.434-.882.28-.252.658-.378 1.12-.378.56 0 .98.154 1.274.434.28.294.462.616.532.966l1.736-.532z"/>
    <defs>
        <clipPath id="clip0">
            <path fill="#fff" d="M0 0H17.019V26.172H0z" transform="translate(22.691 22.759)"/>
        </clipPath>
        <clipPath id="clip1">
            <path fill="#fff" d="M0 0H105.519V79.655H0z" transform="translate(94.174 43.241)"/>
        </clipPath>
    </defs>
</svg>
