<svg xmlns="http://www.w3.org/2000/svg" width="295" height="165" fill="none" viewBox="0 0 295 165">
    <path fill="#16ABD9" d="M0 0h295v165H0V0z"/>
    <g clip-path="url(#clip0)">
        <path fill="#fff" d="M175.713 43.465c-.137-.144-.311-.224-.516-.224H118.66c-.195 0-.375.08-.51.224-.122.159-.171.354-.14.535l9.499 57.533c.055.318.33.553.654.553h11.658l.8 9.373-4.908.006 11.417 11.431 11.442-11.458-4.905.006.797-9.358h11.863c.327 0 .599-.235.648-.563L175.863 44c.024-.199-.034-.386-.15-.535zm-21.857 46.061s-2.569 2.646-6.747 2.356c-4.188.287-6.753-2.356-6.753-2.356-4.234-4.236-2.725-9.51-1.249-12.236.91-1.707 7.419-11.492 7.978-12.327v-.064l.024.03.024-.03v.064c.544.832 7.062 10.62 7.972 12.327 1.479 2.723 2.985 7.996-1.249 12.236zm17.936-33.957c-1.534-.676-3.476-.431-5.34.324-7.015 2.848-11.789 3.87-19.169 1.557-4.646-1.46-8.992-4.509-14.133-2.652-3.408 1.23-6.588 2.401-10.443 2.37l-2.226-11.428h52.911l-1.6 9.829z"/>
    </g>
    <g clip-path="url(#clip1)">
        <path fill="#fff" d="M28.895 48.931c4.519 0 6.277-2.49 6.277-6.45V38.71c0-4.185-1.642-6.297-4.708-6.297-1.793 0-2.877.832-3.515 2.075h-.037v-5.505c0-1.548.488-2.642 2.017-2.642 1.532 0 1.983.907 1.983 2.49v1.698h3.883V29.17c.003-3.775-1.23-6.412-5.937-6.412-4.485 0-6.167 2.903-6.167 6.899v12.444c0 3.961 1.72 6.83 6.204 6.83zm-1.98-10.751c.074-1.432.672-2.339 2.017-2.339 1.455 0 2.017.905 2.017 2.565v4.449c0 1.62-.596 2.565-2.054 2.565-1.421 0-1.98-.98-1.98-2.565V38.18z"/>
    </g>
    <path fill="#fff" d="M235.883 137.245l-2.212-6.86h-2.002l-2.198 6.832-1.82-6.832h-2.044l2.758 9.926h2.016l2.268-7.07 2.268 7.07h1.988l2.744-9.926h-1.974l-1.792 6.86zm10.798 3.066h2.1l-3.78-9.926h-2.24l-3.808 9.926h2.044l.826-2.268h4.032l.826 2.268zm-2.842-7.784l1.372 3.752h-2.744l1.372-3.752zm12.184-.308v-1.834h-8.218v1.834h3.136v8.092h1.946v-8.092h3.136zm7.156 8.092v-1.82h-4.284v-2.296h3.878v-1.722h-3.878v-2.268h4.284v-1.82h-6.216v9.926h6.216zm6.412 0h2.156l-2.128-4.06c.644-.182 1.162-.518 1.54-1.022.378-.504.574-1.092.574-1.792 0-.868-.294-1.596-.868-2.184-.588-.574-1.344-.868-2.296-.868h-3.878v9.926h1.946v-3.822h1.008l1.946 3.822zm-2.954-5.488v-2.758h1.568c.476 0 .854.126 1.134.378.28.252.42.588.42 1.008 0 .42-.14.742-.42.994-.28.252-.658.378-1.134.378h-1.568z"/>
    <defs>
        <clipPath id="clip0">
            <path fill="#fff" d="M0 0H57.865V79.655H0z" transform="translate(118 43.241)"/>
        </clipPath>
        <clipPath id="clip1">
            <path fill="#fff" d="M0 0H12.481V26.172H0z" transform="translate(22.691 22.759)"/>
        </clipPath>
    </defs>
</svg>
