<svg xmlns="http://www.w3.org/2000/svg" width="295" height="165" fill="none" viewBox="0 0 295 165">
    <path fill="#D18D0E" d="M0 0h295v165H0V0z"/>
    <g clip-path="url(#clip0)">
        <path fill="#fff" d="M188.745 62.209c-6.045-4.796-13.288-5.313-16.114-5.313-1.495 0-2.876.135-3.889.377l-.398.09c-3.825.908-10.223 2.429-17.676 11.731l-.217.272c-.122.177-.186.367-.186.563 0 .17.043.332.13.493l.169.277c1.23 2.07 2.252 3.868 3.067 5.391.29.567 1.065.75 1.593.225.053-.073.105-.143.14-.198 6.433-8.955 11.48-10.146 14.817-10.934l.415-.1c.459-.11 1.205-.174 2.043-.174 1.556 0 6.948.256 11.15 3.598 3.746 2.975 5.65 7.72 5.65 14.11 0 10.709-5.154 14.888-9.478 16.505-1.645.62-3.43.937-5.279.937-4.454 0-7.882-1.792-7.925-1.815l-.311-.152c-3.717-1.623-9.269-5.009-14.515-15.61-10.767-21.727-19.804-23.785-25.788-25.148l-.316-.07c-.458-.105-1.753-.347-3.857-.347-3.465 0-10.131.683-15.845 5.268-3.897 3.132-8.549 9.212-8.549 20.394 0 6.815 1.396 11.319 4.974 16.053.673.922 6.907 9.022 18.878 9.022 1.773 0 3.613-.181 5.467-.54 2.185-.42 5.557-1.506 9.324-4.288l3.146 2.858c.351.321.961.289 1.28-.062.154-.163.235-.385.226-.601l2.432-15.084v-.175c-.003-.257-.116-.5-.29-.657-.16-.152-.366-.233-.63-.233h-.006l-14.6 4.057-.275.046c-.186.041-.346.135-.465.272-.165.184-.252.42-.238.665.012.245.122.467.299.625l3.027 2.752c-1.593.981-3.181 1.632-4.727 1.933-1.318.254-2.621.382-3.875.382-8.27 0-12.342-5.461-12.51-5.692l-.081-.114c-2.516-3.324-3.37-6.155-3.37-11.22 0-6.409 1.866-11.16 5.543-14.114 4.101-3.284 9.368-3.54 10.886-3.54.833 0 1.584.06 2.069.174l.322.073c4.777 1.086 11.321 2.578 20.386 20.901 4.792 9.673 10.799 16.001 18.35 19.337.879.45 5.56 2.697 11.567 2.697 2.798 0 5.511-.484 8.059-1.439 4.417-1.655 14.675-7.311 14.675-24.039.003-11.178-4.718-17.276-8.674-20.42z"/>
    </g>
    <g clip-path="url(#clip1)">
        <path fill="#fff" d="M25.788 29.128h.037v19.804h4.356V23.063h-3.479l-4.01 4.695v4.538h.035l3.06-3.168zM32.781 28.406v3.128h3.976v-3.243c0-1.564.768-2.022 1.683-2.022.843 0 1.567.342 1.567 1.946v2.135c0 2.137-.19 2.977-1.608 4.465l-2.446 2.595c-2.37 2.52-3.25 4.197-3.25 6.754v4.77H44.02v-3.55h-7.15v-1.22c0-2.022.726-2.786 1.834-3.968l2.791-2.937c2.255-2.403 2.754-3.93 2.754-6.524v-2.52c0-3.701-1.796-5.456-5.696-5.456-3.824 0-5.772 2.021-5.772 5.647z"/>
    </g>
    <path fill="#fff" d="M210.164 120.037c.658 0 1.26-.098 1.82-.308.56-.196 1.022-.476 1.386-.812.364-.336.658-.686.882-1.078.224-.378.392-.77.504-1.176l-1.806-.546c-.168.56-.476 1.036-.938 1.428-.462.406-1.078.602-1.848.602-.854 0-1.582-.294-2.184-.882-.602-.588-.896-1.386-.896-2.394 0-1.05.294-1.862.91-2.45.616-.574 1.33-.868 2.142-.868.784 0 1.4.196 1.848.588.448.392.742.854.882 1.414l1.82-.574c-.224-.896-.728-1.68-1.498-2.324-.77-.644-1.792-.966-3.052-.966-1.386 0-2.576.49-3.57 1.442-.994.966-1.484 2.212-1.484 3.738 0 1.54.49 2.786 1.47 3.738s2.184 1.428 3.612 1.428zm7.738-.21v-9.926h-1.96v9.926h1.96zm6.744 0h2.156l-2.128-4.06c.644-.182 1.162-.518 1.54-1.022.378-.504.574-1.092.574-1.792 0-.868-.294-1.596-.868-2.184-.588-.574-1.344-.868-2.296-.868h-3.878v9.926h1.946v-3.822h1.008l1.946 3.822zm-2.954-5.488v-2.758h1.568c.476 0 .854.126 1.134.378.28.252.42.588.42 1.008 0 .42-.14.742-.42.994-.28.252-.658.378-1.134.378h-1.568zm10.81 5.698c.658 0 1.26-.098 1.82-.308.56-.196 1.022-.476 1.386-.812.364-.336.658-.686.882-1.078.224-.378.392-.77.504-1.176l-1.806-.546c-.168.56-.476 1.036-.938 1.428-.462.406-1.078.602-1.848.602-.854 0-1.582-.294-2.184-.882-.602-.588-.896-1.386-.896-2.394 0-1.05.294-1.862.91-2.45.616-.574 1.33-.868 2.142-.868.784 0 1.4.196 1.848.588.448.392.742.854.882 1.414l1.82-.574c-.224-.896-.728-1.68-1.498-2.324-.77-.644-1.792-.966-3.052-.966-1.386 0-2.576.49-3.57 1.442-.994.966-1.484 2.212-1.484 3.738 0 1.54.49 2.786 1.47 3.738s2.184 1.428 3.612 1.428zm9.405.014c1.106 0 2.016-.322 2.744-.98.714-.658 1.078-1.582 1.078-2.758v-6.412h-1.932v6.272c0 .644-.168 1.148-.504 1.484-.336.336-.798.504-1.386.504-.588 0-1.05-.168-1.386-.504-.336-.336-.49-.84-.49-1.484v-6.272h-1.932v6.412c0 1.176.35 2.1 1.078 2.758.714.658 1.624.98 2.73.98zm11.934-.224v-1.848h-4.424v-8.078h-1.932v9.926h6.356zm7.901 0h2.1l-3.78-9.926h-2.24l-3.808 9.926h2.044l.826-2.268h4.032l.826 2.268zm-2.842-7.784l1.372 3.752h-2.744l1.372-3.752zm10.691 7.784h2.156l-2.128-4.06c.644-.182 1.162-.518 1.54-1.022.378-.504.574-1.092.574-1.792 0-.868-.294-1.596-.868-2.184-.588-.574-1.344-.868-2.296-.868h-3.878v9.926h1.946v-3.822h1.008l1.946 3.822zm-2.954-5.488v-2.758h1.568c.476 0 .854.126 1.134.378.28.252.42.588.42 1.008 0 .42-.14.742-.42.994-.28.252-.658.378-1.134.378h-1.568zm-59.012 23.488v-1.82h-4.284v-2.296h3.878v-1.722h-3.878v-2.268h4.284v-1.82h-6.216v9.926h6.216zm5.979.21c.658 0 1.26-.098 1.82-.308.56-.196 1.022-.476 1.386-.812.364-.336.658-.686.882-1.078.224-.378.392-.77.504-1.176l-1.806-.546c-.168.56-.476 1.036-.938 1.428-.462.406-1.078.602-1.848.602-.854 0-1.582-.294-2.184-.882-.602-.588-.896-1.386-.896-2.394 0-1.05.294-1.862.91-2.45.616-.574 1.33-.868 2.142-.868.784 0 1.4.196 1.848.588.448.392.742.854.882 1.414l1.82-.574c-.224-.896-.728-1.68-1.498-2.324-.77-.644-1.792-.966-3.052-.966-1.386 0-2.576.49-3.57 1.442-.994.966-1.484 2.212-1.484 3.738 0 1.54.49 2.786 1.47 3.738s2.184 1.428 3.612 1.428zm7.095-5.18c0-1.05.308-1.862.924-2.436.616-.574 1.33-.868 2.17-.868.84 0 1.568.294 2.184.868.616.574.924 1.386.924 2.436 0 1.064-.308 1.876-.924 2.45-.616.574-1.344.854-2.184.854-.84 0-1.554-.28-2.17-.854-.616-.574-.924-1.386-.924-2.45zm-2.002.014c0 1.54.49 2.786 1.498 3.738.994.952 2.198 1.428 3.598 1.428s2.604-.476 3.612-1.428c.994-.952 1.498-2.198 1.498-3.738s-.504-2.8-1.498-3.752c-1.008-.952-2.212-1.428-3.612-1.428s-2.604.476-3.598 1.428c-1.008.952-1.498 2.212-1.498 3.752zm19.931 4.956v-9.926h-1.932v6.566l-4.13-6.566h-2.408v9.926h1.932v-7.042l4.508 7.042h2.03zm3.257-4.97c0-1.05.308-1.862.924-2.436.616-.574 1.33-.868 2.17-.868.84 0 1.568.294 2.184.868.616.574.924 1.386.924 2.436 0 1.064-.308 1.876-.924 2.45-.616.574-1.344.854-2.184.854-.84 0-1.554-.28-2.17-.854-.616-.574-.924-1.386-.924-2.45zm-2.002.014c0 1.54.49 2.786 1.498 3.738.994.952 2.198 1.428 3.598 1.428s2.604-.476 3.612-1.428c.994-.952 1.498-2.198 1.498-3.738s-.504-2.8-1.498-3.752c-1.008-.952-2.212-1.428-3.612-1.428s-2.604.476-3.598 1.428c-1.008.952-1.498 2.212-1.498 3.752zm22.535 4.956v-9.926h-2.632l-2.912 7.168-2.982-7.168h-2.548v9.926h1.848v-6.902l2.856 6.902h1.61l2.856-6.958v6.958h1.904zm4.314-4.172v4.172h1.932v-4.172l3.5-5.754h-2.17l-2.226 3.934-2.226-3.934h-2.268l3.458 5.754z"/>
    <defs>
        <clipPath id="clip0">
            <path fill="#fff" d="M0 0H99.846V51.207H0z" transform="translate(97.576 56.897)"/>
        </clipPath>
        <clipPath id="clip1">
            <path fill="#fff" d="M0 0H21.558V26.172H0z" transform="translate(22.691 22.759)"/>
        </clipPath>
    </defs>
</svg>
