<svg xmlns="http://www.w3.org/2000/svg" width="22" height="23" fill="none" viewBox="0 0 22 23">
    <path fill="#000" d="M15.667 8.445L14.11 6.89 11 10.001 7.889 6.889 6.333 8.445l3.111 3.111-3.11 3.112 1.555 1.555L11 13.112l3.111 3.111 1.556-1.555-3.111-3.112 3.11-3.11zm3.111-4.667c-4.286-4.286-11.27-4.286-15.556 0s-4.286 11.27 0 15.556 11.27 4.286 15.556 0c4.286-4.285 4.286-11.27 0-15.556zm-14 14c-3.43-3.43-3.43-9.014 0-12.444 3.43-3.43 9.014-3.43 12.445 0 3.43 3.43 3.43 9.015 0 12.445-3.43 3.43-9.015 3.43-12.446 0z"/>
</svg>
