<svg xmlns="http://www.w3.org/2000/svg" width="24" height="18" fill="none" viewBox="0 0 24 18">
    <path fill="#000" d="M7.547 18.001c9.058 0 14.01-6.925 14.01-12.929 0-.196-.003-.392-.013-.587.962-.641 1.797-1.442 2.456-2.353-.882.362-1.832.606-2.828.715 1.017-.563 1.797-1.453 2.165-2.513-.952.52-2.006.899-3.127 1.103C19.313.553 18.033.001 16.617.001c-2.72 0-4.925 2.035-4.925 4.544 0 .356.044.703.128 1.035C7.728 5.39 4.098 3.583 1.67.833c-.422.672-.667 1.451-.667 2.283 0 1.577.869 2.969 2.191 3.782-.807-.023-1.566-.227-2.23-.568v.059c0 2.201 1.696 4.038 3.95 4.455-.414.104-.85.16-1.299.16-.317 0-.625-.029-.925-.082.627 1.805 2.445 3.119 4.6 3.155-1.686 1.22-3.809 1.946-6.115 1.946-.398 0-.79-.02-1.175-.063 2.179 1.288 4.767 2.041 7.547 2.041z"/>
</svg>
