<svg xmlns="http://www.w3.org/2000/svg" width="20" height="14" fill="none" viewBox="0 0 20 14">
    <path fill="#000" d="M6.245 14c7.494 0 11.592-5.386 11.592-10.056 0-.152-.003-.305-.011-.457.796-.498 1.487-1.12 2.032-1.83-.73.282-1.516.472-2.34.557.842-.438 1.487-1.13 1.791-1.955-.788.405-1.66.7-2.587.858C15.98.43 14.921 0 13.75 0 11.5 0 9.674 1.583 9.674 3.534c0 .277.037.547.107.805C6.393 4.192 3.39 2.786 1.382.647 1.032 1.17.83 1.776.83 2.423c0 1.226.719 2.309 1.813 2.941-.668-.018-1.296-.176-1.846-.441v.045c0 1.713 1.404 3.14 3.269 3.465-.343.081-.703.125-1.075.125-.262 0-.517-.023-.765-.064.518 1.404 2.023 2.426 3.806 2.454-1.395.948-3.151 1.513-5.06 1.513-.329 0-.653-.016-.972-.048C1.803 13.415 3.945 14 6.245 14z" opacity=".3"/>
</svg>
