<svg xmlns="http://www.w3.org/2000/svg" width="40" height="394" fill="none" viewBox="0 0 40 394">
    <path stroke="#fff" stroke-miterlimit="10" stroke-width="2.5" d="M30.675 16c-.036-3.303-1.237-6.61-3.64-9.268C21.764.898 12.7.388 6.792 5.594 3.661 8.352 2.045 12.161 2 16m23.218 0c-.023-2.046-.766-4.094-2.254-5.74-3.266-3.614-8.88-3.93-12.54-.705-1.939 1.708-2.94 4.067-2.968 6.445M25.06 9.344H40M21 86v9.302m0 11.396V116m15-14.999h-9.301m-11.395 0H6m4.394-10.607l6.578 6.576m8.056 8.06l6.578 6.578m0-21.214l-6.578 6.576m-8.056 8.06l-6.578 6.578M30 201.007c0 4.968-4.03 8.993-9 8.993-4.972 0-9-4.027-9-8.993C12 196.039 21 186 21 186s9 10.042 9 15.007zM26.751 280h-10.75v10.774h10.75V280zM26.751 299.226H16V310h10.751v-10.774zM23.256 386.157h13.38m-15.754-3.716S24.007 380 26.715 380c2.707 0 5.783 2.09 5.783 5.867 0 3.907-3.138 6.132-5.85 6.132-4.286 0-6.078-3.104-7.899-5.999-1.821-2.894-3.613-5.999-7.9-5.999-2.712 0-5.849 2.225-5.849 6.133C5 389.911 8.076 392 10.784 392c2.707 0 5.833-2.441 5.833-2.441"/>
</svg>
