<svg xmlns="http://www.w3.org/2000/svg" width="146" height="17" fill="none" viewBox="0 0 146 17">
    <path stroke="#fff" stroke-miterlimit="10" stroke-width="1.8" d="M16.092 12c-.02-1.651-.65-3.305-1.915-4.634-2.775-2.917-7.546-3.172-10.655-.569C1.874 8.177 1.024 10.08 1 12m12.22 0c-.012-1.023-.403-2.047-1.186-2.87-1.72-1.807-4.674-1.965-6.6-.353-1.02.855-1.547 2.034-1.562 3.223m9.265-3.328H21M48.5 1v4.65m0 5.699V16M56 8.5h-4.65m-5.698 0H41m2.197-5.303l3.289 3.288m4.028 4.03l3.29 3.29m0-10.608l-3.29 3.288m-4.028 4.03l-3.29 3.29M85 9.504C85 11.988 82.985 14 80.5 14c-2.486 0-4.5-2.014-4.5-4.496C76 7.02 80.5 2 80.5 2S85 7.02 85 9.504z" opacity=".5"/>
    <g opacity=".5">
        <path stroke="#fff" stroke-miterlimit="10" stroke-width="1.8" d="M110 1h-5v5.387h5V1zM110 10.613h-5V16h5v-5.387z"/>
    </g>
    <path stroke="#fff" stroke-miterlimit="10" stroke-width="1.8" d="M139.233 8.079H146m-7.968-1.858S139.613 5 140.982 5c1.369 0 2.925 1.045 2.925 2.934 0 1.953-1.587 3.065-2.959 3.065-2.167 0-3.074-1.552-3.994-2.999-.922-1.447-1.828-3-3.996-3C131.586 5 130 6.114 130 8.068c0 1.888 1.556 2.933 2.925 2.933 1.369 0 2.95-1.22 2.95-1.22" opacity=".5"/>
</svg>
