<svg id="그룹_2" data-name="그룹 2" xmlns="http://www.w3.org/2000/svg" xmlns:xlink="http://www.w3.org/1999/xlink" width="960" height="1080" viewBox="0 0 960 1080">
  <defs>
    <linearGradient id="linear-gradient" x1="0.212" y1="1.078" x2="-5.089" y2="33.43" gradientUnits="objectBoundingBox">
      <stop offset="0.115"/>
      <stop offset="0.266" stop-color="#0075b1"/>
      <stop offset="0.417" stop-color="#00a4e2"/>
      <stop offset="0.557" stop-color="#65aa31"/>
      <stop offset="0.688" stop-color="#bed755"/>
      <stop offset="0.813"/>
    </linearGradient>
    <linearGradient id="linear-gradient-2" x1="1.451" y1="0.421" x2="-5.232" y2="18.186" xlink:href="#linear-gradient"/>
    <linearGradient id="linear-gradient-3" x1="2.121" y1="-0.438" x2="-6.624" y2="14.17" xlink:href="#linear-gradient"/>
    <linearGradient id="linear-gradient-4" x1="5.313" y1="-1.762" x2="-9.389" y2="10.47" xlink:href="#linear-gradient"/>
    <linearGradient id="linear-gradient-5" x1="4.236" y1="-0.925" x2="-7.224" y2="11.352" xlink:href="#linear-gradient"/>
    <linearGradient id="linear-gradient-6" x1="3.304" y1="-0.075" x2="-5.47" y2="12.838" xlink:href="#linear-gradient"/>
    <linearGradient id="linear-gradient-7" x1="1.942" y1="-38.286" x2="-10.936" y2="44.584" xlink:href="#linear-gradient"/>
    <linearGradient id="linear-gradient-8" x1="1.952" y1="-31.351" x2="-12.921" y2="35.091" xlink:href="#linear-gradient"/>
    <linearGradient id="linear-gradient-9" x1="2.055" y1="-26.934" x2="-15.315" y2="28.95" xlink:href="#linear-gradient"/>
    <linearGradient id="linear-gradient-10" x1="2.246" y1="-25.045" x2="-18.156" y2="25.79" xlink:href="#linear-gradient"/>
    <linearGradient id="linear-gradient-11" x1="2.498" y1="-23.959" x2="-20.717" y2="23.671" xlink:href="#linear-gradient"/>
    <linearGradient id="linear-gradient-12" x1="2.895" y1="-23.468" x2="-23.292" y2="22.269" xlink:href="#linear-gradient"/>
    <linearGradient id="linear-gradient-13" x1="3.445" y1="-23.588" x2="-25.896" y2="21.538" xlink:href="#linear-gradient"/>
    <linearGradient id="linear-gradient-14" x1="4.494" y1="-24.856" x2="-31.258" y2="21.896" xlink:href="#linear-gradient"/>
    <linearGradient id="linear-gradient-15" x1="5.933" y1="-26.295" x2="-37.502" y2="22.437" xlink:href="#linear-gradient"/>
    <linearGradient id="linear-gradient-16" x1="8.351" y1="-29.233" x2="-47.79" y2="24.286" xlink:href="#linear-gradient"/>
    <linearGradient id="linear-gradient-17" x1="12.992" y1="-33.346" x2="-67.661" y2="27.147" xlink:href="#linear-gradient"/>
    <linearGradient id="linear-gradient-18" x1="0.534" y1="-17.128" x2="-15.423" y2="18.13" xlink:href="#linear-gradient"/>
    <linearGradient id="linear-gradient-19" x1="0.562" y1="-16.753" x2="-17.398" y2="16.732" xlink:href="#linear-gradient"/>
    <linearGradient id="linear-gradient-20" x1="0.723" y1="-16.695" x2="-18.612" y2="15.781" xlink:href="#linear-gradient"/>
    <linearGradient id="linear-gradient-21" x1="1.016" y1="-17.16" x2="-20.219" y2="15.4" xlink:href="#linear-gradient"/>
    <linearGradient id="linear-gradient-22" x1="1.478" y1="-17.755" x2="-22.381" y2="15.186" xlink:href="#linear-gradient"/>
    <linearGradient id="linear-gradient-23" x1="2.157" y1="-18.68" x2="-25.133" y2="15.3" xlink:href="#linear-gradient"/>
    <linearGradient id="linear-gradient-24" x1="3.211" y1="-20.655" x2="-29.572" y2="16.275" xlink:href="#linear-gradient"/>
    <linearGradient id="linear-gradient-25" x1="4.667" y1="-22.518" x2="-34.509" y2="17.223" xlink:href="#linear-gradient"/>
    <linearGradient id="linear-gradient-26" x1="7.23" y1="-26.413" x2="-44.355" y2="19.742" xlink:href="#linear-gradient"/>
    <linearGradient id="linear-gradient-27" x1="9.134" y1="-31.312" x2="-46.08" y2="23.07" xlink:href="#linear-gradient"/>
    <linearGradient id="linear-gradient-28" x1="9.002" y1="-34.132" x2="-38.453" y2="25.154" xlink:href="#linear-gradient"/>
    <linearGradient id="linear-gradient-29" x1="7.695" y1="-28.939" x2="-24.994" y2="20.167" xlink:href="#linear-gradient"/>
    <linearGradient id="linear-gradient-30" x1="7.082" y1="-27.749" x2="-27.003" y2="18.617" xlink:href="#linear-gradient"/>
    <linearGradient id="linear-gradient-31" x1="6.569" y1="-25.973" x2="-30.574" y2="17.045" xlink:href="#linear-gradient"/>
    <linearGradient id="linear-gradient-32" x1="6.166" y1="-24.757" x2="-37.15" y2="16.124" xlink:href="#linear-gradient"/>
    <linearGradient id="linear-gradient-33" x1="4.247" y1="-21.51" x2="-35.11" y2="14.178" xlink:href="#linear-gradient"/>
    <linearGradient id="linear-gradient-34" x1="2.451" y1="-18.784" x2="-29.302" y2="12.663" xlink:href="#linear-gradient"/>
    <linearGradient id="linear-gradient-35" x1="1.242" y1="-16.377" x2="-24.926" y2="11.442" xlink:href="#linear-gradient"/>
    <linearGradient id="linear-gradient-36" x1="0.438" y1="-15.04" x2="-22.211" y2="10.964" xlink:href="#linear-gradient"/>
    <linearGradient id="linear-gradient-37" x1="-0.136" y1="-14.093" x2="-20.251" y2="10.811" xlink:href="#linear-gradient"/>
    <linearGradient id="linear-gradient-38" x1="-0.525" y1="-13.241" x2="-18.598" y2="10.788" xlink:href="#linear-gradient"/>
    <linearGradient id="linear-gradient-39" x1="-0.767" y1="-12.66" x2="-17.206" y2="11.021" xlink:href="#linear-gradient"/>
    <linearGradient id="linear-gradient-40" x1="-1.536" y1="-11.612" x2="-18.854" y2="7.595" xlink:href="#linear-gradient"/>
    <linearGradient id="linear-gradient-41" x1="-1.701" y1="-11.995" x2="-21.09" y2="5.416" xlink:href="#linear-gradient"/>
    <linearGradient id="linear-gradient-42" x1="-0.586" y1="-13.582" x2="-20.019" y2="3.827" xlink:href="#linear-gradient"/>
    <linearGradient id="linear-gradient-43" x1="1.118" y1="-12.785" x2="-10.218" y2="2.123" xlink:href="#linear-gradient"/>
    <linearGradient id="linear-gradient-44" x1="2.299" y1="-12.619" x2="-5.801" y2="1.21" xlink:href="#linear-gradient"/>
    <linearGradient id="linear-gradient-45" x1="3.35" y1="-12.793" x2="-3.066" y2="1.01" xlink:href="#linear-gradient"/>
    <linearGradient id="linear-gradient-46" x1="5.306" y1="-11.506" x2="-1.123" y2="3.144" xlink:href="#linear-gradient"/>
    <linearGradient id="linear-gradient-47" x1="6.302" y1="-4.348" x2="0.27" y2="4.229" xlink:href="#linear-gradient"/>
    <linearGradient id="linear-gradient-48" x1="6.261" y1="-3.294" x2="-0.085" y2="5.058" xlink:href="#linear-gradient"/>
    <linearGradient id="linear-gradient-49" x1="6.103" y1="-2.446" x2="-0.637" y2="5.97" xlink:href="#linear-gradient"/>
    <linearGradient id="linear-gradient-50" x1="5.813" y1="-1.719" x2="-1.421" y2="6.982" xlink:href="#linear-gradient"/>
    <linearGradient id="linear-gradient-51" x1="5.368" y1="-1.105" x2="-2.511" y2="8.278" xlink:href="#linear-gradient"/>
    <linearGradient id="linear-gradient-52" x1="4.717" y1="-0.573" x2="-4.041" y2="10.115" xlink:href="#linear-gradient"/>
    <linearGradient id="linear-gradient-53" x1="5.603" y1="-1.474" x2="-5.743" y2="9.511" xlink:href="#linear-gradient"/>
    <linearGradient id="linear-gradient-54" x1="6.615" y1="-2.423" x2="-7.907" y2="9.213" xlink:href="#linear-gradient"/>
    <linearGradient id="linear-gradient-55" x1="7.841" y1="-3.47" x2="-10.741" y2="9.201" xlink:href="#linear-gradient"/>
    <linearGradient id="linear-gradient-56" x1="8.482" y1="-4.436" x2="-9.329" y2="8.516" xlink:href="#linear-gradient"/>
    <linearGradient id="linear-gradient-57" x1="10.029" y1="-6.02" x2="-13.407" y2="9.221" xlink:href="#linear-gradient"/>
    <linearGradient id="linear-gradient-58" x1="10.947" y1="-7.938" x2="-13.489" y2="9.343" xlink:href="#linear-gradient"/>
    <linearGradient id="linear-gradient-59" x1="13.354" y1="-10.881" x2="-20.463" y2="11.228" xlink:href="#linear-gradient"/>
    <linearGradient id="linear-gradient-60" x1="10.015" y1="-21.71" x2="-18.808" y2="17.209" xlink:href="#linear-gradient"/>
    <linearGradient id="linear-gradient-61" x1="8.093" y1="-27.777" x2="-19.637" y2="19.497" xlink:href="#linear-gradient"/>
    <linearGradient id="linear-gradient-62" x1="8.015" y1="-23.567" x2="-16.012" y2="16.05" xlink:href="#linear-gradient"/>
    <linearGradient id="linear-gradient-63" x1="6.933" y1="-24.796" x2="-19.036" y2="16.035" xlink:href="#linear-gradient"/>
    <linearGradient id="linear-gradient-64" x1="5.978" y1="-22.95" x2="-19.342" y2="13.873" xlink:href="#linear-gradient"/>
    <linearGradient id="linear-gradient-65" x1="5.074" y1="-21.278" x2="-20.32" y2="12.23" xlink:href="#linear-gradient"/>
    <linearGradient id="linear-gradient-66" x1="4.376" y1="-20.219" x2="-23.354" y2="11.228" xlink:href="#linear-gradient"/>
    <linearGradient id="linear-gradient-67" x1="3.537" y1="-19.283" x2="-27.666" y2="10.517" xlink:href="#linear-gradient"/>
    <linearGradient id="linear-gradient-68" x1="2.172" y1="-17.732" x2="-30.61" y2="9.729" xlink:href="#linear-gradient"/>
    <linearGradient id="linear-gradient-69" x1="0.675" y1="-15.457" x2="-25.795" y2="8.687" xlink:href="#linear-gradient"/>
    <linearGradient id="linear-gradient-70" x1="-0.336" y1="-13.879" x2="-22.881" y2="8.096" xlink:href="#linear-gradient"/>
    <linearGradient id="linear-gradient-71" x1="-1.033" y1="-12.579" x2="-20.433" y2="7.721" xlink:href="#linear-gradient"/>
    <linearGradient id="linear-gradient-72" x1="6.533" y1="-21.023" x2="-14.584" y2="12.686" xlink:href="#linear-gradient"/>
    <linearGradient id="linear-gradient-73" x1="5.464" y1="-19.438" x2="-14.294" y2="10.539" xlink:href="#linear-gradient"/>
    <linearGradient id="linear-gradient-74" x1="4.514" y1="-18.05" x2="-14.606" y2="8.938" xlink:href="#linear-gradient"/>
    <linearGradient id="linear-gradient-75" x1="3.692" y1="-17.19" x2="-15.907" y2="7.899" xlink:href="#linear-gradient"/>
    <linearGradient id="linear-gradient-76" x1="2.805" y1="-16.355" x2="-17.868" y2="7.129" xlink:href="#linear-gradient"/>
    <linearGradient id="linear-gradient-77" x1="1.836" y1="-15.824" x2="-21.442" y2="6.678" xlink:href="#linear-gradient"/>
    <linearGradient id="linear-gradient-78" x1="0.517" y1="-14.996" x2="-25.035" y2="6.304" xlink:href="#linear-gradient"/>
    <linearGradient id="linear-gradient-79" x1="-0.827" y1="-13.53" x2="-23.855" y2="5.831" xlink:href="#linear-gradient"/>
    <linearGradient id="linear-gradient-80" x1="0.735" y1="-13.602" x2="-15.855" y2="3.905" xlink:href="#linear-gradient"/>
    <linearGradient id="linear-gradient-81" x1="1.963" y1="-12.995" x2="-8.986" y2="2.507" xlink:href="#linear-gradient"/>
    <linearGradient id="linear-gradient-82" x1="2.982" y1="-12.542" x2="-5.232" y2="1.851" xlink:href="#linear-gradient"/>
    <linearGradient id="linear-gradient-83" x1="4.089" y1="-13.021" x2="-2.92" y2="2.089" xlink:href="#linear-gradient"/>
    <linearGradient id="linear-gradient-84" x1="4.893" y1="-13.324" x2="-2.914" y2="3.548" xlink:href="#linear-gradient"/>
    <linearGradient id="linear-gradient-85" x1="6.352" y1="-8.484" x2="-1.292" y2="3.983" xlink:href="#linear-gradient"/>
    <linearGradient id="linear-gradient-86" x1="6.965" y1="-6.389" x2="-1.467" y2="4.716" xlink:href="#linear-gradient"/>
    <linearGradient id="linear-gradient-87" x1="7.018" y1="-4.89" x2="-1.762" y2="5.449" xlink:href="#linear-gradient"/>
    <linearGradient id="linear-gradient-88" x1="6.817" y1="-3.712" x2="-2.234" y2="6.181" xlink:href="#linear-gradient"/>
    <linearGradient id="linear-gradient-89" x1="6.693" y1="-2.833" x2="-3.073" y2="7.091" xlink:href="#linear-gradient"/>
    <linearGradient id="linear-gradient-90" x1="6.152" y1="-2.051" x2="-4.104" y2="8.023" xlink:href="#linear-gradient"/>
    <linearGradient id="linear-gradient-91" x1="7.164" y1="-3.134" x2="-6.288" y2="8.102" xlink:href="#linear-gradient"/>
    <linearGradient id="linear-gradient-92" x1="7.704" y1="-4.123" x2="-5.35" y2="7.413" xlink:href="#linear-gradient"/>
    <linearGradient id="linear-gradient-93" x1="9.138" y1="-5.753" x2="-8.701" y2="8.111" xlink:href="#linear-gradient"/>
    <linearGradient id="linear-gradient-94" x1="10.81" y1="-10.278" x2="-12.995" y2="9.376" xlink:href="#linear-gradient"/>
    <linearGradient id="linear-gradient-95" x1="10.364" y1="-14.688" x2="-15.844" y2="12.257" xlink:href="#linear-gradient"/>
    <linearGradient id="linear-gradient-96" x1="8.059" y1="-19.505" x2="-12.815" y2="13.223" xlink:href="#linear-gradient"/>
    <linearGradient id="linear-gradient-97" x1="6.379" y1="-18.519" x2="-11.071" y2="10.545" xlink:href="#linear-gradient"/>
    <linearGradient id="linear-gradient-98" x1="5.299" y1="-17.193" x2="-10.622" y2="8.352" xlink:href="#linear-gradient"/>
    <linearGradient id="linear-gradient-99" x1="4.265" y1="-15.702" x2="-10.368" y2="6.602" xlink:href="#linear-gradient"/>
    <linearGradient id="linear-gradient-100" x1="3.471" y1="-15.11" x2="-11.039" y2="5.564" xlink:href="#linear-gradient"/>
    <linearGradient id="linear-gradient-101" x1="2.607" y1="-14.266" x2="-11.847" y2="4.711" xlink:href="#linear-gradient"/>
    <linearGradient id="linear-gradient-102" x1="1.763" y1="-13.988" x2="-13.665" y2="4.237" xlink:href="#linear-gradient"/>
    <linearGradient id="linear-gradient-103" x1="2.738" y1="-13.107" x2="-8.101" y2="3.048" xlink:href="#linear-gradient"/>
    <linearGradient id="linear-gradient-104" x1="3.74" y1="-13.025" x2="-5.011" y2="2.792" xlink:href="#linear-gradient"/>
    <linearGradient id="linear-gradient-105" x1="4.547" y1="-13.425" x2="-4.962" y2="4.045" xlink:href="#linear-gradient"/>
    <linearGradient id="linear-gradient-106" x1="5.977" y1="-12.623" x2="-3.22" y2="5.214" xlink:href="#linear-gradient"/>
    <linearGradient id="linear-gradient-107" x1="7.334" y1="-9.268" x2="-3.854" y2="5.742" xlink:href="#linear-gradient"/>
    <linearGradient id="linear-gradient-108" x1="8.091" y1="-6.959" x2="-4.326" y2="6.219" xlink:href="#linear-gradient"/>
    <linearGradient id="linear-gradient-109" x1="7.908" y1="-5.321" x2="-4.636" y2="6.749" xlink:href="#linear-gradient"/>
    <linearGradient id="linear-gradient-110" x1="9.312" y1="-7.342" x2="-8.173" y2="7.682" xlink:href="#linear-gradient"/>
    <linearGradient id="linear-gradient-111" x1="8.353" y1="-14.382" x2="-10.129" y2="10.163" xlink:href="#linear-gradient"/>
    <linearGradient id="linear-gradient-112" x1="6.548" y1="-16.798" x2="-8.403" y2="9.22" xlink:href="#linear-gradient"/>
    <linearGradient id="linear-gradient-113" x1="5.348" y1="-15.547" x2="-7.7" y2="6.836" xlink:href="#linear-gradient"/>
    <linearGradient id="linear-gradient-114" x1="4.315" y1="-14.336" x2="-7.371" y2="5.07" xlink:href="#linear-gradient"/>
    <linearGradient id="linear-gradient-115" x1="3.522" y1="-13.728" x2="-7.63" y2="3.913" xlink:href="#linear-gradient"/>
    <linearGradient id="linear-gradient-116" x1="5.571" y1="-14.55" x2="-5.284" y2="5.964" xlink:href="#linear-gradient"/>
    <linearGradient id="linear-gradient-117" x1="6.846" y1="-13.437" x2="-6.003" y2="7.579" xlink:href="#linear-gradient"/>
    <linearGradient id="linear-gradient-118" x1="8.842" y1="-9.922" x2="-7.654" y2="7.652" xlink:href="#linear-gradient"/>
  </defs>
  <path id="패스_1" data-name="패스 1" d="M0,0H960V1080H0Z"/>
  <g id="그룹_1" data-name="그룹 1" opacity="0.17">
    <path id="패스_2" data-name="패스 2" d="M904,0s-53.3.248-98.577,3.9c-13.982,8.532-35.472,28.426-35.472,28.426s52.473-10.1,85.567-13.634C871.8,9.564,904,0,904,0Z" fill="url(#linear-gradient)"/>
    <path id="패스_3" data-name="패스 3" d="M750.488,10.081s-59.569,8.82-90.325,17.5c-6.639,16.4-16.009,41.378-16.009,41.378S702.5,49.29,722.793,44.414c9.721-16.485,27.7-34.333,27.7-34.333Z" fill="url(#linear-gradient-2)"/>
    <path id="패스_4" data-name="패스 4" d="M637,94.263s43.207-19.75,70.344-28.054c-8.894,16.258-15,27.64-19.567,38.031-8.252,3.615-52.039,27.537-61.7,33.57C631.248,114.8,637,94.263,637,94.263Z" fill="url(#linear-gradient-3)"/>
    <path id="패스_5" data-name="패스 5" d="M541.606,226.928s22.462-21.236,48.337-41.378c-1.22,13.511-2.751,43.361-2.751,43.361s-20.808,19.708-41.326,42.143c-1.7-18.489-4.26-44.126-4.26-44.126Z" fill="url(#linear-gradient-4)"/>
    <path id="패스_6" data-name="패스 6" d="M535.731,150.948l3.434,47.906s39.609-31.669,53.446-39.808c.227-10.887,5.129-45.386,5.129-45.386s-39.3,21.175-62.009,37.288Z" fill="url(#linear-gradient-5)"/>
    <path id="패스_7" data-name="패스 7" d="M530.83,70.692l2.544,51.211S586.7,92.527,602.312,86.97c1.8-6.879,7.8-38.96,9.514-46.067-35.968,10.432-81,29.789-81,29.789Z" fill="url(#linear-gradient-6)"/>
    <path id="패스_8" data-name="패스 8" d="M691.271,518.164c5.088-.454,32.576,1.013,48.606,3.905,3.744,4.689,6.577,8.635,6.577,8.635s-27.467-5.165-46-6.239a78.292,78.292,0,0,0-9.183-6.3Z" fill="url(#linear-gradient-7)"/>
    <path id="패스_9" data-name="패스 9" d="M705.15,528.39c6.287.165,31.087,3.615,43.91,7.065a62.755,62.755,0,0,1,3.868,8.677s-28.005-7.5-41.3-8.966c-2.192-2.582-6.473-6.776-6.473-6.776Z" fill="url(#linear-gradient-8)"/>
    <path id="패스_10" data-name="패스 10" d="M714.354,538.967s22.483,4.338,39.691,10.164a39.293,39.293,0,0,1,1.221,8.552s-19.257-7.995-36.879-11.61c-1.758-3.491-4.033-7.106-4.033-7.106Z" fill="url(#linear-gradient-9)"/>
    <path id="패스_11" data-name="패스 11" d="M720.186,550.164c16.961,4.3,29.681,9.688,34.831,12.477a38.406,38.406,0,0,1-1.261,8.1c-2.462-1.343-17-9.234-32.039-13.779C721.7,554.812,720.186,550.164,720.186,550.164Z" fill="url(#linear-gradient-10)"/>
    <path id="패스_12" data-name="패스 12" d="M722.337,560.989a170.573,170.573,0,0,1,30.24,14.274,48.737,48.737,0,0,1-3.144,7.685s-14.106-9.482-27.468-15.2C722.813,565.2,722.337,560.989,722.337,560.989Z" fill="url(#linear-gradient-11)"/>
    <path id="패스_13" data-name="패스 13" d="M721.614,571.545a186.417,186.417,0,0,1,25.4,15.679,70.98,70.98,0,0,1-4.944,7.189,162.158,162.158,0,0,0-22.193-16.155A65.133,65.133,0,0,0,721.614,571.545Z" fill="url(#linear-gradient-12)"/>
    <path id="패스_14" data-name="패스 14" d="M718.408,581.585a147.042,147.042,0,0,1,20.807,16.547,45.719,45.719,0,0,1-6.639,6.631A117.312,117.312,0,0,0,715,587.782a45.264,45.264,0,0,0,3.413-6.2Z" fill="url(#linear-gradient-13)"/>
    <path id="패스_15" data-name="패스 15" d="M713.216,590.943a120.215,120.215,0,0,1,15.761,17.022c-2.689,2.21-6.95,5.35-6.95,5.35a134.772,134.772,0,0,0-12.927-16.9,63.45,63.45,0,0,0,4.116-5.474Z" fill="url(#linear-gradient-14)"/>
    <path id="패스_16" data-name="패스 16" d="M706.494,599.227a136.936,136.936,0,0,1,11.231,16.98,53.221,53.221,0,0,1-8.087,4.483,172.084,172.084,0,0,0-8.274-16.733c2.3-1.921,5.13-4.73,5.13-4.73Z" fill="url(#linear-gradient-15)"/>
    <path id="패스_17" data-name="패스 17" d="M698.489,606.167a155.756,155.756,0,0,1,6.888,16.465,58.336,58.336,0,0,1-8.522,3.078c-1.427-6.755-3.578-14.068-4.136-15.886a59.321,59.321,0,0,0,5.77-3.657Z" fill="url(#linear-gradient-16)"/>
    <path id="패스_18" data-name="패스 18" d="M689.658,611.415c1.7,7.313,2.564,12.518,3.1,15.576-2.9.743-7.156,1.57-8.335,1.714-.021-6.362-.331-11.651-.476-14.708a44.525,44.525,0,0,0,5.709-2.582Z" fill="url(#linear-gradient-17)"/>
    <path id="패스_19" data-name="패스 19" d="M774.625,542.975c14.272,4.359,36.837,14.564,44.532,18.613-.145,3.16-.931,8.821-1.841,11.052-11.4-6.755-25.524-14.358-40.457-19.956A50.205,50.205,0,0,0,774.625,542.975Z" fill="url(#linear-gradient-18)"/>
    <path id="패스_20" data-name="패스 20" d="M776.942,558.158c11.727,4.69,30.549,15.019,38.8,20.8a60.314,60.314,0,0,1-3.992,10.432c-9.659-7.209-25.213-17.022-35.576-21.98A58.593,58.593,0,0,0,776.942,558.158Z" fill="url(#linear-gradient-19)"/>
    <path id="패스_21" data-name="패스 21" d="M774.956,572.536c15.513,8.511,28.15,18.654,33.652,22.662a71.077,71.077,0,0,1-6.391,9.544c-7.467-7.52-25.337-20.2-30.363-23.282C773.529,577.143,774.956,572.536,774.956,572.536Z" fill="url(#linear-gradient-20)"/>
    <path id="패스_22" data-name="패스 22" d="M769.7,586.088a265.229,265.229,0,0,1,28.191,23.757c-1.986,2.479-6.888,7.333-8.522,8.366-5.708-7.065-19.173-19.563-24.944-23.757A88.318,88.318,0,0,0,769.7,586.088Z" fill="url(#linear-gradient-21)"/>
    <path id="패스_23" data-name="패스 23" d="M761.326,598.607a259.314,259.314,0,0,1,22.855,24.521,71.227,71.227,0,0,1-9.825,7.23c-6.039-8.986-17.746-22-19.959-24.314a95.607,95.607,0,0,0,6.929-7.437Z" fill="url(#linear-gradient-22)"/>
    <path id="패스_24" data-name="패스 24" d="M750.281,609.845c8.211,9.626,14.706,19.687,18.015,24.5a76.247,76.247,0,0,1-10.983,6.28,221.759,221.759,0,0,0-15.057-24.438c4.095-2.872,8.025-6.342,8.025-6.342Z" fill="url(#linear-gradient-23)"/>
    <path id="패스_25" data-name="패스 25" d="M737.54,619.843c4.943,7.664,11.913,20.844,12.948,23.8-3.5,1.632-8.17,3.244-11.583,4.524-3.413-8.759-7.756-19.191-10.094-23.095C732,623.52,737.54,619.843,737.54,619.843Z" fill="url(#linear-gradient-24)"/>
    <path id="패스_26" data-name="패스 26" d="M723.434,627.507c3.6,8.615,7.487,19.233,8.48,22.848a82.857,82.857,0,0,1-12.514,3.47,209.182,209.182,0,0,0-5.626-22.289A90.249,90.249,0,0,0,723.434,627.507Z" fill="url(#linear-gradient-25)"/>
    <path id="패스_27" data-name="패스 27" d="M708.624,633.416c1.49,6.218,3.744,17.724,3.972,21.525a85.5,85.5,0,0,1-12.493,1.136,188.24,188.24,0,0,0-1.283-19.955A101.054,101.054,0,0,0,708.624,633.416Z" fill="url(#linear-gradient-26)"/>
    <path id="패스_28" data-name="패스 28" d="M693.65,637.092c.206,4.9.041,13.345-.414,19.233-4.075-.083-11.335-.6-12.369-.764,1.862-8.78,2.627-14.668,3.041-17.828A80.564,80.564,0,0,0,693.65,637.092Z" fill="url(#linear-gradient-27)"/>
    <path id="패스_29" data-name="패스 29" d="M678.592,637.754c-1.262,6.961-3.123,14.811-3.826,16.919a104.663,104.663,0,0,1-11.149-2.831c2.772-6.424,5.73-14.811,5.73-14.811,4.3.516,9.245.723,9.245.723Z" fill="url(#linear-gradient-28)"/>
    <path id="패스_30" data-name="패스 30" d="M642.107,651.243a99.914,99.914,0,0,0,10.776,6.507,122.756,122.756,0,0,1-10.115,14.792,78.974,78.974,0,0,1-11.624-9.028C636.15,658.6,642.107,651.243,642.107,651.243Z" fill="url(#linear-gradient-29)"/>
    <path id="패스_31" data-name="패스 31" d="M671.622,664.816a189.863,189.863,0,0,1-7.26,18.571s-9.246-3.594-13.589-6.486c4.054-7.086,8.459-16.072,8.459-16.072a92.859,92.859,0,0,0,12.39,3.987Z" fill="url(#linear-gradient-30)"/>
    <path id="패스_32" data-name="패스 32" d="M678.881,666.365c3.186.682,8.832,1.508,12.99,1.983a208.823,208.823,0,0,1-3.6,22.331,124.9,124.9,0,0,1-15.533-4.214C674.786,680.8,678.881,666.365,678.881,666.365Z" fill="url(#linear-gradient-31)"/>
    <path id="패스_33" data-name="패스 33" d="M700,668.823a86.8,86.8,0,0,0,13.424-.558c.414,6.26.248,22.332,0,25.575a107.01,107.01,0,0,1-16.154-1.425c1.7-7.5,2.73-23.592,2.73-23.592Z" fill="url(#linear-gradient-32)"/>
    <path id="패스_34" data-name="패스 34" d="M721.738,667.46c4.364-.579,9.142-1.322,13.8-2.19,1.447,6.673,3.681,22.476,4.26,28.508a163.2,163.2,0,0,1-16.567.785c.1-8.1-1.489-27.1-1.489-27.1Z" fill="url(#linear-gradient-33)"/>
    <path id="패스_35" data-name="패스 35" d="M757.168,659.63c4.592,12.375,8.791,30.616,8.791,30.616s-10.838,1.941-16.609,2.644a297.6,297.6,0,0,0-5.771-29.252C750.508,661.923,757.168,659.63,757.168,659.63Z" fill="url(#linear-gradient-34)"/>
    <path id="패스_36" data-name="패스 36" d="M764.7,656.635c4.261-1.694,10.114-4.566,12.886-6.032a270.99,270.99,0,0,1,14.271,32.7,121.425,121.425,0,0,1-16.277,4.9A286.078,286.078,0,0,0,764.7,656.635Z" fill="url(#linear-gradient-35)"/>
    <path id="패스_37" data-name="패스 37" d="M796.757,639.8c6.184,9.11,14.5,23.818,19.318,33.011a74.788,74.788,0,0,1-14.851,7.21c-5.708-14.378-14.271-28.9-16.526-32.95C789.766,644.488,796.757,639.8,796.757,639.8Z" fill="url(#linear-gradient-36)"/>
    <path id="패스_38" data-name="패스 38" d="M813.7,626.763c9.763,11.755,22.111,28.818,24.862,33.446-3.351,2.892-10.921,7.168-13.858,8.552a265.949,265.949,0,0,0-21.47-33.528c5.047-3.76,10.466-8.47,10.466-8.47Z" fill="url(#linear-gradient-37)"/>
    <path id="패스_39" data-name="패스 39" d="M827.451,611.208c13.8,13.325,27.819,29.293,30.921,33.322a87.455,87.455,0,0,1-12.079,10.205c-8.769-13.16-23.02-29.128-27.24-33.652a101.015,101.015,0,0,0,8.4-9.875Z" fill="url(#linear-gradient-38)"/>
    <path id="패스_40" data-name="패스 40" d="M837.544,594.021a379.557,379.557,0,0,1,37.251,32.206,67.767,67.767,0,0,1-10.011,11.96c-9.183-11.052-23.744-24.851-33.217-32.763A116.634,116.634,0,0,0,837.544,594.021Z" fill="url(#linear-gradient-39)"/>
    <path id="패스_41" data-name="패스 41" d="M875.54,667.191c7.756,10.742,22.772,35.491,26.971,44.167-5.316,3.718-15.885,9.048-18.346,10.288a473.817,473.817,0,0,0-22.69-44.126,136.955,136.955,0,0,0,14.065-10.329Z" fill="url(#linear-gradient-40)"/>
    <path id="패스_42" data-name="패스 42" d="M883.255,755.442a471.859,471.859,0,0,1,14.168,54c-10.3,2.975-23.311,5.309-26.744,6.074-2.068-18.138-7.984-45.531-9.907-52.72C868.921,760.607,883.255,755.442,883.255,755.442Z" fill="url(#linear-gradient-41)"/>
    <path id="패스_43" data-name="패스 43" d="M856.346,850.841c.393,23.571-1.221,49.6-2.524,60.011-10.962.393-27.861-1.012-33.983-1.508,5.026-26.359,7.095-57.759,7.095-57.759,13.816.227,29.412-.744,29.412-.744Z" fill="url(#linear-gradient-42)"/>
    <path id="패스_44" data-name="패스 44" d="M755.886,931.841c10.652,3.656,24.841,6.838,35.162,9.172-7.136,24.583-20.394,55.033-23.827,60.987-15.492-4.074-32.8-10.189-38.864-13.019,12.327-20.286,27.529-57.14,27.529-57.14Z" fill="url(#linear-gradient-43)"/>
    <path id="패스_45" data-name="패스 45" d="M647.215,989.249c15.244,9.937,21.821,13.371,37.272,22.061a538.983,538.983,0,0,1-48.255,53.57,266.874,266.874,0,0,1-39.484-28.01c23.765-18.68,50.467-47.621,50.467-47.621Z" fill="url(#linear-gradient-44)"/>
    <path id="패스_46" data-name="패스 46" d="M503.817,1004.23c7.653,11.15,25.875,30.36,34.335,38.52-19.96,12.36-58.865,31.11-76.4,37.25-12.369-13.82-28.088-36.77-34.355-45.9,47.2-14.21,76.425-29.87,76.425-29.87Z" fill="url(#linear-gradient-45)"/>
    <path id="패스_47" data-name="패스 47" d="M211.912,856.336a917.907,917.907,0,0,0,94.854,9.688c1.986,12.065,11.976,49.724,15.678,60.632-25.978,2.148-81.348.8-99.611-1.694-7.2-30.719-10.921-68.626-10.921-68.626Z" fill="url(#linear-gradient-46)"/>
    <path id="패스_48" data-name="패스 48" d="M80.779,565.058c38.305,21.34,73.24,39.767,93.034,49.166-4.819,18.448-13.382,60.921-14.541,72.778-36.3-13.386-92.413-38.961-103.272-43.96,9.66-37.35,24.779-77.984,24.779-77.984Z" fill="url(#linear-gradient-47)"/>
    <path id="패스_49" data-name="패스 49" d="M132.074,447.411c28.522,21.34,63.353,44.621,77.252,54.682-7.984,19.294-20.6,58.586-24.2,70.547-34.107-17.993-79.094-45.489-87.78-50.674C113.645,483.005,132.074,447.411,132.074,447.411Z" fill="url(#linear-gradient-48)"/>
    <path id="패스_50" data-name="패스 50" d="M199.088,338.874c20.787,19.852,46.641,45.468,61.326,58.689-9.018,13.862-28.005,52.843-34,65.589-16.485-11.506-55.742-43.774-71.42-56.148,18.057-31.173,44.1-68.13,44.1-68.13Z" fill="url(#linear-gradient-49)"/>
    <path id="패스_51" data-name="패스 51" d="M281.139,241.512c16.754,22.828,34.707,47.452,44.49,59.971-10.983,13.035-35.43,47.926-43.249,60.238-17.7-18.1-54.976-60.073-54.976-60.073,26.578-32.7,53.735-60.136,53.735-60.136Z" fill="url(#linear-gradient-50)"/>
    <path id="패스_52" data-name="패스 52" d="M377.586,158.054c8.211,18.551,20.621,44.622,26.868,58.132-15.244,14.109-43.7,44.539-52.185,53.339-9.038-13.139-30.839-48.939-38.016-59.908,26.061-23.509,63.333-51.563,63.333-51.563Z" fill="url(#linear-gradient-51)"/>
    <path id="패스_53" data-name="패스 53" d="M487.208,90.978c4.178,21.257,8.543,48.3,9.6,53.669-23.93,15.122-52.97,38.61-60.643,44.188-7.839-20.927-20.5-56.768-20.5-56.768,31.811-20.411,71.544-41.09,71.544-41.09Z" fill="url(#linear-gradient-52)"/>
    <path id="패스_54" data-name="패스 54" d="M501.335,175.18c3.433,19.191,5.936,34.416,8.79,49.434-16.919,15.287-38.926,38.755-45.069,45.779-5.543-15.246-15.926-45.1-17.56-50.137,25.213-23.365,53.839-45.076,53.839-45.076Z" fill="url(#linear-gradient-53)"/>
    <path id="패스_55" data-name="패스 55" d="M515.338,252.689s5.46,28.033,8.314,44.435c-12.368,15.122-28.377,37.122-33.734,45.448-7.674-19.522-15.2-43.816-15.2-43.816,14.148-19.005,40.623-46.067,40.623-46.067Z" fill="url(#linear-gradient-54)"/>
    <path id="패스_56" data-name="패스 56" d="M528.7,321.294c2.048,10.8,7.177,35.821,8.108,39.58-6.743,10.35-21.821,37.123-24.655,42.969-6.349-15.1-13.589-37.246-13.589-37.246,8.419-14.833,30.136-45.3,30.136-45.3Z" fill="url(#linear-gradient-55)"/>
    <path id="패스_57" data-name="패스 57" d="M483.278,393.122c5.606,13.861,14.272,31.71,16.63,36.131-7.177,17.208-15.016,38.114-17.809,44.621-9.948-12.788-20.6-28.983-22.09-32.6,11.935-27.351,19.588-43.154,23.269-48.153Z" fill="url(#linear-gradient-56)"/>
    <path id="패스_58" data-name="패스 58" d="M509.422,447.969c4.7,9.957,12.679,24.541,15.223,28.88-2.378,7-8.583,27.785-10.838,39.746-9.2-11.032-17.229-22.766-19.484-25.988,5.75-19.687,15.1-42.638,15.1-42.638Z" fill="url(#linear-gradient-57)"/>
    <path id="패스_59" data-name="패스 59" d="M487.891,515.314c4.364,5.6,17,18.964,21.262,23.426a343.616,343.616,0,0,0-4.777,37.1c-9.2-6.094-21.18-15.72-24.3-18.385,1.821-18.9,7.819-42.142,7.819-42.142Z" fill="url(#linear-gradient-58)"/>
    <path id="패스_60" data-name="패스 60" d="M520.653,549.606c4.778,5.061,14.437,13.758,18.16,16.051-.786,7.85-.7,27.289-.662,31.256A129.3,129.3,0,0,1,517.8,584.7,265.938,265.938,0,0,1,520.653,549.606Z" fill="url(#linear-gradient-59)"/>
    <path id="패스_61" data-name="패스 61" d="M551.513,618.314c5.5,1.715,12.038,3.74,18.1,4.318.393,3.574,5.047,18.7,6.557,22.125-9.515.681-16.257.351-19.153.351C552.837,633.147,551.513,618.314,551.513,618.314Z" fill="url(#linear-gradient-60)"/>
    <path id="패스_62" data-name="패스 62" d="M591.039,654.817a141.325,141.325,0,0,0,15.885-5.392c.662,2.046,8.17,11.693,9.742,13.407A88.712,88.712,0,0,1,601.3,671.55c-4.9-5.7-10.259-16.733-10.259-16.733Z" fill="url(#linear-gradient-61)"/>
    <path id="패스_63" data-name="패스 63" d="M561.379,659.63a112.938,112.938,0,0,0,19.608-2.582c.993,3.967,8.253,17.146,9.969,19.522-5.357,3.037-19.649,6.879-19.649,6.879C566.3,674.442,561.379,659.63,561.379,659.63Z" fill="url(#linear-gradient-62)"/>
    <path id="패스_64" data-name="패스 64" d="M623.636,670.042c2.875,3,9.6,8.677,12.431,11.052a118.843,118.843,0,0,1-14.354,14.564c-4.84-4.441-11.914-12.622-13.01-14.6,5.377-3.409,14.933-11.011,14.933-11.011Z" fill="url(#linear-gradient-63)"/>
    <path id="패스_65" data-name="패스 65" d="M644.009,686.734c2.875,1.818,9.266,5.536,14.706,8.242-3.185,6.322-9.866,17.291-12.162,20.162a126,126,0,0,1-15.905-11.816C636.212,697.331,644.009,686.734,644.009,686.734Z" fill="url(#linear-gradient-64)"/>
    <path id="패스_66" data-name="패스 66" d="M667.692,699.046c4.24,1.508,12.7,4.359,16.733,5.454-2.648,8.738-6.971,20.038-9.37,25.76a176.075,176.075,0,0,1-18.615-9.027C661.921,711.461,667.692,699.046,667.692,699.046Z" fill="url(#linear-gradient-65)"/>
    <path id="패스_67" data-name="패스 67" d="M694.229,707.35c3.371.62,13.382,2.686,17.684,3.14-1.241,8.532-4.364,24.749-6.164,30.12-5.977-1.508-15.595-4.587-19.463-6.115C689.968,723.794,694.229,707.35,694.229,707.35Z" fill="url(#linear-gradient-66)"/>
    <path id="패스_68" data-name="패스 68" d="M722.089,711.647c4.468.351,15.244.558,18.264.289a204.25,204.25,0,0,1-1.158,34.809,182.912,182.912,0,0,1-21.325-3.222c2.875-12.726,4.219-31.876,4.219-31.876Z" fill="url(#linear-gradient-67)"/>
    <path id="패스_69" data-name="패스 69" d="M751.336,711.937c4.095-.145,14.188-1.013,18.408-1.694a277.516,277.516,0,0,1,3.268,37.99,202.073,202.073,0,0,1-21.325-.538C752.1,741.87,751.336,711.937,751.336,711.937Z" fill="url(#linear-gradient-68)"/>
    <path id="패스_70" data-name="패스 70" d="M780.313,708.466c6.826-1.3,14.313-2.892,18.1-4.008a274.827,274.827,0,0,1,8.749,40.862,143.648,143.648,0,0,1-21.9,2.458c-.579-14.874-4.943-39.312-4.943-39.312Z" fill="url(#linear-gradient-69)"/>
    <path id="패스_71" data-name="패스 71" d="M809.022,701.69c4.943-1.611,14.995-5.35,17.415-6.259a405.408,405.408,0,0,1,14.106,42.638,142.812,142.812,0,0,1-20.766,4.958c-2.751-15.638-10.755-41.337-10.755-41.337Z" fill="url(#linear-gradient-70)"/>
    <path id="패스_72" data-name="패스 72" d="M836.262,691.3c4.033-1.983,13.713-6.817,15.843-8.325,5.978,10.721,17.25,34.147,20.787,43.9a171.566,171.566,0,0,1-19.939,7.623C848.506,718.939,836.262,691.3,836.262,691.3Z" fill="url(#linear-gradient-71)"/>
    <path id="패스_73" data-name="패스 73" d="M598.464,687.168a166.836,166.836,0,0,0,13.755,17.042c-3.951,3.657-15.389,11.672-19.608,13.986-6.929-8.759-10.859-16.134-14.044-21.4a207.516,207.516,0,0,0,19.9-9.626Z" fill="url(#linear-gradient-72)"/>
    <path id="패스_74" data-name="패스 74" d="M621.237,713.073a163.091,163.091,0,0,0,16.629,14.109c-5.791,7.664-14.995,17.849-18.346,20.782a192.462,192.462,0,0,1-17.622-18.2C609.82,724.228,621.237,713.073,621.237,713.073Z" fill="url(#linear-gradient-73)"/>
    <path id="패스_75" data-name="패스 75" d="M648.56,734.392a166.359,166.359,0,0,0,19.256,11.279,263.91,263.91,0,0,1-16.443,27.475,226.785,226.785,0,0,1-20.725-15C638.011,749.575,648.56,734.392,648.56,734.392Z" fill="url(#linear-gradient-74)"/>
    <path id="패스_76" data-name="패스 76" d="M679.667,751.476c4.944,1.962,14.562,5.8,21.139,7.829a348.409,348.409,0,0,1-13.093,33.859c-8.521-3.533-20.1-10.185-23.165-11.92C669.243,774.22,679.667,751.476,679.667,751.476Z" fill="url(#linear-gradient-75)"/>
    <path id="패스_77" data-name="패스 77" d="M713.278,763.292c8.005,1.921,19.67,4.091,23.1,4.731-2.089,12.271-7.674,34.809-9.225,39.808a243.6,243.6,0,0,1-25.151-8.408C708.521,783.31,713.278,763.292,713.278,763.292Z" fill="url(#linear-gradient-76)"/>
    <path id="패스_78" data-name="패스 78" d="M749.681,770.378c6.557.888,20.394,2.169,23.227,2.086-.165,11.259-2.978,38.279-4.405,44.394a216.953,216.953,0,0,1-26.123-5.04C745.668,798.948,749.681,770.378,749.681,770.378Z" fill="url(#linear-gradient-77)"/>
    <path id="패스_79" data-name="패스 79" d="M786.663,772.32c6.205.124,18.594-.248,23.641-1.074,1.489,14.212,1.717,42.018,1.489,49.1a249.1,249.1,0,0,1-27.736-1.529c2.461-17.187,2.606-46.5,2.606-46.5Z" fill="url(#linear-gradient-78)"/>
    <path id="패스_80" data-name="패스 80" d="M823.955,769.882c7.364-.826,18.946-2.789,23.476-4.111,3.661,15.142,6.474,42.328,7.384,52.017a216.426,216.426,0,0,1-27.323,2C827.823,801.881,823.955,769.882,823.955,769.882Z" fill="url(#linear-gradient-79)"/>
    <path id="패스_81" data-name="패스 81" d="M780.168,847.494c9.122,1.467,24.427,2.789,29.619,3.2-2.13,18.572-5.936,42.473-9.618,56.541-11.189-1.405-26.061-4.979-33.217-6.755,5.626-15.287,13.216-52.988,13.216-52.988Z" fill="url(#linear-gradient-80)"/>
    <path id="패스_82" data-name="패스 82" d="M702.978,911.658a327.722,327.722,0,0,0,32.949,13.882c-11,24.686-20.6,39.705-29.35,53.587-12.224-4.875-25.255-12.436-35.555-18.778C685.542,942.025,702.978,911.658,702.978,911.658Z" fill="url(#linear-gradient-81)"/>
    <path id="패스_83" data-name="패스 83" d="M593.955,946.26c10.921,10.763,23.455,20.638,32.99,28.178-17.291,17.249-37,34-52.246,44.492-12.12-10.57-29.06-27.966-34.272-34.866,18.16-9.069,53.528-37.8,53.528-37.8Z" fill="url(#linear-gradient-82)"/>
    <path id="패스_84" data-name="패스 84" d="M457.858,936.2a445.218,445.218,0,0,0,27.406,43.98c-21.883,9.586-54.522,20.53-75.474,25.24-7.115-11.709-21.842-42.035-25.916-51.31,43.869-7.065,73.984-17.91,73.984-17.91Z" fill="url(#linear-gradient-83)"/>
    <path id="패스_85" data-name="패스 85" d="M423.42,860.86c4.344,12.064,14.81,36.275,20.622,48.422a480.415,480.415,0,0,1-73.282,13.572c-6.556-15.927-13.878-43.526-17.746-56.21C381.495,866.19,423.42,860.86,423.42,860.86Z" fill="url(#linear-gradient-84)"/>
    <path id="패스_86" data-name="패스 86" d="M208.83,746.642c37.52,10.164,62.712,16.361,85.5,20.761.207,16.444,4.675,53.5,6.495,63.131-29.1-1.57-72.371-9.813-91.979-13.531-2.214-23.3-.021-70.361-.021-70.361Z" fill="url(#linear-gradient-85)"/>
    <path id="패스_87" data-name="패스 87" d="M221.385,636.617c17.746,8.16,59.8,25.389,74.295,31.008-1.986,20.1-2.689,48.526-2.689,63.172-22.793-5.454-65.546-19.067-81.6-24.356C212.987,685.081,221.385,636.617,221.385,636.617Z" fill="url(#linear-gradient-86)"/>
    <path id="패스_88" data-name="패스 88" d="M249.783,529.547c13.941,9.73,54.087,34.458,61.554,39.023-4.385,16.981-9.6,49.579-11.769,62.139-14.933-5.949-56.424-27.413-69.165-33.672,7.653-33.859,19.38-67.49,19.38-67.49Z" fill="url(#linear-gradient-87)"/>
    <path id="패스_89" data-name="패스 89" d="M291.357,427.331c14.685,14.316,40.064,36.482,50.323,45.9-6.991,17.622-15.761,43.134-20.6,59.826-19.794-12.353-44.49-31.9-57.914-41.585,9.659-25.822,28.192-64.143,28.192-64.143Z" fill="url(#linear-gradient-88)"/>
    <path id="패스_90" data-name="패스 90" d="M348.4,333.461c8.542,11.941,32.1,45.241,35.741,49.951-10.818,17.973-23.642,45.345-28.44,55.446-9.142-8.531-44.325-47.017-44.325-47.017,14.83-26.856,37.024-58.38,37.024-58.38Z" fill="url(#linear-gradient-89)"/>
    <path id="패스_91" data-name="패스 91" d="M418.436,247.793c6.246,14.625,20.931,47.761,23.02,52.058-12.472,15.927-27.777,37.308-37.478,51.769-10.528-15.659-25.275-40.2-31.811-50.53,18.718-23.984,46.269-53.3,46.269-53.3Z" fill="url(#linear-gradient-90)"/>
    <path id="패스_92" data-name="패스 92" d="M453.2,326.624c5.729,13.882,15.429,34.87,19.587,43.877-10.032,15.845-20.229,35.862-26.372,49.208-10.155-15.1-21.428-33.694-26.454-41.461,15.141-26.132,33.239-51.624,33.239-51.624Z" fill="url(#linear-gradient-91)"/>
    <path id="패스_93" data-name="패스 93" d="M403.709,408.7c9.018,12.643,23.228,31.276,29.743,39.457-6.019,14.274-14.292,38.63-18.2,51.211-9.99-9.606-28.171-28.24-36.238-36.131,8.749-22.145,24.7-54.537,24.7-54.537Z" fill="url(#linear-gradient-92)"/>
    <path id="패스_94" data-name="패스 94" d="M449.378,468.895c7.508,9.585,18.284,23.261,24.862,30.739-2.855,11.094-8.046,32.557-10.2,44.7-12.059-9.317-22.69-20.038-29.64-26.607,6.35-24.563,14.975-48.836,14.975-48.836Z" fill="url(#linear-gradient-93)"/>
    <path id="패스_95" data-name="패스 95" d="M477.032,581.832c8.356,5.206,20,12.581,26.971,16.361a249.149,249.149,0,0,0,1.572,36.854c-11.893-3.8-20.932-7.4-29.743-10.969-.558-15.659,1.2-42.246,1.2-42.246Z" fill="url(#linear-gradient-94)"/>
    <path id="패스_96" data-name="패스 96" d="M517.406,605.011a160.179,160.179,0,0,0,22.442,9.4,243.69,243.69,0,0,0,4.674,29.417,168.608,168.608,0,0,1-24.076-4.689c-1.551-9.606-3.04-34.127-3.04-34.127Z" fill="url(#linear-gradient-95)"/>
    <path id="패스_97" data-name="패스 97" d="M524.066,658.205c7.674,1.136,19.753,2,24.655,1.777,1.1,5.763,6.391,19.728,9.39,26.421-7.57,1.963-20.352,3.326-25.606,3.76C529.3,680.66,524.066,658.205,524.066,658.205Z" fill="url(#linear-gradient-96)"/>
    <path id="패스_98" data-name="패스 98" d="M565.33,701.3c2.75,6.115,11.251,19.915,14.044,24.253-6.247,3.656-21.056,9.523-27.034,11.734-3.681-7.086-10.61-22.6-13.692-29.521C545.391,707.268,565.33,701.3,565.33,701.3Z" fill="url(#linear-gradient-97)"/>
    <path id="패스_99" data-name="패스 99" d="M588.454,738.833a248.781,248.781,0,0,0,18.1,21.112,186.714,186.714,0,0,1-26.641,19.832c-5.6-7.127-13.568-19.15-17.994-26.235A161.239,161.239,0,0,0,588.454,738.833Z" fill="url(#linear-gradient-98)"/>
    <path id="패스_100" data-name="패스 100" d="M618.114,771.184c6.784,6.114,14.933,13.3,21.759,18.1-6.04,8.284-20.394,23.447-25.482,28.8a301.379,301.379,0,0,1-23.083-23.385C604.794,784.9,618.114,771.184,618.114,771.184Z" fill="url(#linear-gradient-99)"/>
    <path id="패스_101" data-name="패스 101" d="M653.007,799.3c5.667,3.223,16.981,10.536,24.406,14.337-5.088,9.75-17.6,29.313-22.917,36.254-8.77-5.763-17.664-12.725-26.061-19.5a262.223,262.223,0,0,0,24.572-31.09Z" fill="url(#linear-gradient-100)"/>
    <path id="패스_102" data-name="패스 102" d="M692.2,821.155c9.68,4.338,20.29,8.325,27.219,10.908-3.868,10.68-15.2,35.222-19.98,44.208-9.266-4.462-21.614-10.949-29.184-15.7C680.205,846.089,692.2,821.155,692.2,821.155Z" fill="url(#linear-gradient-101)"/>
    <path id="패스_103" data-name="패스 103" d="M735.1,837.62a279.435,279.435,0,0,0,28.171,7.251c-3.33,13.964-9,34.85-14.768,50.137-9.969-2.624-22.028-7.293-31.294-11.073C724.923,867.181,735.1,837.62,735.1,837.62Z" fill="url(#linear-gradient-102)"/>
    <path id="패스_104" data-name="패스 104" d="M654.31,883.46c8.956,6.073,21.324,13.551,30.177,18.654C677.061,914.8,658.322,940.1,651.1,948.2c-11.211-7.189-24.613-17.394-32.184-24.769C637.722,905.3,654.31,883.46,654.31,883.46Z" fill="url(#linear-gradient-103)"/>
    <path id="패스_105" data-name="패스 105" d="M547.852,896.185c6.846,9.09,20.6,25.286,28.067,32.619-17.477,13.2-43,28.673-53.466,33.507-8.17-9.564-22.421-30.264-27.737-39.394a426.385,426.385,0,0,0,53.136-26.732Z" fill="url(#linear-gradient-104)"/>
    <path id="패스_106" data-name="패스 106" d="M510.436,838.611c5.874,10.68,16.857,28.322,22.9,37.308-16.774,8.987-40.146,18.179-53.011,22.559A407.505,407.505,0,0,1,458.6,854.5a487.028,487.028,0,0,0,51.833-15.886Z" fill="url(#linear-gradient-105)"/>
    <path id="패스_107" data-name="패스 107" d="M336.571,775.026c19.815,2.582,43.807,5.04,64.429,5.867,2.544,13.221,8.79,38.733,12.844,51.252-21.345,1.488-50.4,1.9-68.3,1.157-6.1-28.632-8.976-58.276-8.976-58.276Z" fill="url(#linear-gradient-106)"/>
    <path id="패스_108" data-name="패스 108" d="M333.158,680.66c15.657,5.165,40.312,12.478,57.769,17.1.1,18.241,3.268,40.015,5.191,52.575-22.979-1.674-49.743-7.417-62.588-10-1.841-29.024-.372-59.681-.372-59.681Z" fill="url(#linear-gradient-107)"/>
    <path id="패스_109" data-name="패스 109" d="M343.4,587.224c13.693,7.644,28.233,15.824,49.206,26.236-1.8,13.3-2.875,38.61-2.978,53.132-19.174-6.28-42.546-15.266-54.253-20.1,1.531-19.543,8.025-59.268,8.025-59.268Z" fill="url(#linear-gradient-108)"/>
    <path id="패스_110" data-name="패스 110" d="M367.058,495.957c13.693,11.693,31.211,26.628,40,33.921-5.005,19.253-8.377,40.159-10.838,52.739-15.016-8.883-33.383-20.8-45.814-29.231,6.2-27.1,16.65-57.429,16.65-57.429Z" fill="url(#linear-gradient-109)"/>
    <path id="패스_111" data-name="패스 111" d="M427.33,546.012c11.086,8.924,19.959,15.41,33.279,24.562a402.039,402.039,0,0,0-3.681,45.055c-11.728-5.867-26.144-13.3-36.962-19.171C421.828,577.226,427.33,546.012,427.33,546.012Z" fill="url(#linear-gradient-110)"/>
    <path id="패스_112" data-name="패스 112" d="M477.26,647.711a258.327,258.327,0,0,0,30.88,7.726c1.055,8.284,4.509,25.884,7.57,34.871-10.156.165-23.786-1.075-33.259-2.19C478.956,670.249,477.26,647.711,477.26,647.711Z" fill="url(#linear-gradient-111)"/>
    <path id="패스_113" data-name="패스 113" d="M487.188,711.317a344.746,344.746,0,0,0,34.5-1.157c3.144,9.255,9.432,24.624,13.031,32.66a308.362,308.362,0,0,1-36.03,7.54c-5.233-14.254-11.5-39.043-11.5-39.043Z" fill="url(#linear-gradient-112)"/>
    <path id="패스_114" data-name="패스 114" d="M543.715,761.35c4.592,8.326,12.721,22.249,17.892,29.583-9.225,5.887-29.516,14.254-36.9,17.146-7.177-12.829-13.568-27.248-17.56-35.924C518.937,770.378,543.715,761.35,543.715,761.35Z" fill="url(#linear-gradient-113)"/>
    <path id="패스_115" data-name="패스 115" d="M573.954,807.521a309.988,309.988,0,0,0,22.876,26.587c-9.99,8.531-29.618,22.331-37.768,27.31-7.694-9.937-15.946-22.1-23.041-33.2,17.974-8.056,37.933-20.7,37.933-20.7Z" fill="url(#linear-gradient-114)"/>
    <path id="패스_116" data-name="패스 116" d="M610.957,848.816c10.28,9.359,18.2,16.258,26.764,22.662-10.8,12.953-27.219,28.529-36.568,36.627-12.6-11.693-20-20.927-27.157-28.859A425.03,425.03,0,0,0,610.957,848.816Z" fill="url(#linear-gradient-115)"/>
    <path id="패스_117" data-name="패스 117" d="M433.721,780.893a428.064,428.064,0,0,0,48.833-4.194c5.068,13.387,11.625,29.83,16.63,39.581-11.728,4.008-36.134,9.089-50.674,11.4-5.647-14.77-14.789-46.79-14.789-46.79Z" fill="url(#linear-gradient-116)"/>
    <path id="패스_118" data-name="패스 118" d="M419.8,703.611c16.36,3.161,34.665,5.6,45.131,6.4,1.82,12.746,6.329,29.335,10.176,42.618-16.567.909-35.637.929-47.8.372C422.945,734.33,419.8,703.611,419.8,703.611Z" fill="url(#linear-gradient-117)"/>
    <path id="패스_119" data-name="패스 119" d="M418.022,625.4c12.141,5.433,28.171,11.878,38.906,15.824.165,12.911,1.9,30.863,3.661,43.692a369.512,369.512,0,0,1-42.463-9.771C416.8,656.222,418.022,625.4,418.022,625.4Z" fill="url(#linear-gradient-118)"/>
  </g>
</svg>
