<svg xmlns="http://www.w3.org/2000/svg" width="89" height="66" fill="none" viewBox="0 0 89 66">
    <path fill="#fff" d="M39.909 0s-2.51.012-4.64.177c-.661.385-1.67 1.289-1.67 1.289s2.47-.46 4.026-.62C38.396.436 39.909 0 39.909 0zM32.686.46s-2.803.402-4.252.796c-.311.743-.754 1.876-.754 1.876s2.748-.89 3.702-1.112c.456-.752 1.304-1.56 1.304-1.56zM27.343 4.277s2.032-.894 3.31-1.272c-.417.739-.706 1.256-.92 1.728-.387.164-2.45 1.248-2.901 1.523.243-1.043.511-1.979.511-1.979zM22.856 10.3s1.057-.965 2.275-1.88c-.055.611-.127 1.97-.127 1.97s-.98.895-1.943 1.913l-.205-2.003zM22.58 6.852l.161 2.176s1.866-1.437 2.514-1.807c.009-.492.243-2.06.243-2.06s-1.85.96-2.919 1.69zM22.35 3.21l.118 2.324s2.51-1.335 3.243-1.585c.085-.312.367-1.77.447-2.09-1.691.472-3.809 1.35-3.809 1.35zM29.9 23.523c.238-.02 1.534.045 2.288.176.174.214.31.39.31.39s-1.29-.234-2.164-.283c-.157-.123-.434-.283-.434-.283zM30.552 23.987c.298.008 1.461.164 2.066.32.12.214.183.394.183.394s-1.316-.34-1.943-.406c-.106-.115-.306-.308-.306-.308zM30.986 24.467s1.057.197 1.866.46c.047.14.056.39.056.39s-.908-.361-1.734-.526c-.081-.16-.188-.324-.188-.324zM31.259 24.976c.797.197 1.398.44 1.64.567 0 .094-.034.295-.06.365-.114-.061-.8-.419-1.508-.624 0-.094-.072-.308-.072-.308zM31.361 25.469c.63.205 1.261.55 1.423.648-.034.136-.149.35-.149.35s-.664-.432-1.29-.69c.037-.12.016-.308.016-.308zM31.327 25.95c.35.16.954.529 1.197.71-.068.11-.179.266-.234.324-.294-.259-.81-.6-1.044-.735.034-.082.081-.3.081-.3zM31.174 26.405s.54.332.98.75c-.103.128-.282.284-.311.3-.328-.377-.627-.62-.827-.771.072-.099.158-.28.158-.28zM30.93 26.828c.372.32.631.632.742.772-.128.098-.328.242-.328.242s-.196-.308-.61-.768c.094-.098.197-.246.197-.246zM30.615 27.205c.24.292.427.6.529.772-.132.078-.264.16-.38.205-.119-.266-.242-.509-.387-.76.102-.09.238-.217.238-.217zM30.236 27.522c.128.242.264.57.324.747-.132.065-.358.127-.4.14-.069-.309-.17-.641-.197-.723.103-.05.273-.164.273-.164zM29.823 27.76c.08.332.12.566.145.706-.137.032-.337.07-.392.078 0-.288-.017-.53-.022-.67.128-.045.269-.114.269-.114zM33.82 24.652c.673.197 1.734.66 2.096.845-.008.144-.042.403-.085.501-.537-.308-1.202-.652-1.905-.907-.034-.25-.106-.44-.106-.44zM33.93 25.342c.554.213 1.437.681 1.824.944-.038.148-.128.361-.187.472-.456-.328-1.19-.771-1.675-.997.038-.177.038-.42.038-.42zM33.837 25.994c.728.386 1.325.846 1.585 1.03-.085.144-.2.317-.303.436-.35-.341-1.193-.916-1.427-1.055.077-.202.145-.41.145-.41zM33.59 26.606c.72.509 1.116.89 1.325 1.08-.094.11-.324.332-.4.381-.27-.32-.904-.886-1.177-1.08.12-.151.252-.381.252-.381zM33.193 27.177c.35.304.904.899 1.078 1.112-.149.127-.353.271-.46.329-.285-.407-.835-.998-.937-1.105.149-.14.32-.336.32-.336zM32.678 27.685c.388.435.69.895.848 1.113-.154.102-.324.197-.516.287-.23-.423-.541-.887-.707-1.108.187-.132.375-.292.375-.292zM32.077 28.142c.234.349.562.948.61 1.08-.167.073-.384.147-.546.204-.162-.398-.367-.87-.477-1.046.153-.074.413-.238.413-.238zM31.412 28.486c.17.39.354.874.4 1.039-.153.053-.391.123-.587.156-.09-.436-.196-.817-.264-1.01.204-.066.451-.185.451-.185zM30.713 28.757c.069.284.175.805.188.977-.14.02-.375.054-.588.054-.004-.378-.038-.74-.06-.907.222-.046.46-.124.46-.124zM30.01 28.925c.009.222.005.608-.02.875-.193-.004-.534-.029-.585-.033.09-.398.124-.665.145-.809.183 0 .46-.032.46-.032zM29.303 28.954c-.06.316-.145.673-.179.767-.179-.036-.358-.073-.524-.127.132-.291.268-.673.268-.673.2.025.435.033.435.033zM27.586 29.566c.162.102.34.217.507.295-.15.25-.362.542-.477.67-.162-.095-.443-.304-.546-.411.235-.222.516-.554.516-.554zM28.975 30.182c-.124.382-.34.841-.34.841s-.436-.164-.64-.295c.192-.32.396-.73.396-.73.269.11.584.184.584.184zM29.316 30.251c.149.033.417.07.61.09-.03.32-.129.859-.171 1.015-.235-.041-.567-.136-.733-.193.102-.255.294-.912.294-.912zM30.309 30.363c.242.008.426-.005.63-.025.022.283.013 1.014 0 1.162-.187.004-.54-.029-.758-.066.08-.34.128-1.071.128-1.071zM31.331 30.301c.205-.025.43-.062.648-.099.068.304.175 1.018.2 1.294-.187.02-.567.04-.78.037.009-.366-.068-1.232-.068-1.232zM33.002 29.947c.217.563.413 1.388.413 1.388s-.511.086-.78.119c-.09-.632-.273-1.33-.273-1.33.324-.074.64-.177.64-.177zM33.355 29.812c.2-.078.478-.205.605-.275.256.456.541 1.129.674 1.486-.286.11-.678.205-.767.222-.188-.678-.512-1.433-.512-1.433zM34.864 29.045c.29.414.681 1.08.907 1.498-.243.156-.502.255-.699.329-.268-.653-.673-1.314-.775-1.495.239-.119.567-.332.567-.332zM35.66 28.453c.46.534 1.04 1.31 1.172 1.52-.157.13-.515.324-.652.39-.324-.596-.822-1.298-1.01-1.524.235-.172.49-.386.49-.386zM36.308 27.747c.648.603 1.308 1.33 1.457 1.515-.157.16-.477.414-.566.464-.414-.6-1.083-1.322-1.283-1.527.2-.202.392-.452.392-.452zM36.781 26.967c.482.341 1.261.986 1.751 1.462-.132.21-.417.505-.472.542-.43-.501-1.117-1.13-1.564-1.486.166-.255.285-.518.285-.518zM38.57 30.288c.367.49 1.07 1.61 1.27 2.004-.25.168-.75.41-.864.468-.465-1.022-1.07-2.003-1.07-2.003.354-.21.665-.469.665-.469zM38.933 34.295c.324.936.562 1.926.665 2.451-.486.136-1.095.242-1.257.275-.098-.82-.375-2.065-.465-2.393.384-.099 1.057-.333 1.057-.333zM37.667 38.626c.017 1.072-.06 2.25-.119 2.726-.516.016-1.312-.045-1.598-.07.239-1.199.333-2.623.333-2.623.651.012 1.384-.033 1.384-.033zM32.938 42.304c.502.169 1.167.312 1.653.415-.337 1.117-.959 2.5-1.12 2.767-.73-.185-1.543-.464-1.829-.591.584-.92 1.296-2.59 1.296-2.59zM27.825 44.911c.715.452 1.026.608 1.755 1.002-1.031 1.273-2.015 2.188-2.271 2.43-.742-.406-1.517-.977-1.858-1.272 1.116-.846 2.373-2.16 2.373-2.16zM21.075 45.593c.362.505 1.219 1.38 1.615 1.749-.942.562-2.77 1.412-3.596 1.691-.584-.628-1.321-1.67-1.615-2.086 2.22-.644 3.596-1.354 3.596-1.354zM7.337 38.876c2.037.3 3.512.394 4.466.44.094.545.563 2.257.737 2.754-1.223.099-3.83.037-4.687-.078-.34-1.396-.516-3.116-.516-3.116zM1.168 25.654c1.802.969 3.447 1.806 4.38 2.233-.226.837-.63 2.767-.686 3.305-1.709-.612-4.35-1.77-4.862-2 .456-1.695 1.168-3.538 1.168-3.538zM3.58 20.313c1.341.968 2.982 2.027 3.634 2.483-.375.875-.967 2.66-1.138 3.202-1.606-.817-3.724-2.065-4.129-2.299.767-1.773 1.632-3.387 1.632-3.387zM6.737 15.383c.98.903 2.194 2.065 2.884 2.664-.426.628-1.316 2.397-1.598 2.976-.775-.521-2.624-1.987-3.361-2.55.847-1.411 2.075-3.09 2.075-3.09zM10.597 10.965c.789 1.035 1.632 2.156 2.092 2.722-.515.591-1.666 2.176-2.036 2.734-.836-.82-2.587-2.726-2.587-2.726 1.253-1.486 2.531-2.73 2.531-2.73zM15.135 7.176c.388.842.972 2.028 1.266 2.64-.716.64-2.058 2.024-2.455 2.422-.426-.595-1.453-2.221-1.79-2.718 1.224-1.071 2.98-2.344 2.98-2.344zM20.295 4.13c.196.965.4 2.192.452 2.439-1.125.685-2.493 1.752-2.855 2.007-.366-.948-.963-2.578-.963-2.578 1.496-.928 3.366-1.868 3.366-1.868zM20.96 7.951c.162.87.281 1.565.413 2.246-.797.694-1.832 1.761-2.122 2.077-.26-.693-.75-2.048-.826-2.278 1.188-1.06 2.535-2.045 2.535-2.045zM21.62 11.47s.256 1.272.392 2.015c-.583.686-1.333 1.684-1.589 2.065-.362-.886-.716-1.987-.716-1.987.665-.862 1.913-2.093 1.913-2.093zM22.247 14.586c.098.489.336 1.626.383 1.798-.315.468-1.027 1.687-1.159 1.95-.298-.686-.639-1.691-.639-1.691.392-.674 1.415-2.057 1.415-2.057zM20.108 17.846c.264.628.673 1.44.784 1.642-.337.78-.707 1.728-.84 2.028-.468-.579-.971-1.318-1.04-1.482.563-1.244.925-1.958 1.096-2.188zM21.34 20.337c.22.451.596 1.117.715 1.31-.11.316-.405 1.26-.511 1.806-.435-.501-.81-1.035-.916-1.178.272-.895.711-1.938.711-1.938zM20.325 23.396c.205.254.801.862 1.001 1.063-.085.386-.208 1.318-.225 1.683-.435-.275-.997-.714-1.142-.833.085-.858.366-1.913.366-1.913zM21.868 24.952c.225.23.681.624.856.73-.038.358-.034 1.24-.03 1.42-.468-.217-.788-.438-.959-.553-.004-.756.133-1.597.133-1.597zM23.32 28.071c.26.078.567.169.853.197.017.165.238.85.307 1.006-.448.033-.767.017-.904.017-.192-.546-.255-1.22-.255-1.22zM25.183 29.726c.2-.045.643-.201.745-.246.03.094.384.53.46.607-.136.099-.532.329-.724.394-.23-.254-.481-.755-.481-.755zM23.785 29.948c.247 0 .78-.078.92-.12.047.181.388.78.47.887-.252.14-.925.312-.925.312-.235-.406-.465-1.08-.465-1.08zM26.717 30.42c.136.135.451.394.583.5-.183.222-.502.526-.673.661-.226-.2-.562-.574-.613-.665.251-.152.703-.497.703-.497zM27.675 31.175c.137.082.435.25.69.373-.148.288-.464.785-.57.916-.277-.156-.644-.443-.75-.538.264-.267.63-.751.63-.751zM28.788 31.737c.2.07.596.197.788.247-.124.398-.328.907-.44 1.17-.28-.111-.702-.312-.877-.41.26-.444.529-1.007.529-1.007zM30.036 32.11c.158.03.63.124.83.144-.059.386-.204 1.125-.289 1.367-.281-.07-.733-.209-.916-.279.175-.484.375-1.231.375-1.231zM31.348 32.309c.21.016.716.024.861.012.03.427.009 1.15-.055 1.58-.422-.032-.916-.127-1.002-.147.132-.575.196-1.445.196-1.445zM32.725 32.32c.191-.008.669-.045.865-.078.085.456.157 1.318.153 1.725-.281.012-.873-.008-1.006-.025.026-.263-.012-1.621-.012-1.621zM34.088 32.165c.32-.058.673-.132.852-.18.184.59.333 1.272.414 1.855-.277.061-.835.11-1.032.11-.03-.677-.234-1.785-.234-1.785zM35.439 31.857c.234-.074.707-.242.818-.283.281.656.592 1.654.665 1.937-.384.123-.746.185-.976.226-.128-.714-.507-1.88-.507-1.88zM36.721 31.384c.192-.09.644-.307.746-.377.281.484.814 1.552.98 1.995-.456.197-.84.316-.937.345-.213-.706-.788-1.963-.788-1.963zM25.532 31.196c.094.14.413.537.648.771-.188.165-.725.53-.92.637-.329-.398-.512-.73-.661-.973.477-.189.933-.435.933-.435zM26.602 32.373c.191.177.52.46.784.641-.273.349-.708.809-.865.944-.303-.254-.618-.591-.831-.825.375-.255.912-.76.912-.76zM27.888 33.338c.252.16.58.362.908.514-.247.467-.58.972-.776 1.247-.306-.184-.75-.496-.975-.681.345-.39.843-1.08.843-1.08zM29.354 34.114c.235.09.686.263.993.358-.162.472-.396 1.075-.618 1.535-.4-.16-.946-.464-1.09-.542.22-.316.715-1.35.715-1.35zM30.935 34.652c.375.087.925.185 1.087.214-.098.558-.363 1.58-.435 1.806-.52-.131-1.044-.328-1.185-.382.307-.73.533-1.638.533-1.638zM32.648 34.973c.307.04.959.098 1.095.094-.009.513-.14 1.737-.209 2.016-.55-.066-1.03-.185-1.231-.23.153-.583.345-1.88.345-1.88zM34.386 35.063c.29.004.874-.013 1.113-.05.068.645.08 1.91.068 2.23-.46 0-1.002-.033-1.304-.07.12-.78.123-2.11.123-2.11zM36.142 34.952c.345-.037.89-.127 1.104-.189.17.686.302 1.922.349 2.36-.563.079-1.1.091-1.287.091.017-.808-.166-2.262-.166-2.262zM34.08 38.474c.43.066 1.15.128 1.393.144-.098.841-.281 1.93-.452 2.566-.528-.066-1.227-.226-1.563-.308.268-.69.622-2.402.622-2.402zM30.45 41.389c.494.225.95.422 1.55.628-.52 1.12-.971 1.802-1.38 2.434-.576-.222-1.19-.566-1.675-.854.682-.83 1.504-2.209 1.504-2.209zM25.319 42.957c.516.489 1.104.936 1.551 1.281-.814.784-1.743 1.544-2.459 2.02-.57-.48-1.367-1.269-1.614-1.585.856-.41 2.522-1.716 2.522-1.716zM18.915 42.501c.35.636.903 1.474 1.29 1.995-1.03.435-2.564.932-3.553 1.145-.337-.53-1.027-1.908-1.219-2.331 2.063-.316 3.482-.809 3.482-.809zM17.291 39.081c.205.546.7 1.647.972 2.2-1.006.264-2.233.498-3.447.617-.307-.723-.652-1.975-.836-2.554 1.338-.02 3.311-.263 3.311-.263zM7.193 33.897c1.764.46 2.953.743 4.022.944.008.747.222 2.43.307 2.865-1.368-.07-3.405-.443-4.33-.616-.102-1.059 0-3.193 0-3.193zM7.785 28.901c.835.37 2.812 1.154 3.498 1.408-.094.912-.128 2.205-.128 2.87-1.073-.247-3.085-.867-3.839-1.105.073-.973.469-3.173.469-3.173zM9.119 24.04c.656.444 2.548 1.564 2.897 1.774-.204.771-.452 2.25-.554 2.82-.703-.271-2.654-1.244-3.255-1.527.362-1.54.912-3.067.912-3.067zM11.079 19.401c.69.649 1.883 1.659 2.369 2.086-.328.8-.742 1.958-.972 2.717-.933-.562-2.092-1.449-2.727-1.888.456-1.174 1.33-2.915 1.33-2.915zM13.763 15.14c.4.542 1.513 2.053 1.683 2.266-.511.817-1.112 2.057-1.338 2.517-.43-.386-2.088-2.135-2.088-2.135.695-1.22 1.743-2.648 1.743-2.648zM17.057 11.248c.294.666.984 2.168 1.082 2.365-.588.723-1.308 1.692-1.764 2.352-.494-.71-1.189-1.826-1.495-2.294.881-1.092 2.177-2.422 2.177-2.422zM18.693 14.828c.268.629.729 1.585.92 1.991-.473.719-.954 1.63-1.24 2.234-.477-.686-1.01-1.532-1.244-1.88.712-1.187 1.564-2.345 1.564-2.345zM16.367 18.556c.426.574 1.09 1.42 1.401 1.79-.28.648-.673 1.752-.856 2.323-.469-.435-1.325-1.28-1.704-1.642.404-1.002 1.159-2.471 1.159-2.471zM18.514 21.285c.354.436.86 1.055 1.172 1.396-.136.505-.38 1.478-.482 2.028-.566-.423-1.07-.911-1.393-1.207.298-1.112.703-2.217.703-2.217zM19.814 26.413c.392.238.941.57 1.27.743-.026.444.008 1.121.072 1.675-.558-.172-.984-.336-1.402-.497-.021-.714.06-1.92.06-1.92zM21.714 27.468c.35.169.682.308 1.057.427.047.513.158 1.055.221 1.334-.438-.049-.864-.143-1.133-.213-.072-.435-.145-1.548-.145-1.548zM22.03 29.882c.362.053.928.09 1.159.082.05.263.302.895.443 1.199-.354.09-.96.151-1.206.172-.15-.435-.396-1.453-.396-1.453zM23.973 31.836c.127.28.528.903.66 1.1-.294.164-.989.431-1.274.534-.175-.32-.499-1.026-.644-1.338.316-.02 1.258-.296 1.258-.296zM25.06 33.544c.246.303.566.685.851.956-.306.28-.941.727-1.253.9-.264-.325-.639-.871-.847-1.191.711-.296 1.248-.665 1.248-.665zM26.457 35.01c.32.278.703.602 1.022.82-.285.378-.958 1.063-1.201 1.306-.324-.276-.895-.842-1.087-1.064.64-.439 1.266-1.063 1.266-1.063zM28.097 36.286c.264.148.801.48 1.15.65-.238.442-.826 1.33-1.077 1.645-.414-.263-.831-.579-1.228-.887.64-.648 1.155-1.408 1.155-1.408zM29.942 37.28c.456.197.955.377 1.283.496-.184.485-.716 1.597-.942 2.008-.434-.201-1.018-.497-1.372-.714.469-.657 1.031-1.79 1.031-1.79zM31.962 38.027c.464.135.933.258 1.325.328-.157.632-.422 1.58-.694 2.274-.47-.119-1.036-.332-1.475-.5.363-.76.844-2.102.844-2.102zM28.157 40.108c.422.275 1.005.616 1.419.846-.35.574-1.232 1.724-1.573 2.093-.528-.324-1.159-.788-1.512-1.125.886-.825 1.666-1.814 1.666-1.814zM23.15 40.687c.324.414.972 1.149 1.321 1.482-.822.599-2.024 1.3-2.518 1.523-.384-.435-1.057-1.376-1.304-1.79 1.35-.542 2.501-1.215 2.501-1.215zM21.386 38.072c.277.485.793 1.285 1.078 1.692-.788.406-1.887.825-2.493 1.026-.43-.718-.826-1.54-1.022-1.995 1.342-.32 2.437-.723 2.437-.723zM13.205 35.186c.933.119 2.062.23 3.034.267.12.599.413 1.757.605 2.327-1.006.07-2.374.087-3.213.054-.29-1.302-.426-2.648-.426-2.648zM13.043 30.9c.737.234 1.896.567 2.719.776.004.83.153 1.819.242 2.385-1.082-.074-2.343-.336-2.944-.455-.085-1.314-.017-2.706-.017-2.706zM13.524 26.66c.644.349 1.33.718 2.319 1.19-.086.604-.137 1.753-.141 2.414-.903-.287-2.003-.694-2.553-.911.073-.891.376-2.693.376-2.693zM14.64 22.517c.644.53 1.47 1.207 1.884 1.54-.234.874-.392 1.822-.511 2.393-.707-.402-1.572-.944-2.156-1.326.29-1.232.784-2.607.784-2.607zM17.474 24.787c.52.406.942.698 1.564 1.117-.11.738-.157 1.49-.175 2.044-.553-.267-1.23-.604-1.738-.87.094-.875.35-2.291.35-2.291zM19.826 29.406c.435.14 1.083.287 1.454.353.05.378.213 1.174.357 1.584-.477.009-1.12-.049-1.563-.098-.167-.817-.248-1.84-.248-1.84zM20.291 32.292c.52.004 1.125-.008 1.623-.053.15.418.444 1.116.614 1.481-.418.12-1.227.284-1.696.341-.243-.644-.541-1.77-.541-1.77zM22.954 34.566c.217.378.597 1.01.844 1.343-.435.267-1.39.648-1.739.78-.336-.583-.639-1.236-.826-1.63.554-.086 1.721-.493 1.721-.493zM24.377 36.66c.29.37.793.932 1.078 1.207-.468.386-1.393 1.014-1.776 1.24-.363-.452-.75-1.002-1.087-1.507.844-.365 1.785-.94 1.785-.94zM26.12 38.536c.486.423.857.739 1.261 1.03-.507.587-1.282 1.297-1.721 1.663-.592-.53-.942-.948-1.278-1.31.997-.706 1.738-1.383 1.738-1.383zM17.777 35.453c.959-.033 1.747-.11 2.297-.189.238.608.545 1.355.784 1.798-.554.18-1.7.415-2.387.518-.264-.674-.694-2.127-.694-2.127zM17.12 31.943c.772.143 1.633.254 2.123.291.085.579.298 1.33.477 1.934-.78.04-1.679.04-2.25.016-.2-.846-.35-2.241-.35-2.241zM17.04 28.392c.57.246 1.325.538 1.832.718.009.587.09 1.4.17 1.983-.813-.136-1.431-.283-1.998-.443-.064-.858-.004-2.258-.004-2.258zM54.754 22.78c0 1.823-1.449 2.677-2.68 2.677h-3.32v-5.378h3.32c1.231 0 2.68.825 2.68 2.701zm3.047 0c0-3.338-2.85-5.378-5.578-5.378h-6.545v16.511h3.072v-5.78h3.469c2.85 0 5.582-2.208 5.582-5.353zM60.835 27.965l5.407-10.567h-3.145l-5.701 11.183v2.011h7.18v-2.627h-3.741zm8.334-3.633h-3v9.577h3v-9.577zM70.95 25.67c0 4.926 4.057 8.523 9.098 8.523 2.876 0 5.407-1.207 7.009-3.1v-6.761h-7.674v2.64h4.772v3.124c-1.056.903-2.484 1.42-4.107 1.42-3.44 0-6.047-2.484-6.047-5.85 0-3.342 2.608-5.875 6.047-5.875 1.695 0 3.22.571 4.325 1.61l2.04-1.802c-1.648-1.59-3.864-2.484-6.37-2.484-5.032 0-9.093 3.625-9.093 8.555zM45.384 45.753c.507.25 1.317.509 2.135.509.882 0 1.355-.349 1.355-.887 0-.509-.405-.804-1.428-1.14-1.414-.485-2.352-1.24-2.352-2.435 0-1.4 1.228-2.455 3.226-2.455.971 0 1.666.18 2.173.414l-.43 1.482c-.328-.156-.95-.39-1.773-.39-.835 0-1.236.378-1.236.793 0 .525.47.755 1.581 1.157 1.505.538 2.199 1.29 2.199 2.447 0 1.38-1.087 2.545-3.426 2.545-.971 0-1.93-.254-2.412-.513l.388-1.527zM58.074 45.753c0 .776.025 1.408.05 1.909h-1.67l-.09-.838h-.037c-.24.362-.819.973-1.93.973-1.262 0-2.174-.755-2.174-2.594v-3.494h1.922v3.206c0 .867.294 1.384.976 1.384.532 0 .843-.349.958-.645.051-.106.077-.238.077-.402V41.71h1.922v4.044h-.005zM59.782 43.61c0-.743-.025-1.363-.051-1.9h1.628l.076.808h.043c.264-.394.818-.952 1.866-.952.81 0 1.428.402 1.692 1.026h.026c.238-.316.502-.563.805-.735.34-.18.72-.291 1.172-.291 1.189 0 2.083.804 2.083 2.594v3.506h-1.87v-3.239c0-.862-.29-1.359-.908-1.359-.46 0-.758.296-.899.645-.038.131-.064.316-.064.472v3.481h-1.87V44.32c0-.739-.277-1.252-.895-1.252-.49 0-.784.366-.895.657-.064.148-.077.316-.077.472v3.469h-1.866V43.61h.004zM70.818 43.61c0-.743-.025-1.363-.05-1.9h1.627l.077.808h.038c.268-.394.822-.952 1.875-.952.805 0 1.427.402 1.691 1.026h.026c.239-.316.503-.563.81-.735.34-.18.72-.291 1.175-.291 1.19 0 2.084.804 2.084 2.594v3.506h-1.87v-3.239c0-.862-.29-1.359-.908-1.359-.456 0-.758.296-.9.645-.037.131-.059.316-.059.472v3.481h-1.87V44.32c0-.739-.277-1.252-.895-1.252-.494 0-.784.366-.895.657-.064.148-.077.316-.077.472v3.469h-1.866V43.61h-.013zM83.836 40.055c0 .509-.392.924-1.036.924-.605 0-.997-.415-.997-.924 0-.526.41-.928 1.027-.928.614 0 .989.402 1.006.928zm-1.986 1.65h1.922v5.953H81.85v-5.953zM87.624 40.104v1.601H89v1.367h-1.376v2.155c0 .719.187 1.043.758 1.043.264 0 .392-.012.571-.049l.013 1.4c-.243.082-.707.156-1.24.156-.618 0-1.138-.205-1.453-.513-.354-.353-.533-.924-.533-1.766v-2.43h-.822v-1.367h.822v-1.1l1.884-.497zM26.844 63.385c.648.328 1.683.653 2.732.653 1.129 0 1.73-.448 1.73-1.137 0-.653-.52-1.027-1.824-1.462-1.81-.62-3.008-1.584-3.008-3.112 0-1.79 1.568-3.144 4.12-3.144 1.244 0 2.13.234 2.778.53l-.55 1.896c-.417-.201-1.21-.497-2.262-.497-1.065 0-1.585.485-1.585 1.014 0 .665.6.965 2.02 1.478 1.921.686 2.812 1.654 2.812 3.132 0 1.757-1.39 3.252-4.38 3.252-1.245 0-2.472-.329-3.085-.653l.502-1.95zM37.62 62.777c.065.986 1.083 1.45 2.23 1.45.843 0 1.52-.111 2.18-.329l.325 1.601c-.81.325-1.794.485-2.86.485-2.68 0-4.218-1.495-4.218-3.876 0-1.933 1.244-4.064 3.993-4.064 2.552 0 3.523 1.913 3.523 3.797 0 .403-.046.764-.08.936H37.62zm2.894-1.617c0-.579-.26-1.544-1.39-1.544-1.035 0-1.452.92-1.52 1.544h2.91zM52.279 61.936c0 2.787-2.05 4.064-4.168 4.064-2.305 0-4.086-1.466-4.086-3.925 0-2.471 1.679-4.047 4.231-4.047 2.408.004 4.023 1.609 4.023 3.908zm-5.719.082c0 1.305.567 2.287 1.62 2.287.967 0 1.563-.92 1.563-2.304 0-1.124-.452-2.274-1.564-2.274-1.167 0-1.619 1.17-1.619 2.29zM61.457 63.385c0 .993.034 1.806.064 2.443h-2.13l-.116-1.072h-.047c-.31.468-1.052 1.244-2.471 1.244-1.62 0-2.778-.965-2.778-3.313v-4.466h2.458v4.093c0 1.104.371 1.773 1.245 1.773.677 0 1.078-.448 1.227-.825.064-.14.093-.308.093-.51v-4.531h2.459v5.164h-.004zM66.097 54.78h-2.454v11.048h2.454V54.78zM45.72 11.363V9.828l1.458-1.268c2.463-2.123 3.66-3.342 3.694-4.61 0-.887-.554-1.59-1.853-1.59-.972 0-1.82.469-2.412.904l-.746-1.823c.848-.62 2.17-1.12 3.695-1.12 2.548 0 3.954 1.436 3.954 3.407 0 1.822-1.368 3.276-3 4.676l-1.04.833v.033h4.249v2.09H45.72v.003zM63.809 5.883c0 3.358-1.406 5.665-4.282 5.665-2.915 0-4.198-2.525-4.215-5.595 0-3.14 1.39-5.629 4.3-5.629 3.017-.004 4.197 2.587 4.197 5.559zm-5.846.07c-.017 2.488.605 3.674 1.632 3.674S61.17 8.39 61.17 5.92c0-2.406-.537-3.674-1.593-3.674-.972-.004-1.632 1.182-1.615 3.707zM65.245 11.363V9.828l1.457-1.268c2.463-2.123 3.66-3.342 3.694-4.61 0-.887-.554-1.59-1.853-1.59-.972 0-1.82.469-2.412.904l-.746-1.823c.848-.62 2.17-1.12 3.695-1.12 2.548 0 3.954 1.436 3.954 3.407 0 1.822-1.368 3.276-3 4.676l-1.04.833v.033h4.249v2.09h-7.998v.003zM78.373 2.759h-.034l-2.152.985-.434-1.905L78.734.501h2.186v10.858h-2.548v-8.6z"/>
</svg>
