<svg xmlns="http://www.w3.org/2000/svg" width="107" height="83" fill="none" viewBox="0 0 107 83">
    <g clip-path="url(#clip0)">
        <path fill="#FABD00" d="M47.98 0s-3.017.015-5.578.222c-.794.485-2.008 1.621-2.008 1.621s2.97-.578 4.84-.78C46.163.548 47.98 0 47.98 0zM39.297.58s-3.371.505-5.113 1c-.374.935-.907 2.36-.907 2.36s3.305-1.12 4.452-1.4c.548-.944 1.568-1.96 1.568-1.96zM32.873 5.38s2.444-1.126 3.98-1.601c-.501.929-.85 1.58-1.106 2.173-.466.207-2.945 1.57-3.488 1.916.292-1.312.614-2.489.614-2.489z"/>
        <path fill="#F5A200" d="M27.479 12.953s1.27-1.213 2.735-2.364c-.066.77-.154 2.478-.154 2.478s-1.178 1.125-2.336 2.406l-.245-2.52z"/>
        <path fill="#FABD00" d="M27.145 8.616l.195 2.736s2.244-1.807 3.023-2.271c.01-.62.292-2.592.292-2.592s-2.224 1.208-3.51 2.127z"/>
        <path fill="#F5A200" d="M26.87 4.038l.143 2.922s3.017-1.678 3.898-1.993c.102-.392.44-2.225.538-2.628-2.034.594-4.58 1.699-4.58 1.699z"/>
        <path fill="#427935" d="M35.946 29.582c.287-.026 1.845.057 2.751.222.21.268.374.49.374.49S37.52 30 36.47 29.938c-.19-.155-.523-.356-.523-.356zM36.73 30.166c.36.01 1.758.206 2.485.402.143.269.22.496.22.496s-1.583-.428-2.336-.511c-.128-.145-.368-.387-.368-.387z"/>
        <path fill="#00A6D9" d="M37.253 30.77s1.27.248 2.244.578c.056.176.066.49.066.49s-1.09-.454-2.085-.66c-.097-.202-.225-.408-.225-.408z"/>
        <path fill="#427935" d="M37.581 31.41c.958.248 1.68.552 1.972.712 0 .119-.04.372-.071.46-.139-.078-.963-.527-1.814-.785 0-.119-.087-.387-.087-.387z"/>
        <path fill="#00A6D9" d="M37.704 32.03c.758.258 1.516.692 1.711.816-.04.17-.18.439-.18.439s-.798-.542-1.551-.868c.046-.15.02-.387.02-.387z"/>
        <path fill="#427935" d="M37.663 32.632c.42.202 1.147.666 1.44.893-.083.14-.216.336-.282.408-.354-.325-.974-.754-1.256-.924.041-.103.098-.377.098-.377z"/>
        <path fill="#00A6D9" d="M37.479 33.206s.65.418 1.178.945c-.123.16-.338.356-.374.377-.395-.475-.753-.78-.994-.971.087-.124.19-.351.19-.351z"/>
        <path fill="#427935" d="M37.186 33.738c.446.403.758.795.891.97-.154.125-.394.306-.394.306s-.236-.388-.733-.966c.113-.124.236-.31.236-.31z"/>
        <path fill="#003068" d="M36.807 34.213c.287.367.513.754.636.971-.16.098-.318.201-.456.258-.144-.336-.292-.64-.467-.955.123-.114.287-.274.287-.274z"/>
        <path fill="#00A6D9" d="M36.351 34.611c.154.305.318.718.39.94-.16.083-.43.16-.482.175-.082-.387-.205-.805-.236-.908.123-.062.328-.207.328-.207z"/>
        <path fill="#427935" d="M35.855 34.91c.097.419.143.713.174.889-.164.041-.405.087-.471.098 0-.362-.02-.666-.026-.842.154-.056.323-.144.323-.144zM40.66 31.001c.809.248 2.084.831 2.52 1.064-.01.18-.052.505-.103.63-.645-.388-1.444-.822-2.29-1.142-.04-.315-.128-.552-.128-.552zM40.792 31.869c.666.268 1.727.857 2.193 1.187-.046.186-.154.454-.226.594-.548-.413-1.429-.97-2.013-1.255.046-.222.046-.526.046-.526z"/>
        <path fill="#00A6D9" d="M40.68 32.69c.876.485 1.593 1.063 1.906 1.296-.103.18-.241.397-.364.547-.42-.429-1.434-1.152-1.716-1.327.092-.253.174-.516.174-.516z"/>
        <path fill="#003068" d="M40.383 33.459c.866.64 1.342 1.12 1.593 1.357-.112.14-.389.419-.481.48-.323-.402-1.086-1.115-1.414-1.357.143-.191.302-.48.302-.48z"/>
        <path fill="#427935" d="M39.907 34.178c.42.382 1.086 1.13 1.296 1.399-.18.16-.425.34-.553.413-.344-.512-1.005-1.255-1.127-1.39.179-.175.384-.422.384-.422zM39.287 34.818c.466.547.83 1.125 1.02 1.399-.185.129-.39.247-.62.36-.277-.53-.651-1.114-.851-1.393.225-.165.45-.366.45-.366zM38.564 35.39c.282.438.676 1.192.733 1.357-.2.093-.461.186-.656.258-.194-.5-.44-1.094-.574-1.316.185-.093.497-.3.497-.3z"/>
        <path fill="#00A6D9" d="M37.766 35.823c.205.49.425 1.1.481 1.306-.184.067-.471.155-.707.196-.107-.547-.235-1.027-.317-1.27.246-.082.543-.232.543-.232z"/>
        <path fill="#427935" d="M36.925 36.164c.082.356.21 1.011.226 1.228-.17.026-.451.067-.707.067-.005-.475-.046-.929-.072-1.14.267-.057.553-.155.553-.155z"/>
        <path fill="#00A6D9" d="M36.08 36.375c.01.279.005.764-.026 1.1-.23-.005-.64-.036-.702-.041.108-.501.15-.837.175-1.018.22 0 .553-.04.553-.04z"/>
        <path fill="#003068" d="M35.229 36.413c-.072.398-.174.847-.215.965-.215-.046-.43-.093-.63-.16.159-.366.322-.846.322-.846.241.03.523.041.523.041z"/>
        <path fill="#980D31" d="M33.165 37.182c.194.129.41.273.61.372-.18.314-.436.681-.574.841-.195-.119-.533-.382-.656-.516.282-.279.62-.697.62-.697z"/>
        <path fill="#003068" d="M34.836 37.956c-.15.48-.41 1.058-.41 1.058s-.523-.207-.769-.372c.23-.403.477-.919.477-.919.322.14.702.233.702.233z"/>
        <path fill="#427935" d="M35.245 38.044c.18.042.502.088.733.114-.036.402-.154 1.079-.205 1.275-.282-.052-.682-.17-.881-.243.122-.32.353-1.146.353-1.146z"/>
        <path fill="#00A6D9" d="M36.439 38.183c.292.01.512-.005.758-.031.026.356.015 1.275 0 1.46-.225.006-.65-.035-.912-.082.098-.428.154-1.347.154-1.347z"/>
        <path fill="#427935" d="M37.668 38.105c.246-.03.517-.077.779-.124.082.382.21 1.28.24 1.627-.225.025-.68.051-.937.046.01-.46-.082-1.549-.082-1.549z"/>
        <path fill="#003068" d="M39.677 37.662c.26.708.496 1.745.496 1.745s-.614.109-.937.15c-.107-.795-.328-1.673-.328-1.673.39-.093.769-.222.769-.222z"/>
        <path fill="#00A6D9" d="M40.102 37.492c.24-.098.573-.258.727-.346.307.573.65 1.42.81 1.869-.344.14-.815.258-.923.279-.225-.852-.614-1.802-.614-1.802zM41.915 36.526c.348.521.82 1.358 1.09 1.884-.291.196-.604.32-.84.413-.322-.82-.809-1.652-.932-1.879.287-.15.682-.418.682-.418z"/>
        <path fill="#427935" d="M42.873 35.782c.554.671 1.25 1.647 1.41 1.91-.19.165-.62.408-.785.49-.389-.748-.988-1.63-1.214-1.915.282-.217.59-.485.59-.485zM43.651 34.895c.779.758 1.573 1.672 1.752 1.905-.19.2-.574.521-.681.583-.497-.754-1.302-1.662-1.542-1.92.24-.254.471-.569.471-.569zM44.22 33.914c.58.428 1.517 1.24 2.106 1.838-.16.263-.502.635-.569.681-.517-.63-1.342-1.42-1.88-1.868.2-.32.343-.651.343-.651z"/>
        <path fill="#003068" d="M46.371 38.09c.441.615 1.286 2.024 1.527 2.52-.302.212-.902.516-1.04.589-.558-1.286-1.286-2.52-1.286-2.52.425-.263.8-.588.8-.588z"/>
        <path fill="#427935" d="M46.807 43.13c.389 1.177.676 2.421.799 3.082-.584.17-1.317.304-1.512.346-.117-1.033-.45-2.597-.558-3.01.461-.124 1.27-.418 1.27-.418z"/>
        <path fill="#00A6D9" d="M45.286 48.576c.02 1.347-.072 2.829-.143 3.428-.62.02-1.578-.057-1.921-.088.287-1.508.4-3.3.4-3.3.783.016 1.664-.04 1.664-.04z"/>
        <path fill="#003068" d="M39.6 53.2c.604.212 1.403.393 1.987.522-.405 1.404-1.153 3.144-1.347 3.48-.876-.233-1.855-.584-2.198-.744.702-1.156 1.557-3.258 1.557-3.258zM33.452 56.479c.86.568 1.235.764 2.11 1.26-1.24 1.6-2.422 2.751-2.73 3.056-.891-.511-1.823-1.229-2.233-1.6 1.342-1.064 2.853-2.716 2.853-2.716zM25.337 57.336c.436.635 1.465 1.735 1.942 2.2-1.132.706-3.33 1.775-4.324 2.126-.702-.79-1.588-2.101-1.941-2.622 2.669-.811 4.323-1.704 4.323-1.704zM8.821 48.891c2.449.377 4.222.496 5.369.553.113.686.676 2.839.886 3.464-1.47.124-4.605.046-5.635-.098-.41-1.756-.62-3.919-.62-3.919zM1.404 32.261C3.57 33.48 5.548 34.533 6.67 35.07c-.272 1.053-.758 3.48-.825 4.156C3.791 38.456.615 37 0 36.71c.548-2.132 1.404-4.45 1.404-4.45z"/>
        <path fill="#980D31" d="M4.303 25.544c1.614 1.219 3.586 2.55 4.37 3.124-.451 1.1-1.163 3.345-1.368 4.027-1.931-1.028-4.478-2.597-4.964-2.892.922-2.23 1.962-4.259 1.962-4.259z"/>
        <path fill="#D39200" d="M8.1 19.344c1.178 1.136 2.638 2.597 3.467 3.35-.512.79-1.583 3.015-1.92 3.743-.933-.655-3.156-2.498-4.043-3.206 1.02-1.776 2.495-3.887 2.495-3.887z"/>
        <path fill="#980D31" d="M12.74 13.789c.948 1.3 1.962 2.71 2.515 3.422-.62.744-2.003 2.737-2.448 3.439-1.004-1.033-3.11-3.428-3.11-3.428 1.506-1.87 3.043-3.434 3.043-3.434z"/>
        <path fill="#D7A700" d="M18.196 9.024c.466 1.058 1.168 2.55 1.521 3.32-.86.805-2.474 2.545-2.95 3.045-.512-.748-1.747-2.793-2.152-3.417 1.47-1.348 3.581-2.948 3.581-2.948z"/>
        <path fill="#F5A200" d="M24.4 5.193c.235 1.213.481 2.757.543 3.067-1.353.862-2.997 2.204-3.433 2.524-.44-1.192-1.158-3.242-1.158-3.242C22.151 6.375 24.4 5.193 24.4 5.193zM25.2 10c.194 1.095.338 1.968.496 2.825-.958.872-2.203 2.215-2.55 2.612-.313-.872-.902-2.576-.995-2.865C23.581 11.24 25.2 10 25.2 10z"/>
        <path fill="#FABD00" d="M25.994 14.425s.307 1.6.47 2.535c-.701.862-1.603 2.117-1.91 2.597-.435-1.115-.86-2.499-.86-2.499.799-1.084 2.3-2.633 2.3-2.633z"/>
        <path fill="#F5A200" d="M26.747 18.344c.117.614.404 2.044.46 2.26-.378.59-1.234 2.123-1.393 2.453-.358-.862-.768-2.127-.768-2.127.471-.847 1.7-2.586 1.7-2.586z"/>
        <path fill="#D39200" d="M24.174 22.441c.318.79.81 1.813.943 2.065-.405.981-.85 2.174-1.01 2.55-.563-.727-1.168-1.656-1.25-1.863.677-1.564 1.112-2.463 1.317-2.752z"/>
        <path fill="#D7A700" d="M25.655 25.577c.267.568.717 1.404.86 1.647-.132.397-.486 1.584-.614 2.271-.522-.63-.973-1.3-1.101-1.482.328-1.125.855-2.436.855-2.436z"/>
        <path fill="#FABD00" d="M24.436 29.422c.246.32.963 1.084 1.204 1.337-.103.485-.252 1.657-.272 2.117-.522-.346-1.199-.899-1.373-1.048.103-1.08.44-2.406.44-2.406z"/>
        <path fill="#D7A700" d="M26.29 31.38c.272.288.82.784 1.03.918-.046.45-.04 1.56-.035 1.786-.564-.273-.948-.552-1.153-.696-.005-.95.159-2.009.159-2.009z"/>
        <path fill="#D39200" d="M28.037 35.301c.313.099.681.212 1.025.248.02.207.287 1.069.368 1.265-.537.041-.922.02-1.085.02-.231-.686-.308-1.533-.308-1.533z"/>
        <path fill="#980D31" d="M30.276 37.382c.241-.056.774-.253.897-.31.036.12.46.666.553.765-.164.123-.64.413-.87.495-.277-.32-.58-.95-.58-.95z"/>
        <path fill="#D7A700" d="M28.596 37.661c.297 0 .937-.098 1.106-.15.057.228.466.982.564 1.116-.302.175-1.112.392-1.112.392-.282-.51-.558-1.358-.558-1.358z"/>
        <path fill="#D39200" d="M32.12 38.256c.164.17.543.495.702.63-.22.278-.605.66-.81.83-.271-.252-.676-.722-.738-.836.303-.19.846-.624.846-.624z"/>
        <path fill="#00A6D9" d="M33.273 39.206c.164.103.522.315.83.47-.18.36-.559.986-.687 1.15-.333-.195-.773-.557-.901-.675.317-.336.758-.945.758-.945z"/>
        <path fill="#003068" d="M34.61 39.912c.24.088.717.248.948.31-.149.5-.395 1.14-.528 1.471-.338-.14-.845-.392-1.055-.516.312-.558.635-1.265.635-1.265zM36.111 40.382c.19.036.758.154.999.18-.072.486-.246 1.415-.348 1.72-.339-.088-.882-.264-1.102-.352.21-.609.451-1.548.451-1.548z"/>
        <path fill="#427935" d="M37.689 40.63c.25.021.86.032 1.035.016.035.537.01 1.446-.067 1.988-.507-.041-1.101-.16-1.204-.186.159-.723.236-1.817.236-1.817z"/>
        <path fill="#003068" d="M39.344 40.647c.23-.01.804-.057 1.04-.099.102.573.19 1.658.184 2.169-.338.015-1.05-.01-1.209-.031.03-.33-.015-2.04-.015-2.04z"/>
        <path fill="#427935" d="M40.982 40.45c.385-.073.81-.166 1.025-.228.22.743.4 1.6.497 2.334-.333.077-1.004.139-1.24.139-.036-.852-.282-2.246-.282-2.246zM42.606 40.062c.282-.093.85-.304.984-.356.338.826.712 2.08.8 2.437-.462.154-.897.232-1.174.284-.154-.899-.61-2.365-.61-2.365z"/>
        <path fill="#00A6D9" d="M44.148 39.47c.231-.114.774-.388.897-.476.338.61.978 1.952 1.178 2.51-.548.247-1.009.397-1.127.433-.256-.888-.948-2.468-.948-2.468z"/>
        <path fill="#003068" d="M30.696 39.23c.113.176.497.677.779.971-.226.207-.871.666-1.107.8-.394-.5-.614-.918-.794-1.223.574-.237 1.122-.547 1.122-.547zM31.982 40.713c.23.222.625.578.943.806-.328.439-.85 1.017-1.04 1.187-.364-.32-.743-.743-1-1.038.451-.32 1.097-.955 1.097-.955z"/>
        <path fill="#00A6D9" d="M33.529 41.925c.302.201.697.454 1.091.645-.297.589-.697 1.224-.932 1.57-.37-.233-.902-.625-1.173-.857.415-.49 1.014-1.358 1.014-1.358zM35.291 42.902c.282.114.825.33 1.194.45-.195.593-.477 1.352-.743 1.93-.481-.201-1.137-.583-1.311-.681.266-.398.86-1.699.86-1.699z"/>
        <path fill="#003068" d="M37.192 43.578c.45.108 1.112.232 1.306.268-.117.702-.435 1.988-.522 2.272-.625-.165-1.255-.413-1.424-.48.369-.92.64-2.06.64-2.06z"/>
        <path fill="#00A6D9" d="M39.25 43.981c.37.052 1.154.124 1.317.119-.01.645-.169 2.184-.25 2.535-.661-.083-1.24-.232-1.481-.29.184-.732.415-2.364.415-2.364zM41.34 44.095c.35.005 1.051-.015 1.338-.062.082.81.097 2.4.082 2.803-.553 0-1.204-.04-1.568-.087.144-.981.149-2.654.149-2.654z"/>
        <path fill="#003068" d="M43.451 43.955c.415-.046 1.07-.16 1.327-.237.205.862.364 2.416.42 2.968-.676.098-1.322.114-1.547.114.02-1.017-.2-2.845-.2-2.845z"/>
        <path fill="#427935" d="M40.972 48.384c.517.082 1.383.16 1.675.18-.118 1.059-.338 2.427-.543 3.227-.636-.082-1.476-.284-1.88-.387.322-.868.748-3.02.748-3.02z"/>
        <path fill="#003068" d="M36.607 52.05c.594.284 1.143.531 1.865.79-.625 1.409-1.168 2.266-1.66 3.06-.691-.278-1.43-.712-2.013-1.073.82-1.043 1.808-2.777 1.808-2.777zM30.44 54.021c.62.615 1.327 1.178 1.865 1.611-.979.986-2.096 1.941-2.956 2.54-.687-.604-1.645-1.595-1.942-1.993 1.03-.516 3.033-2.158 3.033-2.158zM22.74 53.45c.42.8 1.086 1.853 1.552 2.509-1.24.547-3.084 1.172-4.272 1.44-.405-.666-1.235-2.4-1.465-2.932 2.48-.398 4.185-1.017 4.185-1.017zM20.789 49.15c.246.686.84 2.07 1.168 2.766-1.209.33-2.684.625-4.144.775-.37-.909-.784-2.483-1.004-3.211 1.608-.026 3.98-.33 3.98-.33zM8.647 42.628c2.121.578 3.55.934 4.836 1.187.01.94.267 3.056.37 3.604-1.645-.088-4.094-.558-5.206-.775-.123-1.332 0-4.016 0-4.016z"/>
        <path fill="#980D31" d="M9.36 36.345c1.004.464 3.38 1.45 4.205 1.77-.112 1.147-.153 2.773-.153 3.61-1.291-.31-3.71-1.09-4.616-1.39.087-1.223.563-3.99.563-3.99z"/>
        <path fill="#003068" d="M10.963 30.232c.788.558 3.063 1.967 3.483 2.23-.246.97-.543 2.83-.666 3.547-.845-.34-3.191-1.564-3.914-1.92.436-1.936 1.097-3.857 1.097-3.857z"/>
        <path fill="#980D31" d="M13.319 24.399c.83.816 2.264 2.086 2.848 2.623-.394 1.006-.891 2.462-1.168 3.417-1.122-.707-2.515-1.822-3.278-2.375.548-1.476 1.598-3.665 1.598-3.665z"/>
        <path fill="#F5A200" d="M16.546 19.039c.482.681 1.819 2.581 2.024 2.85-.615 1.027-1.337 2.586-1.609 3.165-.517-.486-2.51-2.685-2.51-2.685.835-1.533 2.095-3.33 2.095-3.33z"/>
        <path fill="#FABD00" d="M20.506 14.145c.354.837 1.184 2.726 1.302 2.974-.707.909-1.573 2.127-2.121 2.958-.595-.893-1.43-2.297-1.798-2.886 1.06-1.373 2.617-3.046 2.617-3.046z"/>
        <path fill="#D7A700" d="M22.474 18.648c.323.79.876 1.993 1.106 2.504-.568.904-1.147 2.05-1.49 2.809-.574-.862-1.215-1.926-1.496-2.365.855-1.492 1.88-2.948 1.88-2.948zM19.677 23.336c.512.723 1.311 1.786 1.685 2.25-.338.817-.81 2.205-1.03 2.923-.563-.547-1.593-1.61-2.049-2.065.487-1.26 1.394-3.108 1.394-3.108z"/>
        <path fill="#980D31" d="M22.258 26.769c.425.547 1.035 1.327 1.41 1.755-.165.635-.457 1.859-.58 2.55-.681-.531-1.286-1.146-1.675-1.517.359-1.4.845-2.788.845-2.788zM23.821 33.217c.471.3 1.132.717 1.527.934-.031.558.01 1.41.087 2.106-.671-.216-1.184-.423-1.686-.624-.025-.899.072-2.416.072-2.416z"/>
        <path fill="#F5A200" d="M26.105 34.543c.42.212.82.387 1.27.537.057.645.19 1.327.267 1.678-.527-.062-1.04-.18-1.362-.269-.087-.547-.175-1.946-.175-1.946z"/>
        <path fill="#980D31" d="M26.485 37.58c.436.067 1.117.114 1.394.103.061.33.363 1.126.532 1.508-.425.113-1.152.19-1.45.216-.178-.547-.476-1.827-.476-1.827z"/>
        <path fill="#00A6D9" d="M28.82 40.036c.154.35.636 1.135.795 1.383-.354.207-1.189.542-1.532.671-.21-.402-.6-1.29-.773-1.683.379-.025 1.51-.371 1.51-.371z"/>
        <path fill="#D39200" d="M30.127 42.183c.297.382.681.862 1.024 1.203-.368.351-1.132.914-1.506 1.13-.317-.407-.768-1.094-1.019-1.496.855-.372 1.501-.837 1.501-.837z"/>
        <path fill="#980D31" d="M31.808 44.028c.384.35.845.759 1.23 1.032-.344.475-1.154 1.337-1.446 1.642-.389-.346-1.075-1.058-1.306-1.337.769-.553 1.522-1.337 1.522-1.337z"/>
        <path fill="#003068" d="M33.78 45.632c.317.186.963.604 1.383.816-.287.557-.994 1.672-1.296 2.07-.497-.33-.999-.728-1.475-1.115.768-.816 1.388-1.77 1.388-1.77z"/>
        <path fill="#00A6D9" d="M35.998 46.882c.548.247 1.147.474 1.541.624-.22.61-.86 2.008-1.132 2.525-.522-.253-1.224-.625-1.65-.899.564-.826 1.24-2.25 1.24-2.25z"/>
        <path fill="#003068" d="M38.425 47.82c.559.171 1.122.326 1.594.414-.19.795-.508 1.987-.835 2.86-.564-.15-1.245-.418-1.773-.63.436-.955 1.014-2.643 1.014-2.643zM33.852 50.44c.507.346 1.209.774 1.706 1.063-.42.723-1.48 2.169-1.89 2.633-.636-.408-1.394-.99-1.82-1.414 1.066-1.038 2.004-2.282 2.004-2.282zM27.832 51.168c.39.521 1.168 1.445 1.588 1.863-.988.754-2.433 1.637-3.027 1.916-.461-.547-1.27-1.73-1.568-2.251 1.624-.682 3.007-1.528 3.007-1.528z"/>
        <path fill="#980D31" d="M25.712 47.878c.332.61.952 1.616 1.296 2.127-.948.511-2.27 1.038-2.997 1.29-.518-.903-.994-1.935-1.23-2.508 1.614-.403 2.93-.909 2.93-.909zM15.876 44.248c1.122.15 2.48.29 3.647.336.144.753.497 2.21.728 2.927-1.21.088-2.854.108-3.863.067-.348-1.637-.512-3.33-.512-3.33z"/>
        <path fill="#003068" d="M15.681 38.86c.887.294 2.28.712 3.269.976.005 1.042.184 2.287.292 2.999-1.301-.093-2.818-.423-3.54-.573-.102-1.652-.02-3.402-.02-3.402z"/>
        <path fill="#980D31" d="M16.26 33.527c.773.439 1.598.903 2.786 1.497-.102.759-.164 2.204-.169 3.036-1.086-.362-2.408-.873-3.068-1.147.087-1.12.45-3.386.45-3.386z"/>
        <path fill="#D39200" d="M17.602 28.318c.773.665 1.767 1.517 2.264 1.935-.282 1.1-.471 2.293-.615 3.01-.85-.506-1.89-1.187-2.592-1.667.349-1.549.943-3.278.943-3.278z"/>
        <path fill="#F5A200" d="M21.008 31.171c.625.511 1.132.878 1.88 1.404-.133.93-.19 1.875-.21 2.572-.666-.336-1.48-.76-2.09-1.095.113-1.1.42-2.88.42-2.88z"/>
        <path fill="#00A6D9" d="M23.836 36.98c.523.175 1.301.36 1.747.443.061.475.256 1.477.43 1.993-.574.01-1.347-.062-1.88-.124-.2-1.027-.297-2.313-.297-2.313z"/>
        <path fill="#980D31" d="M24.395 40.61c.625.005 1.352-.01 1.951-.067.18.527.533 1.404.738 1.864-.502.15-1.475.356-2.039.428-.292-.81-.65-2.225-.65-2.225zM27.597 43.47c.261.475.717 1.27 1.014 1.688-.522.336-1.67.816-2.09.981-.405-.733-.768-1.553-.994-2.05.666-.108 2.07-.619 2.07-.619z"/>
        <path fill="#00A6D9" d="M29.308 46.102c.348.464.952 1.172 1.296 1.518-.564.485-1.675 1.275-2.137 1.559-.435-.568-.901-1.26-1.306-1.895 1.014-.46 2.147-1.182 2.147-1.182z"/>
        <path fill="#980D31" d="M31.403 48.463c.584.532 1.03.929 1.516 1.295-.61.739-1.542 1.632-2.07 2.091-.712-.666-1.132-1.192-1.537-1.646 1.2-.889 2.09-1.74 2.09-1.74z"/>
        <path fill="#003068" d="M21.372 44.584c1.153-.041 2.1-.14 2.761-.237.287.764.656 1.703.943 2.261-.666.227-2.044.522-2.869.65-.317-.846-.835-2.674-.835-2.674z"/>
        <path fill="#D39200" d="M20.583 40.17c.927.18 1.962.32 2.551.367.103.728.359 1.672.574 2.431-.938.052-2.018.052-2.705.02-.24-1.063-.42-2.818-.42-2.818z"/>
        <path fill="#D7A700" d="M20.486 35.705c.687.31 1.594.676 2.203.903.01.739.108 1.76.205 2.494-.978-.17-1.721-.356-2.402-.558-.077-1.079-.006-2.84-.006-2.84z"/>
        <path fill="#003068" d="M65.828 28.647c0 2.292-1.742 3.366-3.223 3.366h-3.99V25.25h3.99c1.48 0 3.223 1.038 3.223 3.397zm3.662 0c0-4.197-3.427-6.763-6.705-6.763h-7.869v20.764h3.694V35.38h4.17c3.427 0 6.71-2.777 6.71-6.732zM73.138 35.167l6.5-13.289h-3.78l-6.854 14.064v2.53h8.632v-3.305h-4.498zm10.02-4.569h-3.606v12.045h3.606V30.598zM85.3 32.283C85.3 38.478 90.177 43 96.237 43c3.458 0 6.501-1.517 8.427-3.898V30.6h-9.226v3.32h5.737v3.928c-1.27 1.136-2.986 1.786-4.938 1.786-4.134 0-7.27-3.123-7.27-7.356 0-4.203 3.136-7.388 7.27-7.388 2.039 0 3.873.717 5.2 2.023l2.453-2.266c-1.982-1.998-4.646-3.123-7.658-3.123-6.05 0-10.932 4.558-10.932 10.759zM54.563 57.538c.61.315 1.583.64 2.566.64 1.06 0 1.63-.439 1.63-1.115 0-.64-.487-1.012-1.717-1.435-1.7-.61-2.828-1.56-2.828-3.062 0-1.76 1.476-3.087 3.879-3.087 1.167 0 2.002.227 2.612.522l-.517 1.863c-.395-.196-1.143-.49-2.131-.49-1.005 0-1.486.475-1.486.996 0 .66.564.95 1.9 1.456 1.809.676 2.644 1.621 2.644 3.077 0 1.735-1.306 3.2-4.119 3.2-1.168 0-2.32-.32-2.9-.645l.467-1.92zM69.819 57.538c0 .976.03 1.771.061 2.4h-2.008l-.108-1.052h-.046c-.287.454-.983 1.223-2.32 1.223-1.517 0-2.613-.95-2.613-3.263v-4.393h2.31v4.032c0 1.09.354 1.74 1.174 1.74.64 0 1.014-.439 1.152-.81.062-.135.092-.3.092-.507v-4.455h2.31v5.085h-.004zM71.873 54.843c0-.935-.03-1.714-.062-2.39h1.957l.093 1.017h.05c.319-.496.984-1.198 2.245-1.198.973 0 1.716.506 2.033 1.29h.031c.287-.397.605-.707.968-.924.41-.227.866-.366 1.41-.366 1.428 0 2.504 1.012 2.504 3.263v4.409h-2.249V55.87c0-1.084-.348-1.709-1.09-1.709-.554 0-.913.372-1.082.81-.046.166-.077.399-.077.595v4.378h-2.248v-4.208c0-.93-.334-1.575-1.076-1.575-.59 0-.943.46-1.076.826-.077.186-.092.398-.092.594v4.363h-2.244v-5.101h.005zM85.141 54.843c0-.935-.03-1.714-.06-2.39h1.956l.092 1.017h.046c.323-.496.989-1.198 2.254-1.198.969 0 1.716.506 2.034 1.29h.03c.288-.397.605-.707.974-.924.41-.227.866-.366 1.414-.366 1.43 0 2.505 1.012 2.505 3.263v4.409h-2.249V55.87c0-1.084-.348-1.709-1.091-1.709-.548 0-.912.372-1.08.81-.047.166-.073.399-.073.595v4.378h-2.249v-4.208c0-.93-.333-1.575-1.075-1.575-.594 0-.943.46-1.076.826-.077.186-.092.398-.092.594v4.363h-2.244v-5.101h-.016zM100.791 50.371c0 .64-.471 1.162-1.245 1.162-.727 0-1.198-.521-1.198-1.162 0-.66.491-1.166 1.234-1.166.738 0 1.189.506 1.209 1.166zm-2.387 2.076h2.31v7.486h-2.31v-7.486zM105.345 50.434v2.014h1.654v1.72h-1.654v2.71c0 .903.225 1.31.912 1.31.317 0 .471-.015.686-.061l.015 1.76c-.292.104-.85.197-1.49.197-.743 0-1.368-.259-1.747-.646-.425-.444-.64-1.161-.64-2.22v-3.056h-.989v-1.72h.989V51.06l2.264-.624zM32.273 79.712c.78.412 2.024.82 3.284.82 1.358 0 2.08-.562 2.08-1.43 0-.82-.625-1.29-2.193-1.838-2.177-.78-3.616-1.992-3.616-3.913 0-2.25 1.885-3.954 4.954-3.954 1.495 0 2.56.294 3.34.665l-.661 2.386c-.502-.253-1.455-.625-2.72-.625-1.281 0-1.906.61-1.906 1.275 0 .837.722 1.213 2.428 1.859 2.31.862 3.381 2.08 3.381 3.939 0 2.21-1.67 4.089-5.266 4.089-1.496 0-2.971-.413-3.71-.821l.605-2.453zM45.23 78.947c.077 1.239 1.3 1.822 2.679 1.822 1.014 0 1.829-.14 2.623-.413l.39 2.014c-.974.407-2.158.609-3.438.609-3.223 0-5.072-1.88-5.072-4.874 0-2.431 1.496-5.11 4.8-5.11 3.069 0 4.237 2.405 4.237 4.775 0 .505-.057.96-.098 1.177H45.23zm3.478-2.034c0-.728-.313-1.942-1.67-1.942-1.245 0-1.747 1.157-1.829 1.942h3.499zM62.852 77.89c0 3.505-2.464 5.11-5.01 5.11-2.772 0-4.913-1.843-4.913-4.935 0-3.108 2.018-5.09 5.087-5.09 2.894.005 4.836 2.023 4.836 4.914zm-6.875.103c0 1.641.681 2.875 1.946 2.875 1.163 0 1.88-1.156 1.88-2.896 0-1.415-.542-2.86-1.88-2.86-1.403 0-1.946 1.471-1.946 2.88zM73.886 79.711c0 1.25.041 2.272.077 3.072h-2.561l-.139-1.348h-.056c-.374.589-1.265 1.565-2.971 1.565-1.947 0-3.34-1.213-3.34-4.167v-5.617h2.955v5.148c0 1.388.446 2.23 1.496 2.23.815 0 1.296-.563 1.476-1.038.076-.175.112-.387.112-.64v-5.7h2.956v6.495h-.005zM79.465 68.891h-2.95v13.893h2.95V68.89zM54.968 14.29v-1.93l1.752-1.595c2.96-2.67 4.4-4.203 4.441-5.798 0-1.115-.666-1.998-2.228-1.998-1.168 0-2.188.589-2.9 1.136l-.896-2.292c1.02-.78 2.607-1.41 4.441-1.41 3.064 0 4.754 1.807 4.754 4.285 0 2.293-1.644 4.12-3.606 5.88l-1.25 1.049v.041h5.107v2.628h-9.615v.005zM76.714 7.399c0 4.223-1.69 7.125-5.148 7.125-3.505 0-5.047-3.176-5.067-7.037 0-3.95 1.67-7.078 5.169-7.078 3.627-.005 5.046 3.252 5.046 6.99zm-7.029.088c-.02 3.128.728 4.62 1.962 4.62 1.235 0 1.896-1.554 1.896-4.662 0-3.025-.646-4.62-1.916-4.62-1.168-.005-1.962 1.487-1.942 4.662zM78.44 14.29v-1.93l1.752-1.595c2.961-2.67 4.4-4.203 4.442-5.798 0-1.115-.666-1.998-2.228-1.998-1.169 0-2.188.589-2.9 1.136l-.897-2.292c1.02-.78 2.608-1.41 4.442-1.41 3.063 0 4.754 1.807 4.754 4.285 0 2.293-1.645 4.12-3.607 5.88l-1.25 1.049v.041h5.108v2.628H78.44v.005zM94.224 3.47h-.041l-2.587 1.24-.523-2.396L94.66.631h2.628v13.655h-3.063V3.471z"/>
    </g>
    <defs>
        <clipPath id="clip0">
            <path fill="#fff" d="M0 0H107V83H0z"/>
        </clipPath>
    </defs>
</svg>
