<svg xmlns="http://www.w3.org/2000/svg" width="23" height="22" fill="none" viewBox="0 0 23 22">
    <path fill="#fff" d="M11.923 1.983c2.937 0 3.285.01 4.446.064 2.98.136 4.373 1.55 4.509 4.509.053 1.16.063 1.508.063 4.445 0 2.938-.01 3.285-.063 4.445-.137 2.956-1.525 4.373-4.51 4.509-1.16.053-1.506.064-4.445.064-2.937 0-3.285-.01-4.445-.064-2.988-.137-4.373-1.557-4.509-4.51-.053-1.16-.064-1.507-.064-4.445 0-2.937.012-3.284.064-4.445.137-2.958 1.525-4.373 4.51-4.509 1.16-.052 1.507-.063 4.444-.063zm0-1.983C8.936 0 8.562.013 7.388.066 3.394.249 1.173 2.466.99 6.464.936 7.64.923 8.013.923 11c0 2.987.013 3.362.066 4.536.183 3.995 2.4 6.215 6.398 6.398 1.175.053 1.549.066 4.536.066 2.988 0 3.362-.013 4.536-.066 3.99-.183 6.217-2.4 6.397-6.398.054-1.174.067-1.549.067-4.536 0-2.987-.013-3.361-.066-4.535-.18-3.99-2.399-6.215-6.397-6.398C15.285.013 14.91 0 11.923 0zm0 5.351c-3.12 0-5.648 2.53-5.648 5.649 0 3.12 2.529 5.65 5.648 5.65 3.12 0 5.649-2.53 5.649-5.65 0-3.12-2.53-5.649-5.649-5.649zm0 9.316c-2.025 0-3.667-1.641-3.667-3.667 0-2.025 1.642-3.667 3.667-3.667S15.59 8.975 15.59 11c0 2.026-1.642 3.667-3.667 3.667zm5.872-10.858c-.73 0-1.32.591-1.32 1.32 0 .729.59 1.32 1.32 1.32.729 0 1.32-.591 1.32-1.32 0-.729-.591-1.32-1.32-1.32z"/>
</svg>
