<svg id="instargram" xmlns="http://www.w3.org/2000/svg" width="34" height="34" viewBox="0 0 34 34">
  <circle id="타원_1" data-name="타원 1" cx="16.5" cy="16.5" r="16.5" transform="translate(0.5 0.5)" fill="none" stroke="rgba(204,204,204,0.5)" stroke-width="1" opacity="0"/>
  <path id="패스_1" data-name="패스 1" d="M20.07,9H13.93A4.93,4.93,0,0,0,9,13.93v6.141A4.929,4.929,0,0,0,13.93,25h6.14A4.929,4.929,0,0,0,25,20.071v-6.14A4.93,4.93,0,0,0,20.07,9Zm3.4,10.482a3.984,3.984,0,0,1-3.983,3.983H14.519a3.984,3.984,0,0,1-3.984-3.983V14.519a3.984,3.984,0,0,1,3.984-3.984h4.963a3.985,3.985,0,0,1,3.983,3.983v4.963Z" fill="#fff"/>
  <path id="패스_2" data-name="패스 2" d="M17.214,12.813a4.215,4.215,0,1,0,4.216,4.216,4.214,4.214,0,0,0-4.216-4.216Zm0,6.75a2.536,2.536,0,1,1,2.536-2.536A2.536,2.536,0,0,1,17.214,19.563Zm5-6.816a1.072,1.072,0,1,1-1.074-1.072,1.074,1.074,0,0,1,1.074,1.072Z" fill="#fff"/>
</svg>
