<svg xmlns="http://www.w3.org/2000/svg" width="229" height="17" fill="none" viewBox="0 0 229 17">
    <path fill="#fff" d="M0 16.774V14.87l1.74-1.575c2.944-2.628 4.38-4.139 4.418-5.714 0-1.098-.66-1.97-2.218-1.97-1.165 0-2.18.582-2.886 1.118L.168 4.475c1.016-.761 2.588-1.381 4.418-1.381 3.047 0 4.73 1.782 4.73 4.222 0 2.26-1.637 4.055-3.591 5.798l-1.242 1.033v.039h5.085v2.588H0zM21.276 9.983c0 4.157-1.681 7.017-5.123 7.017-3.487 0-5.02-3.124-5.04-6.934 0-3.893 1.663-6.972 5.144-6.972 3.61 0 5.02 3.202 5.02 6.889zm-6.986.083c-.02 3.087.725 4.552 1.947 4.552 1.223 0 1.89-1.53 1.89-4.597 0-2.982-.641-4.551-1.91-4.551-1.164 0-1.946 1.472-1.927 4.596zM22.648 16.773V14.87l1.74-1.576c2.943-2.627 4.38-4.138 4.418-5.714 0-1.097-.66-1.969-2.219-1.969-1.164 0-2.18.581-2.885 1.117l-.892-2.253c1.015-.768 2.594-1.388 4.418-1.388 3.047 0 4.729 1.782 4.729 4.222 0 2.26-1.637 4.055-3.59 5.798l-1.243 1.033v.039h5.079v2.589h-9.555v.006zM37.992 6.114h-.045l-2.575 1.22-.517-2.363 3.564-1.653h2.613v13.455h-3.046V6.113h.006zM51.39-.581c1.228-.207 2.956-.368 5.388-.368 2.458 0 4.211.471 5.388 1.407 1.126.885 1.883 2.35 1.883 4.074 0 1.724-.576 3.183-1.624 4.177-1.358 1.279-3.37 1.853-5.725 1.853-.524 0-.996-.026-1.358-.077v6.288h-3.946V-.58h-.007zm3.952 7.986c.343.078.757.103 1.332.103 2.122 0 3.429-1.071 3.429-2.873 0-1.62-1.126-2.582-3.112-2.582-.808 0-1.358.077-1.65.155v5.197zM72.762 16.774v-4.048h-7.53v-2.583l6.43-10.336h4.865v9.942h2.038v2.977h-2.038v4.048h-3.765zm0-7.025V5.992c0-1.02.052-2.06.13-3.157h-.104c-.55 1.097-.99 2.085-1.565 3.157l-2.27 3.706v.051h3.81zM95.889 15.96c-1.23.42-3.558.995-5.887.995-3.215 0-5.544-.807-7.167-2.376-1.617-1.517-2.51-3.81-2.484-6.392C80.376 2.337 84.639-1 90.423-1c2.277 0 4.03.445 4.89.859l-.834 3.183c-.97-.42-2.174-.756-4.108-.756-3.319 0-5.828 1.879-5.828 5.688 0 3.629 2.27 5.766 5.543 5.766.913 0 1.644-.104 1.96-.259v-3.68H89.33V6.696h6.567v9.264h-.007zM104.59 13.526c.847.433 2.154.872 3.506.872 1.449 0 2.219-.6 2.219-1.511 0-.872-.66-1.369-2.342-1.97-2.323-.806-3.836-2.091-3.836-4.118 0-2.383 1.992-4.203 5.291-4.203 1.579 0 2.737.329 3.565.703l-.705 2.544c-.557-.271-1.553-.658-2.924-.658-1.372 0-2.032.62-2.032 1.343 0 .89.79 1.284 2.594 1.969 2.472.91 3.629 2.195 3.629 4.158 0 2.337-1.804 4.325-5.64 4.325-1.598 0-3.17-.413-3.959-.846l.634-2.608zM117.968 12.713c.103 1.304 1.39 1.924 2.865 1.924 1.081 0 1.947-.142 2.801-.413l.414 2.13c-1.035.413-2.303.62-3.674.62-3.442 0-5.415-1.989-5.415-5.152 0-2.57 1.598-5.404 5.124-5.404 3.28 0 4.522 2.544 4.522 5.049 0 .536-.065 1.013-.104 1.24h-6.533v.006zm3.713-2.15c0-.768-.33-2.047-1.786-2.047-1.326 0-1.869 1.201-1.947 2.047h3.733zM136.32 11.595c0 3.706-2.633 5.404-5.35 5.404-2.969 0-5.246-1.943-5.246-5.216 0-3.274 2.154-5.36 5.414-5.36 3.112 0 5.182 2.131 5.182 5.172zm-7.342.104c0 1.736.724 3.04 2.076 3.04 1.223 0 2.012-1.22 2.012-3.04 0-1.511-.582-3.041-2.012-3.041-1.514 0-2.076 1.556-2.076 3.04zM159.711 13.526c.848.433 2.154.872 3.506.872 1.449 0 2.219-.6 2.219-1.511 0-.872-.66-1.369-2.342-1.97-2.322-.806-3.836-2.091-3.836-4.118 0-2.383 1.993-4.203 5.292-4.203 1.578 0 2.736.329 3.564.703l-.705 2.544c-.563-.271-1.552-.658-2.924-.658-1.371 0-2.031.62-2.031 1.343 0 .89.789 1.284 2.594 1.969 2.471.91 3.629 2.195 3.629 4.158 0 2.337-1.805 4.325-5.641 4.325-1.598 0-3.17-.413-3.959-.846l.634-2.608zM220.972 3.835c0 .872-.666 1.575-1.701 1.575-.996 0-1.656-.703-1.637-1.575-.019-.91.641-1.595 1.656-1.595 1.016 0 1.663.685 1.682 1.595zm-3.254 12.938V6.65h3.157v10.123h-3.157zM229 8.969V6.65h-2.258V5.289h-.006s.013-1.505-3.079-1.505v-.032V6.65h-1.346v2.318h1.346v4.138c0 1.427.291 2.402.873 3.002.498.517 1.345.872 2.361.872.893 0 1.637-.104 2.057-.271l-.019-2.383c-.227.039-.537.084-.932.084-.951 0-1.242-.561-1.242-1.782V8.97H229zM153.139 3.629s.013-1.543-3.15-1.543v14.681h3.157l-.007-13.138zM180.076 8.22s.013-1.55-3.177-1.55v6.005c0 .245-.019.497-.103.684-.207.497-.705 1.098-1.579 1.098-1.099 0-1.578-.891-1.578-2.363V8.155c-.032-.277-.349-1.49-3.17-1.49v5.92c0 3.124 1.514 4.409 3.565 4.409 1.824 0 2.781-1.033 3.176-1.66h.065l.142 1.428h2.736c-.045-.846-.084-1.924-.084-3.248V8.22h.007zM147.647 8.22s.013-1.55-3.176-1.55v6.005c0 .245-.02.497-.104.684-.207.497-.705 1.098-1.578 1.098-1.1 0-1.579-.891-1.579-2.363V8.155c-.032-.277-.349-1.49-3.169-1.49v5.92c0 3.124 1.513 4.409 3.564 4.409 1.824 0 2.782-1.033 3.176-1.66h.065l.142 1.428h2.737c-.046-.846-.085-1.924-.085-3.248V8.22h.007zM211.974 6.424c-.751 0-1.372.168-1.928.497-.479.29-.932.704-1.307 1.22h-.039c-.433-1.052-1.475-1.717-2.781-1.717-1.74 0-2.633.955-3.067 1.595h-.064V8.006l-.007-.065c-.039-.278-.349-1.272-2.788-1.272.045.891.084 1.956.084 3.215v6.896h3.073v-5.901c0-.252.019-.536.123-.788.188-.517.666-1.136 1.475-1.136.996 0 1.455.871 1.455 2.15v5.675h3.067v-5.92c0-.246.038-.582.123-.808.207-.6.724-1.097 1.455-1.097 1.016 0 1.494.845 1.494 2.318v5.507h3.073v-5.96c-.019-3.034-1.494-4.396-3.441-4.396zM194.327 6.424c-.751 0-1.372.168-1.928.497-.479.29-.931.704-1.307 1.22h-.039c-.433-1.052-1.474-1.717-2.781-1.717-1.74 0-2.633.955-3.066 1.595h-.065V8.006l-.007-.065c-.038-.278-.349-1.272-2.794-1.272.045.891.084 1.956.084 3.215v6.896h3.073v-5.901c0-.252.019-.536.123-.788.187-.517.666-1.136 1.475-1.136.996 0 1.455.871 1.455 2.15v5.675h3.066v-5.92c0-.246.039-.582.123-.808.207-.6.725-1.097 1.456-1.097 1.015 0 1.494.845 1.494 2.318v5.507h3.066v-5.96c-.006-3.034-1.481-4.396-3.428-4.396z"/>
</svg>
