<svg xmlns="http://www.w3.org/2000/svg" width="16" height="19.999" viewBox="0 0 16 19.999">
  <g id="p4g" transform="translate(-8 -7)">
    <path id="패스_4" data-name="패스 4" d="M24,7s-1.006.005-1.86.072a5.6,5.6,0,0,0-.67.526s.99-.188,1.614-.253A6.193,6.193,0,0,1,24,7Zm-2.9.188s-1.124.164-1.7.324c-.125.3-.3.766-.3.766s1.1-.364,1.485-.454a3.806,3.806,0,0,1,.522-.636ZM18.962,8.745s.815-.365,1.328-.52c-.168.3-.284.513-.37.706-.155.067-.982.509-1.163.62.1-.424.2-.806.2-.806Zm-1.8,2.456s.424-.393.913-.767c-.023.25-.052.8-.052.8s-.393.365-.779.78l-.082-.817Zm-.11-1.4.065.887s.748-.586,1.008-.737c0-.2.1-.84.1-.84s-.742.392-1.17.69ZM16.96,8.31l.048.947s1.006-.544,1.3-.646c.034-.127.147-.722.18-.852a15.956,15.956,0,0,0-1.528.55ZM19.987,16.6a5.891,5.891,0,0,1,.918.072c.07.087.124.159.124.159a8.726,8.726,0,0,0-.868-.116A1.908,1.908,0,0,0,19.987,16.6Zm.262.189a5.753,5.753,0,0,1,.828.13,1.16,1.16,0,0,1,.073.161,7.477,7.477,0,0,0-.778-.165c-.043-.047-.123-.126-.123-.126Zm.174.2a7,7,0,0,1,.748.187.73.73,0,0,1,.022.16,4.6,4.6,0,0,0-.695-.215c-.033-.065-.075-.132-.075-.132Zm.109.208a3.344,3.344,0,0,1,.658.23.663.663,0,0,1-.024.15,3.412,3.412,0,0,0-.6-.255.611.611,0,0,0-.034-.129Zm.041.2a3.1,3.1,0,0,1,.57.264.78.78,0,0,1-.06.142,3.737,3.737,0,0,0-.517-.28.374.374,0,0,0,.007-.127Zm-.013.195a3.668,3.668,0,0,1,.48.29,1,1,0,0,1-.095.132,3.332,3.332,0,0,0-.418-.3.981.981,0,0,0,.032-.122Zm-.062.186a2.723,2.723,0,0,1,.393.307.811.811,0,0,1-.125.122,2.157,2.157,0,0,0-.331-.315.864.864,0,0,0,.063-.114Zm-.1.173a2.364,2.364,0,0,1,.3.314c-.051.04-.132.1-.132.1a2.61,2.61,0,0,0-.244-.314.967.967,0,0,0,.079-.1Zm-.126.154a2.506,2.506,0,0,1,.212.315,1.239,1.239,0,0,1-.152.083c-.048-.108-.1-.207-.155-.31l.095-.088Zm-.152.129a2.557,2.557,0,0,1,.13.305,1.17,1.17,0,0,1-.16.056c-.028-.125-.069-.26-.08-.294a1.077,1.077,0,0,0,.112-.07Zm-.166.1c.033.136.048.23.059.288-.055.013-.135.028-.158.032,0-.117-.006-.216-.008-.273.051-.019.107-.047.107-.047Zm1.6-1.268a6.361,6.361,0,0,1,.84.345.859.859,0,0,1-.034.2,4.843,4.843,0,0,0-.763-.37.915.915,0,0,0-.043-.18Zm.044.282a4.569,4.569,0,0,1,.731.385.96.96,0,0,1-.075.192,4.88,4.88,0,0,0-.671-.407,1.013,1.013,0,0,0,.017-.176Zm-.037.266a5.346,5.346,0,0,1,.635.42,1.355,1.355,0,0,1-.121.178,4.293,4.293,0,0,0-.572-.43c.035-.089.063-.177.063-.177Zm-.1.249a5.015,5.015,0,0,1,.53.44,1.15,1.15,0,0,1-.16.156,3.586,3.586,0,0,0-.471-.44,1.484,1.484,0,0,0,.1-.156Zm-.159.233a5.157,5.157,0,0,1,.432.454,1.358,1.358,0,0,1-.185.134,4.887,4.887,0,0,0-.375-.45c.066-.064.134-.144.134-.144Zm-.207.208a5,5,0,0,1,.34.454,1.659,1.659,0,0,1-.207.117,4.251,4.251,0,0,0-.283-.452c.075-.054.15-.12.15-.12Zm-.241.186a3.451,3.451,0,0,1,.244.44c-.066.03-.153.06-.218.084a3.752,3.752,0,0,0-.192-.427,1.85,1.85,0,0,0,.166-.1Zm-.266.141c.068.158.141.356.16.423a1.6,1.6,0,0,1-.236.064,3.451,3.451,0,0,0-.1-.412,1.716,1.716,0,0,0,.18-.076Zm-.28.11a4,4,0,0,1,.075.4,1.6,1.6,0,0,1-.236.022,3.564,3.564,0,0,0-.024-.37,1.774,1.774,0,0,0,.184-.05Zm-.282.068a3.394,3.394,0,0,1-.009.357c-.077,0-.213-.012-.234-.013.036-.163.05-.272.058-.33.08-.006.191-.018.191-.018Zm-.284.012a3.085,3.085,0,0,1-.072.313,2.014,2.014,0,0,1-.21-.052c.053-.119.108-.274.108-.274l.18.007Zm-.688.25a1.928,1.928,0,0,0,.2.12,2.027,2.027,0,0,1-.192.273,1.4,1.4,0,0,1-.218-.167c.094-.09.207-.226.207-.226Zm.556.25a3.615,3.615,0,0,1-.136.344,1.89,1.89,0,0,1-.256-.12c.076-.131.158-.3.158-.3a1.7,1.7,0,0,0,.234.076Zm.137.03c.06.013.168.028.244.036a3.487,3.487,0,0,1-.068.414,2.407,2.407,0,0,1-.294-.079c.041-.1.118-.372.118-.372Zm.4.044a1.568,1.568,0,0,0,.253-.01c.009.116,0,.414,0,.474a1.951,1.951,0,0,1-.3-.026,3.916,3.916,0,0,0,.051-.438Zm.41-.024c.082-.01.173-.026.26-.04.027.123.07.414.08.527-.075.008-.227.016-.313.015,0-.15-.027-.5-.027-.5Zm.669-.145a5.314,5.314,0,0,1,.166.566s-.2.036-.312.049c-.036-.258-.11-.543-.11-.543.13-.03.257-.072.257-.072Zm.143-.055c.08-.032.191-.084.242-.112a4.976,4.976,0,0,1,.27.606,2.155,2.155,0,0,1-.307.09,5.45,5.45,0,0,0-.2-.584Zm.6-.313c.116.17.274.44.364.611a1.4,1.4,0,0,1-.28.134,5.635,5.635,0,0,0-.31-.61c.1-.054.234-.141.234-.141Zm.32-.241a7.743,7.743,0,0,1,.47.62,1.688,1.688,0,0,1-.262.158,4.885,4.885,0,0,0-.405-.62c.1-.077.208-.164.208-.164Zm.259-.288a8.062,8.062,0,0,1,.585.618,1.72,1.72,0,0,1-.227.189A5.624,5.624,0,0,0,22.4,18.5a2.236,2.236,0,0,0,.156-.182Zm.19-.318a6.938,6.938,0,0,1,.7.6,1.151,1.151,0,0,1-.19.22,5.429,5.429,0,0,0-.626-.6A1.9,1.9,0,0,0,22.746,18Zm.718,1.354a8.929,8.929,0,0,1,.509.818,3.928,3.928,0,0,1-.347.19,8.4,8.4,0,0,0-.429-.817,2.35,2.35,0,0,0,.267-.19ZM23.6,21a8.1,8.1,0,0,1,.266,1c-.195.055-.439.1-.5.111a9.334,9.334,0,0,0-.186-.976c.158-.046.428-.141.428-.141Zm-.5,1.76a9.757,9.757,0,0,1-.047,1.112c-.207.007-.527-.018-.641-.028a9.8,9.8,0,0,0,.133-1.07c.262,0,.555-.014.555-.014Zm-1.9,1.5a6.653,6.653,0,0,0,.663.169,7.285,7.285,0,0,1-.45,1.128,5.944,5.944,0,0,1-.732-.24,9.7,9.7,0,0,0,.52-1.057Zm-2.05,1.063c.287.184.412.248.7.408a10,10,0,0,1-.91.992,4.855,4.855,0,0,1-.745-.52,9.8,9.8,0,0,0,.951-.88Zm-2.7.278a6.534,6.534,0,0,0,.647.713,10.045,10.045,0,0,1-1.442.69,9.331,9.331,0,0,1-.647-.85,8.661,8.661,0,0,0,1.441-.553Zm-5.508-2.74a17.34,17.34,0,0,0,1.79.18,11.355,11.355,0,0,0,.3,1.123,13.145,13.145,0,0,1-1.88-.032,11.358,11.358,0,0,1-.206-1.27ZM8.468,17.464c.723.4,1.382.737,1.756.91-.09.342-.253,1.13-.275,1.349C9.264,19.473,8.2,19,8,18.907c.183-.691.468-1.443.468-1.443Zm.967-2.179c.538.4,1.2.828,1.457,1.013-.15.357-.388,1.085-.456,1.307-.644-.334-1.493-.843-1.655-.938.307-.724.654-1.382.654-1.382ZM10.7,13.274c.394.369.88.843,1.157,1.087-.17.256-.527.978-.64,1.214-.311-.213-1.053-.81-1.348-1.04.34-.576.832-1.26.832-1.26Zm1.549-1.8c.316.421.654.879.838,1.11-.206.24-.668.887-.816,1.115-.335-.335-1.037-1.112-1.037-1.112.5-.606,1.015-1.114,1.015-1.114Zm1.819-1.546c.155.343.39.827.507,1.077-.287.26-.825.825-.984.988-.17-.243-.582-.906-.717-1.109.49-.437,1.194-.956,1.194-.956Zm2.069-1.242c.078.393.16.894.18.994-.45.28-1,.715-1.144.819-.147-.387-.386-1.052-.386-1.052.6-.378,1.35-.761,1.35-.761Zm.266,1.558c.065.355.113.638.166.916-.32.283-.735.719-.85.848-.1-.283-.3-.836-.332-.93.476-.433,1.013-.835,1.013-.835Zm.265,1.435s.1.52.157.823c-.234.28-.535.686-.637.842-.145-.362-.287-.81-.287-.81a10.811,10.811,0,0,1,.767-.854Zm.252,1.272c.038.2.134.663.153.733-.127.19-.412.688-.465.8-.12-.28-.256-.69-.256-.69.157-.274.567-.839.567-.839Zm-.859,1.329c.106.256.27.588.315.67-.135.318-.284.7-.337.827a4.646,4.646,0,0,1-.417-.6,7.014,7.014,0,0,1,.44-.892Zm.494,1.016c.089.185.24.456.287.534a7.561,7.561,0,0,0-.2.737c-.174-.2-.324-.422-.367-.48.11-.365.285-.79.285-.79Zm-.406,1.248c.082.1.32.352.4.434a5.975,5.975,0,0,0-.09.686,5.5,5.5,0,0,1-.458-.34,5.961,5.961,0,0,1,.147-.78Zm.618.634a2.8,2.8,0,0,0,.343.3c-.015.145-.013.5-.012.579a2.661,2.661,0,0,1-.384-.226,4.644,4.644,0,0,1,.053-.654Zm.583,1.273a1.8,1.8,0,0,0,.341.08,3.012,3.012,0,0,0,.123.41,3.522,3.522,0,0,1-.362.007,2.463,2.463,0,0,1-.1-.5Zm.746.675a2.66,2.66,0,0,0,.3-.1,1.7,1.7,0,0,0,.184.247,1.63,1.63,0,0,1-.29.161,1.787,1.787,0,0,1-.193-.308Zm-.56.09a2.159,2.159,0,0,0,.369-.048,2.1,2.1,0,0,0,.188.361,2.339,2.339,0,0,1-.371.128,3.164,3.164,0,0,1-.186-.44Zm1.175.193c.055.055.181.16.234.2a2.215,2.215,0,0,1-.27.27,2.084,2.084,0,0,1-.246-.272c.1-.061.282-.2.282-.2Zm.385.308c.054.034.174.1.276.152a3.352,3.352,0,0,1-.229.374,2.259,2.259,0,0,1-.3-.22c.1-.108.253-.306.253-.306Zm.445.229c.08.029.24.08.316.1-.05.163-.131.37-.176.478a3.733,3.733,0,0,1-.352-.167c.1-.181.212-.41.212-.41Zm.5.153c.063.012.253.05.333.058a4.9,4.9,0,0,1-.116.558,3.821,3.821,0,0,1-.367-.114c.071-.2.151-.5.151-.5Zm.526.08a3.4,3.4,0,0,0,.345,0,3.768,3.768,0,0,1-.022.645,3.7,3.7,0,0,1-.4-.06,5.034,5.034,0,0,0,.078-.586Zm.552,0a2.945,2.945,0,0,0,.347-.032,4.879,4.879,0,0,1,.061.7c-.113,0-.35,0-.4-.01.01-.108,0-.662,0-.662Zm.546-.063c.129-.024.27-.054.342-.074a5.087,5.087,0,0,1,.166.757,2.7,2.7,0,0,1-.414.045,7.06,7.06,0,0,0-.093-.729ZM22.207,20c.094-.03.284-.1.328-.116a7.35,7.35,0,0,1,.266.79,2.824,2.824,0,0,1-.39.093,7.9,7.9,0,0,0-.2-.767Zm.514-.193c.077-.036.258-.125.3-.154a8.2,8.2,0,0,1,.392.814,3.188,3.188,0,0,1-.376.14,8.52,8.52,0,0,0-.315-.8Zm-4.486-.077a2.889,2.889,0,0,0,.26.315,3.146,3.146,0,0,1-.37.26,3.251,3.251,0,0,1-.264-.4,3.927,3.927,0,0,0,.374-.178Zm.429.481a3.125,3.125,0,0,0,.314.261,3.664,3.664,0,0,1-.346.385,3.756,3.756,0,0,1-.334-.336A4.011,4.011,0,0,0,18.664,20.206Zm.515.394a3.364,3.364,0,0,0,.365.209,5.369,5.369,0,0,1-.311.509,4.325,4.325,0,0,1-.391-.278c.138-.16.338-.44.338-.44Zm.588.316c.095.037.276.107.4.146a6.616,6.616,0,0,1-.248.626c-.16-.066-.38-.19-.438-.221.09-.13.287-.551.287-.551Zm.634.219c.15.035.371.076.436.087-.04.228-.145.645-.174.737a4.314,4.314,0,0,1-.475-.156,5.428,5.428,0,0,0,.212-.669Zm.687.131c.123.017.384.04.44.038a6.722,6.722,0,0,1-.085.823,4.626,4.626,0,0,1-.493-.094c.061-.238.138-.767.138-.767Zm.7.037a3.935,3.935,0,0,0,.446-.02c.027.262.032.778.027.909a4.934,4.934,0,0,1-.523-.029,7.75,7.75,0,0,0,.05-.86Zm.7-.046a3.537,3.537,0,0,0,.442-.076,8.717,8.717,0,0,1,.14.962,4,4,0,0,1-.515.037,8.854,8.854,0,0,0-.067-.922Zm-.827,1.437c.173.027.461.052.559.059a8.943,8.943,0,0,1-.181,1.046,6.173,6.173,0,0,1-.627-.125,9.4,9.4,0,0,0,.251-.981Zm-1.455,1.189a6.081,6.081,0,0,0,.621.256,7.374,7.374,0,0,1-.553.993,4.6,4.6,0,0,1-.671-.348,9.218,9.218,0,0,0,.6-.9Zm-2.058.64a8.065,8.065,0,0,0,.623.522,7.8,7.8,0,0,1-.986.824,6.221,6.221,0,0,1-.648-.646,8.319,8.319,0,0,0,1.012-.7Zm-2.567-.186a8.014,8.014,0,0,0,.518.814,9.39,9.39,0,0,1-1.425.467c-.135-.216-.412-.779-.489-.951a8.729,8.729,0,0,0,1.4-.33Zm-.651-1.4c.082.223.28.672.39.9a9.006,9.006,0,0,1-1.382.25c-.123-.294-.262-.8-.335-1.04.538-.008,1.329-.106,1.329-.106Zm-4.048-2.115c.707.188,1.184.3,1.612.385a10.893,10.893,0,0,0,.123,1.17,15.65,15.65,0,0,1-1.735-.252,12.958,12.958,0,0,1,0-1.3Zm.237-2.038c.335.151,1.128.47,1.4.575-.038.371-.052.9-.052,1.17-.43-.1-1.236-.353-1.539-.45.035-.393.193-1.291.193-1.291Zm.535-1.982c.263.18,1.021.638,1.161.723-.082.315-.18.918-.222,1.15-.282-.11-1.064-.507-1.305-.622.147-.624.368-1.247.368-1.247Zm.786-1.892c.276.264.755.676.95.85-.132.327-.3.8-.39,1.109-.374-.23-.839-.591-1.093-.77.182-.48.533-1.19.533-1.19Zm1.076-1.739c.16.221.606.838.675.925-.2.333-.446.839-.537,1.026-.172-.157-.837-.87-.837-.87.279-.5.7-1.08.7-1.08Zm1.32-1.587c.118.271.4.884.434.965-.236.294-.524.69-.707.96-.2-.29-.477-.746-.6-.937.356-.441.875-.984.875-.984Zm.656,1.46c.108.256.293.647.37.812a8.287,8.287,0,0,0-.5.911c-.191-.28-.4-.624-.5-.767.291-.48.632-.952.632-.952Zm-.932,1.521c.17.234.437.579.562.73-.113.264-.27.715-.344.948-.188-.178-.531-.523-.683-.67.162-.409.465-1.008.465-1.008Zm.861,1.113c.141.178.345.43.47.57-.055.2-.153.6-.194.827a7.237,7.237,0,0,1-.558-.493c.122-.449.284-.9.284-.9Zm.521,2.092c.157.1.377.232.509.3a4.574,4.574,0,0,0,.029.683c-.224-.07-.4-.137-.562-.2-.009-.291.024-.783.024-.783Zm.762.43a3.131,3.131,0,0,0,.423.174,4.451,4.451,0,0,0,.089.544,3.23,3.23,0,0,1-.454-.087c-.028-.173-.056-.631-.056-.631Zm.126.985a3.553,3.553,0,0,0,.465.033,3.108,3.108,0,0,0,.177.489,3.51,3.51,0,0,1-.483.07c-.06-.177-.16-.592-.16-.592Zm.778.8a5.1,5.1,0,0,0,.266.448,4.8,4.8,0,0,1-.511.218c-.07-.13-.2-.419-.258-.546a4.049,4.049,0,0,0,.5-.12Zm.437.7a4.365,4.365,0,0,0,.341.39,3.516,3.516,0,0,1-.5.367c-.106-.132-.256-.355-.34-.486a3.021,3.021,0,0,0,.5-.27Zm.56.6a4.827,4.827,0,0,0,.41.335,6.855,6.855,0,0,1-.482.532,5.77,5.77,0,0,1-.436-.433,4.346,4.346,0,0,0,.508-.434Zm.658.52c.1.061.32.2.46.265a6.411,6.411,0,0,1-.431.672c-.166-.107-.334-.236-.492-.362a4.753,4.753,0,0,0,.463-.574Zm.739.406c.183.08.383.154.514.2-.073.2-.287.65-.377.818a6.1,6.1,0,0,1-.55-.291A6.783,6.783,0,0,0,20,22.206Zm.81.3a5.252,5.252,0,0,0,.531.135,8.466,8.466,0,0,1-.278.927,5.486,5.486,0,0,1-.591-.2c.145-.31.338-.857.338-.857Zm-1.526.85c.17.112.4.25.57.345a8,8,0,0,1-.631.854,4.177,4.177,0,0,1-.607-.46,7.338,7.338,0,0,0,.668-.74Zm-2.007.236a7.191,7.191,0,0,0,.53.6,7.474,7.474,0,0,1-1.01.622,6.938,6.938,0,0,1-.522-.73,8.607,8.607,0,0,0,1-.5Zm-.707-1.066c.111.2.318.523.432.689a7.926,7.926,0,0,1-1,.419,8.04,8.04,0,0,1-.41-.814,9.317,9.317,0,0,0,.978-.3Zm-3.28-1.178c.374.049.827.094,1.216.109.048.244.166.716.243.95-.4.028-.952.034-1.288.021a10.85,10.85,0,0,1-.171-1.08ZM13.23,19.6c.3.095.76.23,1.089.316a7.134,7.134,0,0,0,.1.973,9.585,9.585,0,0,1-1.18-.186c-.034-.535-.007-1.1-.007-1.1Zm.192-1.73c.258.142.533.293.93.486a9.452,9.452,0,0,0-.057.984c-.362-.117-.8-.283-1.023-.372.028-.359.15-1.094.15-1.094Zm.448-1.69c.258.216.59.493.755.628-.094.357-.157.744-.2.977-.284-.164-.63-.386-.865-.541a10.991,10.991,0,0,1,.31-1.06Zm1.136.926c.208.166.377.285.627.456a7.36,7.36,0,0,0-.07.834c-.222-.109-.494-.246-.7-.355.037-.353.143-.931.143-.931Zm.943,1.884a5.233,5.233,0,0,0,.582.144,4.278,4.278,0,0,0,.144.647,5.507,5.507,0,0,1-.627-.04c-.067-.334-.1-.75-.1-.75Zm.186,1.178a6.329,6.329,0,0,0,.65-.022c.06.17.178.455.247.6a5.638,5.638,0,0,1-.68.14c-.1-.256-.217-.714-.217-.714ZM17.2,21.1c.087.153.239.411.338.547a5.438,5.438,0,0,1-.7.318c-.135-.238-.256-.5-.332-.665a5.719,5.719,0,0,0,.69-.2Zm.57.853a6.061,6.061,0,0,0,.432.492,7.44,7.44,0,0,1-.712.506c-.145-.184-.3-.409-.436-.614a6.942,6.942,0,0,0,.716-.384Zm.7.765a6.561,6.561,0,0,0,.506.42,7,7,0,0,1-.69.679,6.8,6.8,0,0,1-.513-.534,7.925,7.925,0,0,0,.7-.565ZM15.127,21.46a8.611,8.611,0,0,0,.92-.076c.1.248.22.552.315.733a7.321,7.321,0,0,1-.956.211c-.106-.274-.279-.867-.279-.867Zm-.263-1.43c.31.058.654.1.85.118a6.548,6.548,0,0,0,.192.789c-.313.016-.673.016-.9.006-.08-.345-.14-.914-.14-.914Zm-.032-1.45c.228.1.53.22.734.294a7.587,7.587,0,0,0,.068.809,7.22,7.22,0,0,1-.8-.181c-.026-.35,0-.921,0-.921Z" fill="#fff"/>
  </g>
</svg>
