<svg xmlns="http://www.w3.org/2000/svg" width="71" height="55" fill="none" viewBox="0 0 71 55">
    <path fill="#FABD00" d="M31.837 0s-2.002.01-3.701.147c-.527.322-1.333 1.074-1.333 1.074s1.971-.383 3.212-.516C30.631.363 31.837 0 31.837 0zM26.076.384s-2.237.335-3.393.663c-.248.62-.602 1.564-.602 1.564s2.193-.742 2.954-.927c.364-.626 1.04-1.3 1.04-1.3zM21.813 3.564s1.621-.745 2.641-1.06c-.333.616-.564 1.047-.734 1.44-.31.137-1.955 1.04-2.315 1.27.194-.87.408-1.65.408-1.65z"/>
    <path fill="#F5A200" d="M18.234 8.583s.843-.804 1.815-1.566c-.044.51-.102 1.642-.102 1.642s-.782.745-1.55 1.594l-.163-1.67z"/>
    <path fill="#FABD00" d="M18.013 5.71l.129 1.812s1.489-1.197 2.005-1.505c.007-.41.194-1.717.194-1.717s-1.475.8-2.328 1.41z"/>
    <path fill="#F5A200" d="M17.83 2.675l.094 1.937s2.002-1.112 2.587-1.32c.068-.26.292-1.475.357-1.742-1.35.393-3.039 1.125-3.039 1.125z"/>
    <path fill="#427935" d="M23.852 19.603c.19-.017 1.224.037 1.826.147.14.178.248.325.248.325s-1.03-.195-1.727-.236c-.126-.103-.347-.236-.347-.236zM24.373 19.99c.237.006 1.165.136 1.648.266.095.178.146.328.146.328s-1.05-.283-1.55-.338c-.085-.096-.244-.257-.244-.257z"/>
    <path fill="#00A6D9" d="M24.72 20.39s.842.164 1.488.383c.038.116.044.325.044.325s-.724-.301-1.383-.438c-.065-.134-.15-.27-.15-.27z"/>
    <path fill="#427935" d="M24.937 20.814c.635.164 1.115.366 1.308.472 0 .078-.027.246-.047.304-.092-.051-.64-.349-1.203-.52 0-.079-.058-.256-.058-.256z"/>
    <path fill="#00A6D9" d="M25.018 21.225c.504.17 1.007.458 1.136.54-.027.113-.12.29-.12.29s-.53-.358-1.03-.574c.031-.099.014-.256.014-.256z"/>
    <path fill="#427935" d="M24.991 21.624c.28.133.762.441.956.592-.055.092-.143.222-.187.27-.235-.215-.646-.5-.833-.612.027-.069.064-.25.064-.25z"/>
    <path fill="#00A6D9" d="M24.869 22.004s.432.277.782.626c-.082.106-.225.236-.248.25-.262-.315-.5-.517-.66-.643.058-.083.126-.233.126-.233z"/>
    <path fill="#427935" d="M24.675 22.356c.296.267.503.527.592.644-.102.082-.262.201-.262.201s-.156-.256-.486-.64c.075-.081.156-.205.156-.205z"/>
    <path fill="#003068" d="M24.424 22.672c.19.243.34.5.421.643-.105.065-.21.133-.302.171-.096-.222-.194-.424-.31-.633.082-.075.19-.181.19-.181z"/>
    <path fill="#00A6D9" d="M24.121 22.936c.102.201.21.475.259.622-.106.055-.286.106-.32.116-.054-.256-.136-.533-.156-.602.081-.04.217-.136.217-.136z"/>
    <path fill="#427935" d="M23.791 23.134c.065.277.096.472.116.588-.109.028-.269.058-.313.065 0-.24-.014-.441-.017-.557.102-.038.214-.096.214-.096zM26.98 20.543c.537.164 1.383.55 1.672.705-.007.12-.034.335-.068.417-.428-.256-.958-.544-1.52-.756-.026-.209-.084-.366-.084-.366zM27.068 21.118c.442.178 1.146.568 1.455.787-.03.123-.102.301-.15.393-.363-.273-.948-.643-1.335-.83.03-.148.03-.35.03-.35z"/>
    <path fill="#00A6D9" d="M26.994 21.662c.58.322 1.057.705 1.264.859-.068.12-.16.263-.241.362-.28-.284-.952-.762-1.14-.879.062-.167.117-.342.117-.342z"/>
    <path fill="#003068" d="M26.796 22.17c.575.425.89.743 1.057.9-.074.093-.258.278-.32.319-.213-.267-.72-.74-.937-.9.095-.127.2-.318.2-.318z"/>
    <path fill="#427935" d="M26.48 22.648c.279.253.72.749.86.927-.119.106-.282.225-.367.273-.228-.338-.666-.831-.748-.92.12-.116.255-.28.255-.28zM26.069 23.072c.31.363.55.746.676.927-.122.086-.258.165-.41.24-.184-.352-.433-.74-.565-.924.15-.11.299-.243.299-.243zM25.59 23.451c.186.291.448.79.486.9-.133.062-.306.123-.436.171-.129-.332-.292-.725-.38-.872.122-.062.33-.199.33-.199z"/>
    <path fill="#00A6D9" d="M25.06 23.738c.135.325.281.729.319.866-.123.044-.313.102-.47.13-.07-.363-.156-.681-.21-.842.163-.055.36-.154.36-.154z"/>
    <path fill="#427935" d="M24.502 23.964c.054.236.139.67.15.814-.113.017-.3.045-.47.045-.003-.315-.03-.616-.047-.756.176-.038.367-.103.367-.103z"/>
    <path fill="#00A6D9" d="M23.94 24.104c.008.184.004.506-.016.728-.153-.003-.425-.024-.466-.027.072-.332.099-.554.116-.674.146 0 .367-.027.367-.027z"/>
    <path fill="#003068" d="M23.377 24.129c-.048.263-.116.561-.143.64-.143-.031-.286-.062-.418-.106.105-.243.214-.561.214-.561.16.02.346.027.346.027z"/>
    <path fill="#980D31" d="M22.007 24.639c.129.085.272.181.404.246-.119.209-.289.452-.38.558-.13-.08-.354-.254-.435-.343.186-.184.41-.461.41-.461z"/>
    <path fill="#003068" d="M23.115 25.151c-.099.318-.272.701-.272.701s-.347-.137-.51-.246c.153-.267.316-.609.316-.609.214.092.466.154.466.154z"/>
    <path fill="#427935" d="M23.387 25.21c.119.027.333.058.486.075-.024.267-.102.715-.136.845-.187-.034-.452-.113-.585-.16.082-.213.235-.76.235-.76z"/>
    <path fill="#00A6D9" d="M24.179 25.302c.194.007.34-.004.503-.02.017.235.01.844 0 .967-.15.004-.432-.023-.605-.054.064-.284.102-.893.102-.893z"/>
    <path fill="#427935" d="M24.995 25.25c.163-.02.343-.051.516-.082.055.253.14.848.16 1.078-.15.017-.452.034-.622.03.007-.304-.054-1.026-.054-1.026z"/>
    <path fill="#003068" d="M26.327 24.957c.173.469.33 1.156.33 1.156s-.408.072-.622.1c-.072-.527-.218-1.109-.218-1.109.259-.061.51-.147.51-.147z"/>
    <path fill="#00A6D9" d="M26.61 24.844c.16-.065.38-.17.482-.229.204.38.432.941.537 1.239-.228.092-.54.17-.612.184-.15-.564-.408-1.194-.408-1.194zM27.813 24.204c.23.346.544.9.724 1.249-.194.13-.401.212-.558.274-.214-.544-.537-1.095-.618-1.246.19-.099.452-.277.452-.277z"/>
    <path fill="#427935" d="M28.448 23.71c.367.446.83 1.092.935 1.267-.126.11-.411.27-.52.325-.258-.496-.656-1.081-.806-1.27.187-.143.391-.321.391-.321zM28.965 23.123c.517.503 1.043 1.108 1.162 1.262-.125.134-.38.346-.452.387-.33-.5-.863-1.102-1.023-1.273.16-.167.313-.376.313-.376zM29.342 22.474c.384.284 1.006.82 1.397 1.218-.105.174-.333.42-.377.451-.343-.417-.89-.94-1.247-1.238.132-.212.227-.431.227-.431z"/>
    <path fill="#003068" d="M30.77 25.241c.292.407.853 1.341 1.013 1.67-.2.14-.598.342-.69.39-.37-.852-.853-1.67-.853-1.67.282-.174.53-.39.53-.39z"/>
    <path fill="#427935" d="M31.059 28.58c.258.78.448 1.605.53 2.042-.387.113-.873.202-1.003.23-.078-.685-.299-1.721-.37-1.995.306-.082.843-.277.843-.277z"/>
    <path fill="#00A6D9" d="M30.05 32.188c.013.893-.048 1.875-.096 2.272-.411.014-1.047-.038-1.275-.058.19-1 .266-2.186.266-2.186.52.01 1.104-.028 1.104-.028z"/>
    <path fill="#003068" d="M26.276 35.253c.401.14.931.26 1.319.346-.269.93-.765 2.083-.894 2.305-.581-.154-1.23-.386-1.458-.492.465-.767 1.033-2.16 1.033-2.16zM22.197 37.426c.571.376.82.506 1.4.834-.822 1.061-1.607 1.824-1.811 2.026-.592-.339-1.21-.814-1.482-1.06.89-.706 1.893-1.8 1.893-1.8zM16.813 37.994c.289.42.972 1.15 1.288 1.458-.751.468-2.21 1.176-2.87 1.409-.465-.523-1.053-1.392-1.287-1.738 1.77-.537 2.869-1.129 2.869-1.129zM5.854 32.398c1.624.25 2.8.328 3.562.365.075.456.449 1.882.588 2.296-.976.082-3.056.03-3.74-.065-.271-1.163-.41-2.596-.41-2.596zM.931 21.378c1.438.807 2.75 1.505 3.495 1.861-.18.698-.503 2.306-.547 2.754C2.515 25.483.408 24.518 0 24.327c.364-1.413.931-2.95.931-2.95z"/>
    <path fill="#980D31" d="M2.855 16.927c1.071.807 2.38 1.69 2.9 2.07-.3.728-.772 2.216-.908 2.668-1.281-.68-2.97-1.72-3.294-1.916.612-1.478 1.302-2.822 1.302-2.822z"/>
    <path fill="#D39200" d="M5.374 12.818c.782.753 1.75 1.721 2.301 2.22-.34.524-1.05 1.998-1.274 2.48-.619-.434-2.094-1.655-2.682-2.124.676-1.176 1.655-2.576 1.655-2.576z"/>
    <path fill="#980D31" d="M8.454 9.137c.629.862 1.302 1.796 1.669 2.268-.411.493-1.33 1.813-1.625 2.278-.666-.684-2.063-2.271-2.063-2.271 1-1.239 2.019-2.275 2.019-2.275z"/>
    <path fill="#D7A700" d="M12.074 5.98c.31.7.775 1.69 1.01 2.2-.571.533-1.642 1.686-1.958 2.018-.34-.496-1.16-1.851-1.428-2.265.976-.893 2.376-1.954 2.376-1.954z"/>
    <path fill="#F5A200" d="M16.19 3.441c.157.804.32 1.827.36 2.032-.897.572-1.988 1.461-2.277 1.673-.292-.79-.768-2.148-.768-2.148 1.193-.773 2.685-1.557 2.685-1.557zM16.72 6.627c.13.725.225 1.303.33 1.871-.635.578-1.461 1.468-1.692 1.731-.208-.578-.599-1.707-.66-1.898.949-.883 2.023-1.704 2.023-1.704z"/>
    <path fill="#FABD00" d="M17.248 9.559s.204 1.06.312 1.68c-.465.57-1.063 1.402-1.267 1.72-.29-.739-.572-1.656-.572-1.656.53-.718 1.527-1.744 1.527-1.744z"/>
    <path fill="#F5A200" d="M17.747 12.155c.079.407.269 1.355.306 1.499-.251.39-.819 1.406-.924 1.625-.238-.572-.51-1.41-.51-1.41.313-.56 1.128-1.714 1.128-1.714z"/>
    <path fill="#D39200" d="M16.041 14.871c.21.524.537 1.2.625 1.368-.268.65-.564 1.44-.67 1.69-.373-.482-.774-1.098-.829-1.234.45-1.037.738-1.632.874-1.824z"/>
    <path fill="#D7A700" d="M17.023 16.948c.177.377.476.93.572 1.092-.089.263-.323 1.05-.408 1.505-.347-.418-.646-.862-.731-.982.217-.746.567-1.615.567-1.615z"/>
    <path fill="#FABD00" d="M16.215 19.496c.163.212.639.719.798.886-.068.322-.166 1.098-.18 1.403-.347-.23-.795-.596-.91-.695.067-.715.292-1.594.292-1.594z"/>
    <path fill="#D7A700" d="M17.445 20.794c.18.191.544.52.683.609-.03.298-.027 1.033-.024 1.184-.374-.182-.629-.366-.765-.462-.003-.63.106-1.331.106-1.331z"/>
    <path fill="#D39200" d="M18.604 23.393c.207.065.452.14.68.164.014.137.19.708.245.838-.357.027-.612.014-.721.014-.153-.455-.204-1.016-.204-1.016z"/>
    <path fill="#980D31" d="M20.09 24.772c.16-.038.513-.168.595-.206.023.08.305.442.367.507-.11.082-.425.273-.578.328-.184-.212-.384-.63-.384-.63z"/>
    <path fill="#D7A700" d="M18.975 24.957c.197 0 .622-.065.734-.1.037.15.31.65.374.74-.2.116-.738.26-.738.26-.187-.34-.37-.9-.37-.9z"/>
    <path fill="#D39200" d="M21.313 25.35c.11.113.36.329.466.418-.146.185-.401.438-.537.55-.18-.167-.449-.478-.49-.553.201-.127.561-.414.561-.414z"/>
    <path fill="#00A6D9" d="M22.078 25.98c.109.068.347.208.55.31-.118.24-.37.654-.455.764-.22-.13-.513-.37-.598-.448.21-.223.503-.627.503-.627z"/>
    <path fill="#003068" d="M22.965 26.447c.16.058.476.165.63.206-.1.331-.263.756-.351.975-.224-.093-.56-.26-.7-.343.207-.37.421-.838.421-.838zM23.961 26.759c.126.024.503.102.663.12-.047.321-.163.937-.231 1.139-.224-.058-.585-.175-.73-.233.139-.404.298-1.026.298-1.026z"/>
    <path fill="#427935" d="M25.008 26.924c.167.014.571.02.687.01.024.356.007.958-.044 1.317-.337-.027-.731-.106-.8-.123.106-.479.157-1.204.157-1.204z"/>
    <path fill="#003068" d="M26.106 26.934c.153-.007.534-.038.69-.065.068.38.126 1.098.123 1.437-.225.01-.697-.007-.803-.02.02-.22-.01-1.352-.01-1.352z"/>
    <path fill="#427935" d="M27.194 26.804c.255-.048.537-.11.68-.15.146.492.265 1.06.33 1.546-.221.05-.667.092-.823.092-.024-.565-.187-1.488-.187-1.488zM28.271 26.548c.187-.062.565-.202.653-.236.224.547.473 1.378.53 1.614-.306.103-.594.154-.778.188-.102-.595-.404-1.566-.404-1.566z"/>
    <path fill="#00A6D9" d="M29.295 26.155c.153-.076.513-.257.595-.315.224.404.649 1.293.781 1.663-.363.164-.67.263-.747.287-.17-.589-.63-1.635-.63-1.635z"/>
    <path fill="#003068" d="M20.368 25.996c.075.116.33.448.517.643-.15.137-.578.442-.734.53-.262-.331-.408-.608-.527-.81.38-.158.744-.363.744-.363zM21.222 26.979c.152.147.414.383.625.533-.218.291-.564.674-.69.787-.241-.212-.493-.493-.663-.688.3-.212.728-.633.728-.633z"/>
    <path fill="#00A6D9" d="M22.248 27.781c.2.134.462.301.724.428-.197.39-.462.81-.619 1.04-.244-.154-.598-.414-.778-.568.275-.325.673-.9.673-.9zM23.418 28.429c.187.075.547.219.791.297-.129.394-.316.897-.492 1.28-.32-.134-.755-.387-.87-.452.176-.263.57-1.125.57-1.125z"/>
    <path fill="#003068" d="M24.679 28.877c.299.072.737.154.866.178-.078.465-.289 1.317-.346 1.505-.415-.11-.833-.274-.945-.318.244-.609.425-1.365.425-1.365z"/>
    <path fill="#00A6D9" d="M26.045 29.145c.245.034.765.082.874.078-.007.428-.113 1.447-.167 1.68-.438-.055-.822-.154-.982-.192.122-.485.275-1.566.275-1.566zM27.432 29.22c.231.003.697-.01.887-.041.054.537.065 1.59.054 1.857-.367 0-.798-.027-1.04-.058.095-.65.099-1.758.099-1.758z"/>
    <path fill="#003068" d="M28.832 29.127c.276-.03.71-.106.88-.157.137.571.242 1.6.28 1.967-.45.065-.878.075-1.027.075.013-.674-.133-1.885-.133-1.885z"/>
    <path fill="#427935" d="M27.187 32.062c.343.054.918.106 1.112.12-.078.7-.225 1.607-.36 2.137-.422-.054-.98-.188-1.248-.256.214-.575.496-2.002.496-2.002z"/>
    <path fill="#003068" d="M24.291 34.49c.394.188.758.353 1.237.524-.414.934-.775 1.502-1.101 2.028-.459-.184-.948-.472-1.336-.711.544-.691 1.2-1.84 1.2-1.84zM20.198 35.797c.412.407.88.78 1.238 1.067-.65.654-1.39 1.287-1.962 1.683-.455-.4-1.09-1.057-1.288-1.32.683-.342 2.012-1.43 2.012-1.43zM15.09 35.418c.278.53.72 1.228 1.03 1.663-.824.362-2.047.776-2.836.954-.268-.441-.819-1.59-.972-1.943 1.645-.264 2.777-.674 2.777-.674zM13.794 32.568c.163.455.557 1.372.775 1.834-.802.219-1.781.414-2.75.513-.245-.602-.52-1.645-.666-2.128 1.067-.017 2.641-.219 2.641-.219zM5.738 28.247c1.407.383 2.356.62 3.209.787.007.623.177 2.025.245 2.388-1.092-.058-2.716-.37-3.454-.513-.082-.883 0-2.662 0-2.662z"/>
    <path fill="#980D31" d="M6.21 24.084c.667.308 2.244.961 2.791 1.173-.075.76-.102 1.837-.102 2.392-.856-.206-2.46-.722-3.063-.92.058-.811.374-2.645.374-2.645z"/>
    <path fill="#003068" d="M7.274 20.033c.524.37 2.033 1.304 2.312 1.478-.163.643-.36 1.875-.442 2.35-.561-.225-2.118-1.036-2.597-1.272.289-1.283.727-2.556.727-2.556z"/>
    <path fill="#980D31" d="M8.838 16.168c.55.54 1.502 1.382 1.89 1.738-.262.667-.592 1.632-.775 2.265-.745-.47-1.67-1.208-2.176-1.574.364-.979 1.06-2.429 1.06-2.429z"/>
    <path fill="#F5A200" d="M10.98 12.616c.32.452 1.206 1.71 1.342 1.889-.408.68-.887 1.714-1.067 2.097-.343-.322-1.666-1.78-1.666-1.78.554-1.015 1.39-2.206 1.39-2.206z"/>
    <path fill="#FABD00" d="M13.607 9.373c.235.554.785 1.806.864 1.97-.47.603-1.044 1.41-1.408 1.96-.394-.591-.948-1.522-1.193-1.912.704-.91 1.737-2.018 1.737-2.018z"/>
    <path fill="#D7A700" d="M14.913 12.357c.214.524.58 1.32.734 1.66-.377.598-.762 1.358-.99 1.86-.38-.57-.805-1.275-.992-1.566.568-.989 1.248-1.954 1.248-1.954zM13.056 15.464c.34.479.87 1.184 1.119 1.491-.225.541-.537 1.461-.684 1.937-.373-.363-1.057-1.068-1.36-1.369.324-.834.925-2.06.925-2.06z"/>
    <path fill="#980D31" d="M14.77 17.738c.282.363.686.88.934 1.163-.108.421-.302 1.232-.384 1.69-.452-.352-.853-.759-1.111-1.005.238-.927.56-1.848.56-1.848zM15.806 22.01c.313.2.752.476 1.014.62-.02.37.006.934.057 1.396-.445-.144-.785-.28-1.118-.414-.017-.595.047-1.601.047-1.601z"/>
    <path fill="#F5A200" d="M17.323 22.89c.278.14.543.256.843.355.037.428.125.88.176 1.112-.35-.04-.69-.12-.904-.178-.058-.362-.115-1.29-.115-1.29z"/>
    <path fill="#980D31" d="M17.574 24.902c.289.045.741.076.925.069.04.219.24.746.353.999-.282.075-.765.126-.962.143-.119-.362-.316-1.21-.316-1.21z"/>
    <path fill="#00A6D9" d="M19.124 26.53c.102.232.422.752.527.916-.235.137-.789.36-1.016.445-.14-.267-.398-.855-.514-1.115.252-.017 1.003-.247 1.003-.247z"/>
    <path fill="#D39200" d="M19.99 27.953c.198.253.453.571.68.797-.244.233-.75.606-.999.75-.21-.27-.51-.726-.676-.993.567-.246.996-.554.996-.554z"/>
    <path fill="#980D31" d="M21.106 29.175c.255.232.56.503.816.684-.228.315-.765.886-.959 1.088-.258-.23-.714-.701-.867-.886.51-.366 1.01-.886 1.01-.886z"/>
    <path fill="#003068" d="M22.415 30.238c.21.123.639.4.917.54-.19.37-.66 1.11-.86 1.373-.33-.22-.663-.483-.979-.74.51-.54.922-1.173.922-1.173z"/>
    <path fill="#00A6D9" d="M23.887 31.066c.363.165.761.315 1.023.414-.146.404-.571 1.331-.752 1.673-.346-.167-.812-.414-1.094-.595.374-.547.823-1.492.823-1.492z"/>
    <path fill="#003068" d="M25.498 31.689c.37.112.744.215 1.057.273-.126.527-.337 1.317-.554 1.895-.374-.099-.826-.277-1.176-.417.289-.633.673-1.751.673-1.751zM22.462 33.424c.337.229.802.513 1.132.705-.279.479-.982 1.436-1.254 1.744-.422-.27-.925-.656-1.207-.937.707-.688 1.33-1.512 1.33-1.512zM18.468 33.906c.258.346.775.958 1.054 1.235-.656.5-1.615 1.085-2.01 1.27-.305-.363-.842-1.147-1.04-1.492 1.078-.452 1.996-1.013 1.996-1.013z"/>
    <path fill="#980D31" d="M17.06 31.727c.222.403.633 1.07.86 1.409-.628.339-1.505.688-1.988.855-.343-.598-.66-1.283-.816-1.662 1.071-.267 1.945-.602 1.945-.602zM10.534 29.321c.745.1 1.645.192 2.42.223.096.5.33 1.464.483 1.94-.802.057-1.893.071-2.563.044-.231-1.085-.34-2.207-.34-2.207z"/>
    <path fill="#003068" d="M10.405 25.75c.588.195 1.513.472 2.169.647.003.69.122 1.515.194 1.987-.864-.061-1.87-.28-2.35-.38-.067-1.094-.013-2.254-.013-2.254z"/>
    <path fill="#980D31" d="M10.79 22.217c.512.29 1.06.599 1.848.992-.068.503-.108 1.46-.112 2.012-.72-.24-1.598-.579-2.036-.76.058-.742.3-2.244.3-2.244z"/>
    <path fill="#D39200" d="M11.68 18.765c.513.441 1.173 1.005 1.502 1.282-.187.73-.312 1.52-.408 1.995-.564-.335-1.254-.787-1.72-1.105.232-1.026.626-2.172.626-2.172z"/>
    <path fill="#F5A200" d="M13.94 20.655c.415.339.752.582 1.248.93-.088.617-.126 1.243-.14 1.704-.441-.222-.982-.502-1.386-.725.074-.729.278-1.909.278-1.909z"/>
    <path fill="#00A6D9" d="M15.817 24.504c.346.116.863.24 1.159.294.04.315.17.979.285 1.32-.38.008-.894-.04-1.247-.081-.133-.681-.197-1.533-.197-1.533z"/>
    <path fill="#980D31" d="M16.187 26.91c.415.004.898-.006 1.295-.044.12.35.354.93.49 1.235-.333.1-.98.236-1.353.284-.194-.537-.432-1.474-.432-1.474zM18.312 28.806c.173.314.476.841.673 1.118-.347.223-1.108.54-1.387.65-.269-.485-.51-1.03-.66-1.358.442-.072 1.374-.41 1.374-.41z"/>
    <path fill="#00A6D9" d="M19.447 30.55c.231.308.632.776.86 1.006-.374.321-1.112.845-1.417 1.033-.29-.377-.599-.835-.867-1.256.673-.304 1.424-.783 1.424-.783z"/>
    <path fill="#980D31" d="M20.837 32.114c.388.353.684.616 1.006.859-.404.49-1.023 1.081-1.373 1.385-.472-.44-.751-.79-1.02-1.09.796-.59 1.387-1.154 1.387-1.154z"/>
    <path fill="#003068" d="M14.182 29.544c.764-.027 1.393-.092 1.832-.157.19.506.435 1.129.625 1.498-.442.15-1.356.346-1.903.431-.211-.56-.554-1.772-.554-1.772z"/>
    <path fill="#D39200" d="M13.658 26.62c.616.119 1.302.211 1.693.242.068.482.238 1.109.38 1.611-.621.035-1.339.035-1.794.014-.16-.705-.279-1.868-.279-1.868z"/>
    <path fill="#D7A700" d="M13.594 23.66c.455.205 1.057.448 1.461.599.007.489.072 1.166.136 1.652-.649-.113-1.142-.236-1.594-.37-.05-.714-.003-1.88-.003-1.88z"/>
    <path fill="#003068" d="M43.68 18.983c0 1.518-1.155 2.23-2.138 2.23h-2.648v-4.482h2.648c.983 0 2.138.688 2.138 2.252zm2.43 0c0-2.782-2.273-4.482-4.449-4.482H36.44v13.76h2.45v-4.817h2.768c2.274 0 4.453-1.841 4.453-4.461zM48.531 23.304l4.314-8.806h-2.509l-4.548 9.319v1.676h5.728v-2.19H48.53zm6.649-3.028h-2.393v7.982h2.393v-7.982zM56.6 21.392c0 4.105 3.237 7.102 7.258 7.102 2.295 0 4.314-1.006 5.592-2.583v-5.634h-6.122v2.2h3.807v2.603c-.843.753-1.982 1.184-3.277 1.184-2.743 0-4.823-2.07-4.823-4.875 0-2.785 2.08-4.896 4.823-4.896 1.353 0 2.57.476 3.45 1.341l1.629-1.502c-1.316-1.324-3.083-2.07-5.082-2.07-4.015 0-7.254 3.021-7.254 7.13zM36.205 38.127c.405.209 1.05.425 1.703.425.704 0 1.081-.291 1.081-.74 0-.424-.323-.67-1.138-.95-1.129-.404-1.877-1.034-1.877-2.03 0-1.166.98-2.045 2.573-2.045.775 0 1.33.15 1.734.346l-.343 1.235c-.262-.13-.758-.325-1.414-.325-.667 0-.986.314-.986.66 0 .438.374.63 1.26.965 1.2.448 1.755 1.074 1.755 2.039 0 1.149-.867 2.12-2.733 2.12-.775 0-1.54-.212-1.924-.427l.31-1.273zM46.328 38.127c0 .647.02 1.174.041 1.591h-1.332l-.072-.698h-.03c-.19.301-.653.811-1.54.811-1.006 0-1.734-.63-1.734-2.162v-2.911h1.533v2.672c0 .721.235 1.153.779 1.153.425 0 .673-.291.764-.538.041-.089.062-.198.062-.335v-2.952h1.533v3.37h-.004zM47.691 36.341c0-.619-.02-1.135-.04-1.584h1.298l.061.674h.034c.211-.328.653-.793 1.49-.793.645 0 1.138.335 1.349.855h.02c.19-.264.401-.469.643-.612.272-.15.574-.243.934-.243.949 0 1.663.67 1.663 2.162v2.921H53.65v-2.699c0-.718-.23-1.132-.724-1.132-.367 0-.605.246-.717.537-.03.11-.051.263-.051.393v2.901h-1.492v-2.788c0-.616-.221-1.043-.714-1.043-.391 0-.625.304-.714.547-.05.123-.061.264-.061.394v2.89h-1.489v-3.38h.003zM56.495 36.341c0-.619-.02-1.135-.04-1.584h1.298l.061.674h.03c.215-.328.657-.793 1.496-.793.643 0 1.14.335 1.35.855h.02c.19-.264.402-.469.646-.612.272-.15.575-.243.938-.243.949 0 1.663.67 1.663 2.162v2.921h-1.492v-2.699c0-.718-.232-1.132-.725-1.132-.363 0-.605.246-.717.537-.03.11-.047.263-.047.393v2.901h-1.493v-2.788c0-.616-.22-1.043-.713-1.043-.395 0-.626.304-.714.547-.051.123-.062.264-.062.394v2.89h-1.488v-3.38h-.01zM66.88 33.379c0 .424-.313.77-.826.77-.483 0-.795-.346-.795-.77 0-.438.326-.773.819-.773.49 0 .789.335.802.773zm-1.584 1.375h1.533v4.96h-1.533v-4.96zM69.902 33.42v1.335H71v1.14h-1.098v1.795c0 .599.15.87.605.87.21 0 .313-.011.456-.042l.01 1.167c-.194.068-.565.13-.99.13-.492 0-.907-.171-1.159-.428-.282-.294-.424-.77-.424-1.47V35.89h-.657v-1.14h.657v-.916l1.502-.414zM21.415 52.82c.517.274 1.343.544 2.18.544.9 0 1.38-.372 1.38-.947 0-.544-.415-.855-1.456-1.218-1.444-.517-2.4-1.32-2.4-2.593 0-1.492 1.252-2.62 3.288-2.62.992 0 1.7.194 2.216.44l-.439 1.581c-.333-.167-.965-.414-1.805-.414-.85 0-1.264.404-1.264.845 0 .554.48.804 1.611 1.232 1.533.571 2.244 1.378 2.244 2.61 0 1.464-1.108 2.71-3.495 2.71-.992 0-1.971-.274-2.46-.544l.4-1.625zM30.012 52.314c.05.82.863 1.207 1.778 1.207.673 0 1.213-.092 1.74-.273l.258 1.334c-.645.27-1.43.403-2.28.403-2.139 0-3.366-1.245-3.366-3.229 0-1.611.993-3.387 3.185-3.387 2.037 0 2.812 1.594 2.812 3.165 0 .335-.038.636-.065.78h-4.062zm2.308-1.348c0-.483-.207-1.287-1.108-1.287-.826 0-1.16.767-1.214 1.287h2.322zM41.705 51.613c0 2.323-1.635 3.387-3.324 3.387-1.839 0-3.26-1.221-3.26-3.27 0-2.06 1.34-3.374 3.375-3.374 1.921.004 3.21 1.341 3.21 3.257zm-4.561.069c0 1.088.452 1.905 1.291 1.905.772 0 1.248-.766 1.248-1.919 0-.937-.36-1.895-1.248-1.895-.931 0-1.291.975-1.291 1.909zM49.027 52.82c0 .828.027 1.505.051 2.036h-1.7l-.091-.893h-.038c-.248.39-.84 1.036-1.971 1.036-1.292 0-2.216-.803-2.216-2.76v-3.722h1.96v3.41c0 .92.297 1.478.994 1.478.54 0 .86-.373.979-.687.05-.117.074-.257.074-.425v-3.776h1.962v4.303h-.004zM52.729 45.65h-1.958v9.206h1.958V45.65z"/>
</svg>
